<svg width="85" height="90" viewBox="0 0 85 90" fill="none" xmlns="http://www.w3.org/2000/svg">
<rect x="0.38916" y="0.662598" width="84.2217" height="88.6748" rx="10" fill="#070707"/>
<path d="M42.7572 32.8517C38.2444 32.8517 34.5727 36.5234 34.5727 41.0362C34.5727 49.5836 41.2961 56.6121 41.5822 56.9076C41.8909 57.2259 42.3144 57.4049 42.7572 57.4049C43.2 57.4049 43.6235 57.2259 43.9322 56.9076C44.2183 56.612 50.9417 49.5832 50.9417 41.0362C50.9417 36.5234 47.27 32.8517 42.7572 32.8517ZM42.7572 44.31C40.9526 44.31 39.4834 42.8408 39.4834 41.0362C39.4834 39.2316 40.9526 37.7624 42.7572 37.7624C44.5618 37.7624 46.031 39.2316 46.031 41.0362C46.031 42.8408 44.5618 44.31 42.7572 44.31Z" fill="#D4D349"/>
<path d="M48.839 53.0586C47.0486 56.009 45.2583 57.8922 45.1088 58.0464C44.495 58.6792 43.6382 59.0421 42.7572 59.0421C41.8763 59.0421 41.0195 58.6793 40.4075 58.0479C40.2573 57.893 38.4662 56.0098 36.6758 53.0586C36.6641 53.0579 36.6528 53.0571 36.6411 53.056C37.6554 62.1671 40.3132 68.0454 42.7572 68.0454C45.2013 68.0454 47.859 62.1675 48.8737 53.056C48.862 53.0568 48.8503 53.0575 48.839 53.0586Z" fill="#D4D349"/>
<path d="M34.8299 51.2448C34.7729 50.5568 34.7247 49.8651 34.6871 49.1691C33.676 46.75 32.9361 43.9815 32.9361 41.0361C32.9361 40.4165 33.0004 39.8125 33.1108 39.2246C24.9851 40.3649 19.8406 42.8415 19.8406 45.1284C19.8406 47.5724 25.7185 50.2302 34.83 51.2449L34.8299 51.2448Z" fill="#D4D349"/>
<path d="M42.7572 31.2147C44.7818 31.2147 46.6646 31.8311 48.2295 32.8849C46.9675 26.2821 44.7891 22.2113 42.7572 22.2113C40.7253 22.2113 38.5469 26.2817 37.2849 32.8849C38.8498 31.8311 40.7326 31.2147 42.7572 31.2147Z" fill="#D4D349"/>
<path d="M65.6739 45.1284C65.6739 42.8415 60.5297 40.3649 52.4037 39.2246C52.5141 39.8125 52.5784 40.4165 52.5784 41.0361C52.5784 43.9815 51.8385 46.75 50.8271 49.1691C50.7895 49.8652 50.7412 50.5569 50.6842 51.2448C59.7957 50.2301 65.6736 47.5724 65.6736 45.1283L65.6739 45.1284Z" fill="#D4D349"/>
<path d="M46.0526 67.7813C56.0648 66.3355 63.964 58.4356 65.4101 48.4237C62.581 50.707 56.8913 52.22 50.5265 52.8978C49.8487 59.2627 48.3352 64.9529 46.0524 67.7815L46.0526 67.7813Z" fill="#D4D349"/>
<path d="M20.1043 48.4238C21.5502 58.436 29.45 66.3362 39.4619 67.7813C37.1787 64.9522 35.6656 59.2625 34.9878 52.8977C28.6229 52.2195 22.9327 50.7065 20.1042 48.4236L20.1043 48.4238Z" fill="#D4D349"/>
<path d="M35.335 34.6233C36.1213 29.391 37.5119 24.8917 39.462 22.4756C29.4498 23.9218 21.5505 31.8217 20.1044 41.8332C22.7264 39.7172 27.8004 38.2586 33.5991 37.5172C34.0105 36.4504 34.5995 35.4736 35.3353 34.6231L35.335 34.6233Z" fill="#D4D349"/>
<path d="M51.9155 37.5172C57.7137 38.2586 62.7883 39.7172 65.4101 41.8332C63.9643 31.8209 56.0644 23.9217 46.0526 22.4756C48.0026 24.8922 49.3932 29.3912 50.1795 34.6233C50.9154 35.4735 51.5044 36.4502 51.9158 37.5172L51.9155 37.5172Z" fill="#D4D349"/>
</svg>
