<svg width="85" height="90" viewBox="0 0 85 90" fill="none" xmlns="http://www.w3.org/2000/svg">
<rect x="0.165649" y="0.662598" width="84.2217" height="88.6748" rx="10" fill="#070707"/>
<g clip-path="url(#clip0_81_4111)">
<path d="M63.1905 24.8408H32.1289C30.3226 24.8408 28.8593 26.3041 28.8593 28.1105V32.0669C29.3906 31.9115 29.9383 31.7808 30.4941 31.6827V29.7453H64.8253V55.9025C64.8253 56.8016 64.0896 57.5373 63.1905 57.5373H49.7765C49.4904 58.1014 49.1715 58.6488 48.8285 59.1721H63.1907C64.997 59.1721 66.4603 57.7088 66.4603 55.9025L66.4599 28.1105C66.4599 26.3042 64.9966 24.8409 63.1903 24.8409L63.1905 24.8408ZM32.1289 28.1105C31.055 28.0897 31.0553 26.4961 32.1289 26.4756C33.2025 26.4961 33.2025 28.09 32.1289 28.1105ZM35.3985 28.1105C34.3246 28.0897 34.325 26.4961 35.3985 26.4756C36.4721 26.4961 36.4721 28.09 35.3985 28.1105ZM38.6682 28.1105C37.5942 28.0897 37.5946 26.4961 38.6682 26.4756C39.7417 26.4961 39.7417 28.09 38.6682 28.1105Z" fill="#D4D349"/>
<path d="M47.6596 33.0146H41.2429C45.7387 35.0746 49.2371 38.9328 50.8146 43.6652C51.0284 43.4039 50.8952 36.7698 50.9291 36.284C50.9291 34.4777 49.4658 33.0144 47.6595 33.0144L47.6596 33.0146Z" fill="#D4D349"/>
<path d="M62.373 35.4669C63.4448 35.4493 63.4495 33.8502 62.373 33.832H53.3815C52.3097 33.8495 52.3051 35.4486 53.3815 35.4669H62.373Z" fill="#D4D349"/>
<path d="M53.3815 38.7365H62.373C63.4448 38.719 63.4495 37.1199 62.373 37.1017H53.3815C52.3097 37.1192 52.3051 38.7183 53.3815 38.7365Z" fill="#D4D349"/>
<path d="M55.0164 40.3713C51.784 40.4556 51.7826 45.1912 55.0164 45.2758H59.1035C60.4559 45.2758 61.5557 44.176 61.5557 42.8236C61.5557 41.4712 60.4559 40.3713 59.1035 40.3713H55.0164Z" fill="#D4D349"/>
<path d="M51.7467 48.5454C51.7467 48.9972 52.1127 49.3628 52.5641 49.3628H62.373C62.8244 49.3628 63.1904 48.9972 63.1904 48.5454C63.1904 48.0937 62.8244 47.728 62.373 47.728H52.5641C52.1127 47.728 51.7467 48.0937 51.7467 48.5454Z" fill="#D4D349"/>
<path d="M53.3815 50.9977H61.5556C62.4584 50.9977 63.1904 51.9005 63.1904 52.6325V54.2673C63.1904 55.1701 62.4584 55.9021 61.5556 55.9021H53.3815C52.4787 55.9021 51.7467 54.9993 51.7467 54.2673V52.6325C51.7467 51.7297 52.4787 50.9977 53.3815 50.9977Z" fill="#D4D349"/>
<path d="M33.7637 33.0146C24.7496 33.0146 17.4155 40.3487 17.4155 49.3628C18.3136 71.0508 49.217 71.0443 50.1119 49.3628C50.1119 40.3487 42.7778 33.0146 33.7637 33.0146ZM33.7637 64.0762C25.6505 64.0762 19.0503 57.4757 19.0503 49.3628C19.8586 29.8431 47.6718 29.8487 48.4771 49.3628C48.4771 57.4753 41.8769 64.0762 33.7637 64.0762Z" fill="#D4D349"/>
<path d="M33.7637 36.2843C26.5523 36.2843 20.6852 42.1514 20.6852 49.3629C20.6852 50.7153 21.785 51.8151 23.1374 51.8151C24.4898 51.8151 25.5896 50.7153 25.5896 49.3629C25.5896 44.8554 29.2563 41.1888 33.7637 41.1888C38.2712 41.1888 41.9378 44.8554 41.9378 49.3629C41.9378 50.7153 43.0376 51.8151 44.3901 51.8151C45.7425 51.8151 46.8423 50.7153 46.8423 49.3629C46.8423 42.1514 40.9752 36.2843 33.7637 36.2843Z" fill="#D4D349"/>
<path d="M45.3251 53.5191C44.9117 53.3362 44.43 53.5271 44.249 53.9405C40.3159 63.039 27.2085 63.036 23.2784 53.9402C22.8394 52.9648 21.3634 53.6019 21.7808 54.5948C26.273 64.9923 41.2567 64.9895 45.7464 54.5945C45.9277 54.181 45.7387 53.699 45.3249 53.5187L45.3251 53.5191Z" fill="#D4D349"/>
<path d="M40.1059 46.3791C39.8118 46.035 39.2955 45.9959 38.9532 46.2904L35.631 49.1382C33.5875 47.6088 30.4149 49.236 30.4941 51.8152C30.4941 53.6182 31.9607 55.0848 33.7638 55.0848C36.1226 55.1436 37.7932 52.4614 36.6893 50.384L40.0177 47.5311C40.3607 47.2374 40.4001 46.7217 40.1063 46.3791L40.1059 46.3791Z" fill="#D4D349"/>
<path d="M28.8593 56.7195C28.8593 57.1713 29.2253 57.5369 29.6767 57.5369H37.8508C38.3022 57.5369 38.6682 57.1713 38.6682 56.7195C38.6682 56.2677 38.3022 55.9021 37.8508 55.9021H29.6767C29.2253 55.9021 28.8593 56.2677 28.8593 56.7195Z" fill="#D4D349"/>
</g>
<defs>
<clipPath id="clip0_81_4111">
<rect width="55" height="46.6624" fill="white" transform="translate(14.7765 21.6689)"/>
</clipPath>
</defs>
</svg>
