<svg width="86" height="90" viewBox="0 0 86 90" fill="none" xmlns="http://www.w3.org/2000/svg">
<rect x="0.88916" y="0.662598" width="84.2217" height="88.6748" rx="10" fill="#070707"/>
<g clip-path="url(#clip0_81_3790)">
<path d="M52.6875 66.8192H50.386L46.3197 60.2977H39.4913L35.5014 66.8192H33.2765C32.8163 66.8192 32.5093 67.2027 32.5093 67.5863C32.5093 68.0466 32.8162 68.3535 33.2765 68.3535H52.7645C53.1481 68.3535 53.5317 68.0466 53.5317 67.5863C53.4551 67.2027 53.1481 66.8192 52.6879 66.8192H52.6875Z" fill="#D4D349"/>
<path d="M62.5843 30.6056V32.14C63.6585 32.2166 64.5792 33.1374 64.5792 34.2116V51.9345L21.384 51.9342V34.2112C21.384 33.1371 22.3049 32.2163 23.3789 32.1396V30.6052C21.461 30.6052 19.8496 32.2162 19.8496 34.2112V55.2328C19.8496 57.2278 21.4606 58.8388 23.4556 58.8388H62.5076C64.5026 58.8388 66.1136 57.2278 66.1136 55.2328V34.2112C66.037 32.2166 64.5027 30.6056 62.5843 30.6056ZM43.5574 55.9241C43.2505 56.2311 42.7903 56.2311 42.4833 55.9241C42.1764 55.6172 42.1764 55.1569 42.4833 54.85C42.7902 54.543 43.2505 54.543 43.5574 54.85C43.8644 55.1566 43.8644 55.6172 43.5574 55.9241Z" fill="#D4D349"/>
<path d="M35.8082 28.7645C36.0385 28.4576 36.4987 28.3809 36.8056 28.6879C37.1126 28.9182 37.1892 29.3784 36.8823 29.6853L34.6574 32.4475H39.7978V30.6828C39.7978 28.1509 37.7262 26.0793 35.1943 26.0793C32.6625 26.0793 30.5909 28.1509 30.5909 30.6828V32.4475H32.8157L35.8082 28.7645Z" fill="#D4D349"/>
<path d="M52.2272 30.8361C52.2272 31.4719 51.7119 31.9869 51.0761 31.9869C50.4407 31.9869 49.9253 31.472 49.9253 30.8361C49.9253 30.2007 50.4407 29.6853 51.0761 29.6853C51.7119 29.6853 52.2272 30.2006 52.2272 30.8361Z" fill="#D4D349"/>
<path d="M54.8359 35.2859C54.222 35.2859 53.6851 35.8228 53.6851 36.4367C53.6851 37.0506 54.222 37.5875 54.8359 37.5875C55.4499 37.5875 55.9868 37.0506 55.9868 36.4367C55.9868 35.8232 55.4499 35.2859 54.8359 35.2859Z" fill="#D4D349"/>
<path d="M61.0498 22.166C61.0498 20.5551 59.7454 19.2506 58.1344 19.2506H27.829C26.2181 19.2506 24.9136 20.5551 24.9136 22.166V50.323H61.0504V22.166H61.0498ZM29.1331 33.138V30.6828C29.1331 27.3071 31.8182 24.6217 35.1943 24.6217C38.57 24.6217 41.2555 27.3068 41.2555 30.6828V33.138C41.2555 33.5216 40.9485 33.8285 40.5649 33.8285L29.8235 33.8282C29.4399 33.8282 29.133 33.5216 29.133 33.138L29.1331 33.138ZM30.9744 47.2549C30.9744 47.6385 30.6675 47.9454 30.2839 47.9454C29.9003 47.9454 29.5933 47.6385 29.5933 47.2549V45.1066C29.5933 44.723 29.9003 44.4161 30.2839 44.4161C30.6675 44.4161 30.9744 44.723 30.9744 45.1066V47.2549ZM34.5804 47.2549C34.5804 47.6385 34.2735 47.9454 33.8899 47.9454C33.5063 47.9454 33.1993 47.6385 33.1993 47.2549V45.1066C33.1993 44.723 33.5063 44.4161 33.8899 44.4161C34.2735 44.4161 34.5804 44.723 34.5804 45.1066V47.2549ZM38.2631 47.2549C38.2631 47.6385 37.9561 47.9454 37.5725 47.9454C37.1889 47.9454 36.882 47.6385 36.882 47.2549V45.1066C36.882 44.723 37.1889 44.4161 37.5725 44.4161C37.9561 44.4161 38.2631 44.723 38.2631 45.1066V47.2549ZM38.877 42.0376H30.6675C30.2839 42.0376 29.977 41.7306 29.977 41.347C29.977 40.9634 30.2839 40.6565 30.6675 40.6565H38.877C39.2606 40.6565 39.5675 40.9634 39.5675 41.347C39.5675 41.7306 39.2606 42.0376 38.877 42.0376ZM38.877 38.5082H30.6675C30.2839 38.5082 29.977 38.2013 29.977 37.8177C29.977 37.4341 30.2839 37.1272 30.6675 37.1272H38.877C39.2606 37.1272 39.5675 37.4341 39.5675 37.8177C39.5675 38.2017 39.2606 38.5082 38.877 38.5082ZM41.8691 47.2549C41.8691 47.6385 41.5621 47.9454 41.1785 47.9454C40.7949 47.9454 40.488 47.6385 40.488 47.2549V45.1066C40.488 44.723 40.7949 44.4161 41.1785 44.4161C41.5621 44.4161 41.8691 44.723 41.8691 45.1066V47.2549ZM43.0965 25.1581C43.0965 23.7004 44.2473 22.5496 45.705 22.5496C46.8558 22.5496 47.8533 23.3168 48.1602 24.4676H56.4463C56.8299 24.4676 57.1368 24.7745 57.1368 25.1581C57.1368 25.5417 56.8299 25.8487 56.4463 25.8487H48.1602C47.8532 26.9228 46.8557 27.7666 45.705 27.7666C44.2477 27.767 43.0965 26.6159 43.0965 25.1581ZM57.2134 30.8357C57.2134 31.2193 56.9064 31.5263 56.5228 31.5263H53.6074C53.3005 32.6004 52.303 33.4442 51.1522 33.4442C50.0014 33.4442 49.004 32.6771 48.6971 31.5263H45.7816C45.398 31.5263 45.0911 31.2193 45.0911 30.8357C45.0911 30.4521 45.398 30.1452 45.7816 30.1452H48.6971C49.004 29.0711 50.0015 28.3039 51.1522 28.3039C52.3031 28.3039 53.3005 29.0711 53.6074 30.1452H56.5228C56.9068 30.0686 57.2134 30.4521 57.2134 30.8357ZM45.4746 47.2548C45.4746 47.6384 45.1677 47.9453 44.7841 47.9453C44.4005 47.9453 44.0935 47.6384 44.0935 47.2548V45.1065C44.0935 44.7229 44.4005 44.416 44.7841 44.416C45.1677 44.416 45.4746 44.7229 45.4746 45.1065V47.2548ZM49.1573 47.2548C49.1573 47.6384 48.8503 47.9453 48.4667 47.9453C48.0832 47.9453 47.7762 47.6384 47.7762 47.2548V45.1065C47.7762 44.7229 48.0832 44.416 48.4667 44.416C48.8503 44.416 49.1573 44.7229 49.1573 45.1065V47.2548ZM52.7633 47.2548C52.7633 47.6384 52.4563 47.9453 52.0727 47.9453C51.6891 47.9453 51.3822 47.6384 51.3822 47.2548V45.1065C51.3822 44.7229 51.6891 44.416 52.0727 44.416C52.4563 44.416 52.7633 44.7229 52.7633 45.1065V47.2548ZM56.3693 47.2548C56.3693 47.6384 56.0623 47.9453 55.6787 47.9453C55.2951 47.9453 54.9882 47.6384 54.9882 47.2548V45.1065C54.9882 44.7229 55.2951 44.416 55.6787 44.416C56.0623 44.416 56.3693 44.7229 56.3693 45.1065V47.2548ZM54.8349 39.0454C53.6841 39.0454 52.6866 38.2782 52.3797 37.1274H45.705C45.3214 37.1274 45.0145 36.8205 45.0145 36.4369C45.0145 36.0533 45.3214 35.7463 45.705 35.7463H52.3797C52.6866 34.6722 53.6842 33.8284 54.8349 33.8284C56.2926 33.8284 57.4434 34.9792 57.4434 36.4369C57.4434 37.8946 56.2926 39.0454 54.8349 39.0454Z" fill="#D4D349"/>
<path d="M46.8561 25.158C46.8561 25.7938 46.3407 26.3091 45.7053 26.3091C45.0695 26.3091 44.5542 25.7938 44.5542 25.158C44.5542 24.5226 45.0695 24.0072 45.7053 24.0072C46.3407 24.0072 46.8561 24.5225 46.8561 25.158Z" fill="#D4D349"/>
</g>
<defs>
<clipPath id="clip0_81_3790">
<rect width="55" height="53.0333" fill="white" transform="translate(15.5 18.4834)"/>
</clipPath>
</defs>
</svg>
