<svg width="117" height="102" viewBox="0 0 117 102" fill="none" xmlns="http://www.w3.org/2000/svg">
<g clip-path="url(#clip0_349_1161)">
<path d="M20 40H24V44H20V40Z" fill="#D4D349"/>
<path d="M20 57H24V61H20V57Z" fill="#D4D349"/>
<path d="M28 57H32V61H28V57Z" fill="#D4D349"/>
<path d="M28 40H32V44H28V40Z" fill="#D4D349"/>
<path d="M24 49H28V53H24V49Z" fill="#D4D349"/>
<path d="M12 57H16V61H12V57Z" fill="#D4D349"/>
<path d="M32 88H52V92H32V88Z" fill="#D4D349"/>
<path d="M12 40H16V44H12V40Z" fill="#D4D349"/>
<path d="M52 68C52 69.1045 51.1045 70 50 70C48.8955 70 48 69.1045 48 68C48 66.8955 48.8955 66 50 66C51.1045 66 52 66.8955 52 68Z" fill="#D4D349"/>
<path d="M12 49H20V53H12V49Z" fill="#D4D349"/>
<path d="M32 49H36V53H32V49Z" fill="#D4D349"/>
<path d="M56 49H60V53H56V49Z" fill="#D4D349"/>
<path d="M60 40H64V44H60V40Z" fill="#D4D349"/>
<path d="M60 57H64V61H60V57Z" fill="#D4D349"/>
<path d="M24 24C24 23.4696 23.7893 22.9607 23.4143 22.5857C23.0393 22.2107 22.5304 22 22 22H14C12.8955 22 12 22.8955 12 24V26H24V24Z" fill="#D4D349"/>
<path d="M48 24C48 23.4696 47.7893 22.9607 47.4143 22.5857C47.0393 22.2107 46.5304 22 46 22H38C36.8955 22 36 22.8955 36 24V26H48V24Z" fill="#D4D349"/>
<path d="M52 40H56V44H52V40Z" fill="#D4D349"/>
<path d="M40 49H44V53H40V49Z" fill="#D4D349"/>
<path d="M36 40H40V44H36V40Z" fill="#D4D349"/>
<path d="M36 57H40V61H36V57Z" fill="#D4D349"/>
<path d="M48 49H52V53H48V49Z" fill="#D4D349"/>
<path d="M44 40H48V44H44V40Z" fill="#D4D349"/>
<path d="M68 40H72V44H68V40Z" fill="#D4D349"/>
<path d="M98 90C98 91.1045 97.1045 92 96 92C94.8955 92 94 91.1045 94 90C94 88.8955 94.8955 88 96 88C97.1045 88 98 88.8955 98 90Z" fill="#D4D349"/>
<path d="M108 79C108 80.1045 107.104 81 106 81C104.896 81 104 80.1045 104 79C104 77.8955 104.896 77 106 77C107.104 77 108 77.8955 108 79Z" fill="#D4D349"/>
<path d="M110 31H5.9999C4.40883 31 2.88195 31.7013 1.75715 32.9493C0.632344 34.1974 0 35.8913 0 37.6561V95.3439C0 97.109 0.632138 98.8028 1.75715 100.051C2.88215 101.298 4.40904 102 5.9999 102H110C111.591 102 113.118 101.299 114.243 100.051C115.368 98.8026 116 97.1087 116 95.3439V37.6561C116 35.8911 115.368 34.1972 114.243 32.9493C113.118 31.7015 111.591 31 110 31ZM76 95.344C76 95.9323 75.7893 96.497 75.4143 96.913C75.0393 97.329 74.5304 97.5627 74 97.5627H9.9999C8.89544 97.5627 7.9999 96.5692 7.9999 95.344V37.6563C7.9999 36.431 8.89544 35.4375 9.9999 35.4375H74C74.5304 35.4375 75.0393 35.6713 75.4143 36.0873C75.7893 36.5033 76 37.0679 76 37.6563V95.344ZM80 79.8127C80 78.0476 80.6322 76.3537 81.7572 75.1059C82.8822 73.858 84.4091 73.1565 85.9999 73.1565C87.5908 73.1565 89.1179 73.8578 90.2427 75.1059C91.3675 76.3539 91.9998 78.0478 91.9998 79.8127C91.9998 81.5775 91.3677 83.2717 90.2427 84.5195C89.1177 85.7673 87.5908 86.4688 85.9999 86.4688C84.4091 86.4688 82.882 85.7675 81.7572 84.5195C80.6324 83.2714 80 81.5775 80 79.8127ZM90.0001 68.7189C90.0001 66.9538 90.6322 65.2599 91.7572 64.0121C92.8822 62.7642 94.4091 62.0627 96 62.0627C97.5908 62.0627 99.1179 62.764 100.243 64.0121C101.368 65.2601 102 66.954 102 68.7189C102 70.4837 101.368 72.1779 100.243 73.4257C99.1177 74.6735 97.5908 75.375 96 75.375C94.4091 75.375 92.882 74.6738 91.7572 73.4257C90.6324 72.1776 90.0001 70.4837 90.0001 68.7189ZM96.0001 97.5627C94.409 97.5627 92.8821 96.8615 91.7573 95.6134C90.6325 94.3653 90.0002 92.6715 90.0002 90.9066C90.0002 89.1417 90.6323 87.4476 91.7573 86.1998C92.8823 84.952 94.4092 84.2504 96.0001 84.2504C97.5909 84.2504 99.118 84.9517 100.243 86.1998C101.368 87.4478 102 89.1417 102 90.9066C102 92.6715 101.368 94.3656 100.243 95.6134C99.1178 96.8612 97.5909 97.5627 96.0001 97.5627ZM106 86.469C104.409 86.469 102.882 85.7677 101.757 84.5196C100.633 83.2716 100 81.5777 100 79.8128C100 78.0479 100.632 76.3538 101.757 75.106C102.882 73.8582 104.409 73.1567 106 73.1567C107.591 73.1567 109.118 73.8579 110.243 75.106C111.368 76.3541 112 78.0479 112 79.8128C112 81.5777 111.368 83.2718 110.243 84.5196C109.118 85.7674 107.591 86.469 106 86.469ZM112 44.3125H108V48.7501H104V44.3125H100V48.7501H96.0001V44.3125H92.0001V48.7501H88.0001V44.3125H84V48.7501H80V44.3125H84V39.875H88.0001V44.3125H92.0001V39.875H96.0001V44.3125H100V39.875H104V44.3125H108V39.875H112V44.3125Z" fill="#D4D349"/>
<path d="M98 68C98 69.1045 97.1045 70 96 70C94.8955 70 94 69.1045 94 68C94 66.8955 94.8955 66 96 66C97.1045 66 98 66.8955 98 68Z" fill="#D4D349"/>
<path d="M88 79C88 80.1045 87.1045 81 86 81C84.8955 81 84 80.1045 84 79C84 77.8955 84.8955 77 86 77C87.1045 77 88 77.8955 88 79Z" fill="#D4D349"/>
<path d="M56 63.5625V57H44V63.5625C44 64.1426 43.7893 64.6992 43.4143 65.1094C43.0393 65.5195 42.5304 65.75 42 65.75H12V92H28V85.4375C28 84.2295 28.8955 83.25 30 83.25H33.1803L36.5803 79.5097L39.4206 82.6162L38.8206 83.251L54 83.25C54.5304 83.25 55.0393 83.4805 55.4143 83.8906C55.7893 84.3008 56 84.8574 56 85.4375V92H72V65.75H58C56.8955 65.75 56 64.7705 56 63.5625ZM50 74.5C49.1062 74.4941 48.225 74.2695 47.4197 73.8437L43.4197 78.2187L40.5794 75.1122L44.5794 70.7372H44.5803C43.8357 69.0117 43.8151 67.0165 44.5232 65.2725C45.2321 63.5283 46.6 62.208 48.2706 61.6552C49.9411 61.1035 51.7483 61.374 53.2215 62.3964C54.6947 63.4199 55.6884 65.0927 55.9428 66.9814C56.1964 68.8691 55.6866 70.7852 54.5455 72.2294C53.4044 73.6728 51.7447 74.5019 50 74.5Z" fill="#D4D349"/>
<path d="M68 57H72V61H68V57Z" fill="#D4D349"/>
<path d="M64 49H72V53H64V49Z" fill="#D4D349"/>
<path d="M49.1904 12.6856L48 13.9363L50.8643 16.999L52.034 15.7262L52.0349 15.7272C53.5061 14.2213 55.4637 13.3818 57.5005 13.3818C59.5372 13.3818 61.4947 14.2213 62.966 15.7272L64.1357 17L67 13.9372L65.8096 12.6866L65.8105 12.6856C63.6081 10.3258 60.6188 9 57.5005 9C54.3821 9 51.3929 10.3258 49.1904 12.6856Z" fill="#D4D349"/>
<path d="M45.1968 9.63893C48.4564 6.1857 52.8825 4.24388 57.5 4.24388C62.1175 4.24388 66.5436 6.18567 69.8032 9.63893L70.1452 10L73 6.98539L72.6581 6.62432C68.6356 2.38262 63.1846 0 57.5 0C51.8154 0 46.3644 2.38245 42.3419 6.62432L42 6.98539L44.8548 10L45.1968 9.63893Z" fill="#D4D349"/>
</g>
<defs>
<clipPath id="clip0_349_1161">
<rect width="117" height="102" fill="white"/>
</clipPath>
</defs>
</svg>
