<svg width="134" height="124" viewBox="0 0 134 124" fill="none" xmlns="http://www.w3.org/2000/svg">
<g clip-path="url(#clip0_69_91)">
<path d="M65.4268 23.5965C64.6625 22.6081 63.4248 22.6081 62.6596 23.5965L56.5732 31.4685C55.8089 32.4568 55.8089 34.0596 56.5732 35.0469C57.3375 36.0353 58.5752 36.0353 59.3404 35.0469L65.4268 27.1749C66.1911 26.1854 66.1911 24.5837 65.4268 23.5965Z" fill="#D4D349"/>
<path d="M75.4351 23.9086C77.168 21.5924 74.5219 18.0675 72.7688 20.3735L63.5523 32.5972C62.8159 33.5739 62.8159 35.1556 63.5523 36.1335C64.2887 37.1102 65.4813 37.1102 66.2186 36.1335L75.4351 23.9086Z" fill="#D4D349"/>
<path d="M26.4268 31.1407C25.6625 30.1523 24.4248 30.1523 23.6596 31.1407L17.5732 39.0126C16.8089 40.001 16.8089 41.6038 17.5732 42.5911C18.3375 43.5794 19.5752 43.5794 20.3404 42.5911L26.4268 34.7191C27.1911 33.7296 27.1911 32.1279 26.4268 31.1407Z" fill="#D4D349"/>
<path d="M36.4351 31.4528C38.168 29.1366 35.5219 25.6117 33.7688 27.9177L24.5523 40.1414C23.8159 41.1181 23.8159 42.6998 24.5523 43.6776C25.2887 44.6544 26.4813 44.6544 27.2186 43.6776L36.4351 31.4528Z" fill="#D4D349"/>
<path d="M121.117 50.3782C122.157 50.3782 123 49.2447 123 47.8468V18.5947C123 17.1967 122.157 16.0632 121.117 16.0632H90.9833C89.9433 16.0632 89.1 17.1967 89.1 18.5947V47.8468C89.1 49.2447 89.9433 50.3782 90.9833 50.3782H104.167V59.0972H68.3833V45.3266H81.5667C82.6067 45.3266 83.45 44.1931 83.45 42.7951V13.5315C83.45 12.1335 82.6067 11 81.5667 11H51.4333C50.3933 11 49.55 12.1335 49.55 13.5315V42.7951C49.55 44.1931 50.3933 45.3266 51.4333 45.3266H64.6167V59.0972H28.8333V52.921H42.0167C43.0567 52.921 43.9 51.7875 43.9 50.3895V21.1258C43.9 19.7279 43.0567 18.5944 42.0167 18.5944H11.8833C10.8433 18.5944 10 19.7279 10 21.1258V50.3895C10 51.7875 10.8433 52.921 11.8833 52.921H25.0667V59.0972C22.1248 59.0825 14.9033 59.1073 11.8833 59.0972C10.8433 59.0972 10 60.2307 10 61.6286V74.2859C10 75.6839 10.8433 76.8174 11.8833 76.8174H17.5333V117.321C17.5333 118.719 18.3766 119.852 19.4167 119.852H28.8333C29.8734 119.852 30.7167 118.719 30.7167 117.321V84.4118C30.7057 81.1119 26.9618 81.0925 26.95 84.4118V114.789H21.3V76.8174H111.7V114.789H106.05V84.4118C106.04 81.105 102.294 81.0995 102.283 84.4118V92.0061H68.3833V84.4118C68.3741 81.105 64.6268 81.0995 64.6167 84.4118V94.5376C64.6167 95.9355 65.46 97.0691 66.5 97.0691H102.283V117.321C102.283 118.719 103.127 119.852 104.167 119.852H113.583C114.623 119.852 115.467 118.719 115.467 117.321V76.8174H121.117C122.157 76.8174 123 75.6839 123 74.2859V61.6286C123 60.2307 122.157 59.0972 121.117 59.0972C118.075 59.1164 110.9 59.0836 107.933 59.0972V50.3782H121.117ZM53.3167 16.0632H79.6833V40.2645H66.5411C66.5125 40.2532 66.4873 40.2532 66.4596 40.2645H53.3167L53.3167 16.0632ZM13.7667 23.6576H40.1333V47.8589H26.9911C26.9625 47.8476 26.9373 47.8476 26.9096 47.8589H13.7667L13.7667 23.6576ZM119.233 64.161V71.7553H13.7667V64.161H119.233ZM92.8667 21.1261H119.233V45.3162H92.8667V21.1261Z" fill="#D4D349"/>
<path d="M113.655 40.4199C115.465 42.7417 118.212 39.1965 116.414 36.8512L110.345 29.0005C108.536 26.6799 105.788 30.2227 107.586 32.5692C107.585 32.5681 113.655 40.4199 113.655 40.4199Z" fill="#D4D349"/>
<path d="M108.118 42.2533C109.729 42.3269 110.655 39.4715 109.451 37.9844L100.233 25.76C98.4859 23.4616 95.8276 26.9712 97.5667 29.2964L106.785 41.5208C107.152 42.0098 107.635 42.2533 108.118 42.2533Z" fill="#D4D349"/>
<path d="M89.1904 87.5198C91.6016 87.5054 91.6048 82.1468 89.1904 82.1311H81.8096C79.3984 82.1455 79.3952 87.5041 81.8096 87.5198H89.1904Z" fill="#D4D349"/>
</g>
<defs>
<clipPath id="clip0_69_91">
<rect width="134" height="124" fill="white"/>
</clipPath>
</defs>
</svg>
