<svg width="141" height="98" viewBox="0 0 141 98" fill="none" xmlns="http://www.w3.org/2000/svg">
<g clip-path="url(#clip0_349_739)">
<path d="M128.681 0H12.1901C5.24813 0 -0.403809 5.66467 -0.403809 12.6229V85.2028C-0.403809 92.1607 5.24785 97.8257 12.1901 97.8257H128.681C135.623 97.8257 141.275 92.161 141.275 85.2028V12.6229C141.275 5.66495 135.623 0 128.681 0ZM134.978 85.2025C134.978 88.6892 132.161 91.5133 128.682 91.5133H12.1912C8.7125 91.5133 5.89496 88.6892 5.89496 85.2025L5.89386 12.6226C5.89386 9.13589 8.7114 6.31186 12.1901 6.31186H128.681C132.16 6.31186 134.977 9.13589 134.977 12.6226L134.978 85.2025ZM103.494 12.6226H15.339C13.6074 12.6226 12.1909 14.0424 12.1909 15.778V82.0466C12.1909 83.7823 13.6074 85.202 15.339 85.202H103.494C105.226 85.202 106.642 83.7822 106.642 82.0466V15.778C106.642 14.0423 105.226 12.6226 103.494 12.6226ZM100.345 53.646V63.1136H94.0488V53.646C94.0488 51.9104 92.6323 50.4907 90.9007 50.4907H78.3068C76.5751 50.4907 75.1587 51.9105 75.1587 53.646V63.1136H68.8624V53.646C68.8624 51.9104 67.4459 50.4907 65.7143 50.4907H53.1204C51.3887 50.4907 49.9723 51.9105 49.9723 53.646V63.1136H43.6761V53.646C43.6761 51.9104 42.2595 50.4907 40.5279 50.4907H27.934C26.2024 50.4907 24.7859 51.9105 24.7859 53.646V63.1136H18.4897V53.646L18.4875 36.1947C21.3205 34.1751 25.2726 34.4118 27.8068 36.952C33.0809 42.2382 41.6755 42.2382 46.9496 36.952C49.7671 34.1279 54.3638 34.1279 57.1979 36.952C59.8421 39.6022 63.3055 40.9283 66.7688 40.912C70.232 40.912 73.6955 39.5869 76.3396 36.952C79.1572 34.1279 83.7538 34.1279 86.588 36.952C90.3028 40.6753 95.6711 41.7638 100.362 40.2493V53.6459L100.345 53.646ZM100.345 18.9339V33.2284C97.512 35.248 93.5599 35.0114 91.0258 32.4712C85.7516 27.1849 77.157 27.1849 71.8829 32.4712C69.0654 35.2952 64.4687 35.2952 61.6512 32.4712C56.377 27.1849 47.7825 27.1849 42.5083 32.4712C39.6908 35.2952 35.0941 35.2952 32.2766 32.4712C28.5618 28.7478 23.1935 27.6594 18.5023 29.1738L18.5034 18.9338L100.345 18.9339ZM18.4866 78.8912V69.4237H27.9324C29.664 69.4237 31.0805 68.0039 31.0805 66.2684V56.8008H37.3767V66.2684C37.3767 68.004 38.7932 69.4237 40.5248 69.4237H53.1187C54.8504 69.4237 56.2668 68.0039 56.2668 66.2684V56.8008H62.5631V66.2684C62.5631 68.004 63.9796 69.4237 65.7112 69.4237H78.3051C80.0368 69.4237 81.4532 68.0039 81.4532 66.2684V56.8008H87.7495V66.2684C87.7495 68.004 89.166 69.4237 90.8976 69.4237H100.343V78.8912H18.4866ZM120.81 25.2452C116.465 25.2452 112.939 28.7792 112.939 33.1343C112.939 37.4894 116.465 41.0234 120.81 41.0234C125.155 41.0234 128.681 37.4894 128.681 33.1343C128.681 28.7792 125.155 25.2452 120.81 25.2452ZM120.81 34.7127C119.944 34.7127 119.235 34.0028 119.235 33.1344C119.235 32.2672 119.943 31.5562 120.81 31.5562C121.675 31.5562 122.384 32.266 122.384 33.1344C122.384 34.0017 121.676 34.7127 120.81 34.7127ZM128.681 75.7361C128.681 77.4718 127.264 78.8915 125.533 78.8915H116.087C114.355 78.8915 112.939 77.4717 112.939 75.7361C112.939 74.0005 114.355 72.5808 116.087 72.5808H125.533C127.264 72.5808 128.681 74.0006 128.681 75.7361ZM113.002 63.7297C112.955 63.5393 112.939 63.3192 112.939 63.1134C112.939 62.9087 112.954 62.7029 113.001 62.4982C113.033 62.2935 113.096 62.1042 113.175 61.9149C113.254 61.7101 113.364 61.5362 113.474 61.3624C113.583 61.1885 113.71 61.0311 113.867 60.8891C114.59 60.1473 115.677 59.8006 116.7 60.0218C116.904 60.0537 117.093 60.1165 117.298 60.1957C117.487 60.275 117.66 60.385 117.833 60.4951C118.006 60.6051 118.163 60.7317 118.305 60.8891C118.462 61.0311 118.588 61.1885 118.698 61.3624C118.808 61.5363 118.919 61.7091 118.997 61.9149C119.076 62.1042 119.138 62.2935 119.17 62.4982C119.22 62.704 119.236 62.9087 119.236 63.1134C119.236 63.3181 119.221 63.5393 119.174 63.7286C119.142 63.9334 119.079 64.1392 119 64.3285C118.921 64.5178 118.827 64.6917 118.701 64.8645C118.592 65.0384 118.465 65.1957 118.308 65.3377C117.724 65.9386 116.921 66.2699 116.087 66.2699C115.662 66.2699 115.269 66.1907 114.875 66.0333C114.497 65.8759 114.151 65.6393 113.867 65.3388C113.71 65.1969 113.583 65.0395 113.473 64.8656C113.347 64.6917 113.253 64.5189 113.175 64.3296C113.097 64.1392 113.033 63.9345 113.002 63.7297ZM113.002 51.1069C112.955 50.9176 112.939 50.6964 112.939 50.4916C112.939 50.2869 112.954 50.0811 113.001 49.8764C113.033 49.6717 113.096 49.4824 113.175 49.2931C113.254 49.0884 113.364 48.9145 113.474 48.7406C113.583 48.5667 113.71 48.4093 113.867 48.2673C114.59 47.5255 115.677 47.1942 116.7 47.4001C116.904 47.432 117.093 47.4947 117.298 47.5739C117.487 47.6532 117.66 47.7633 117.833 47.8733C118.006 47.9834 118.163 48.1099 118.305 48.2673C118.462 48.4093 118.588 48.5667 118.698 48.7406C118.808 48.9145 118.919 49.0873 118.997 49.2931C119.076 49.4824 119.138 49.6717 119.17 49.8764C119.22 50.0811 119.236 50.2858 119.236 50.4916C119.236 50.6963 119.221 50.9176 119.174 51.1069C119.142 51.3116 119.079 51.5174 119 51.7067C118.921 51.896 118.827 52.0699 118.701 52.2427C118.592 52.4166 118.465 52.574 118.308 52.7159C117.724 53.3158 116.921 53.6471 116.087 53.6471C115.662 53.6471 115.269 53.5678 114.875 53.4104C114.497 53.253 114.151 53.0164 113.867 52.716C113.71 52.574 113.583 52.4166 113.473 52.2427C113.347 52.0688 113.253 51.896 113.175 51.7067C113.097 51.5163 113.033 51.3116 113.002 51.1069Z" fill="#D4D349"/>
</g>
<defs>
<clipPath id="clip0_349_739">
<rect width="141" height="98" fill="white"/>
</clipPath>
</defs>
</svg>
