<svg width="103" height="101" viewBox="0 0 103 101" fill="none" xmlns="http://www.w3.org/2000/svg">
<g clip-path="url(#clip0_349_812)">
<path d="M88 31.9566C88 22.0556 79.9444 14 70.0435 14C63.8453 14 58.2515 17.1359 55 22.1365C56.9119 21.5184 58.9496 21.1826 61.0652 21.1826C62.9843 21.1826 64.8697 21.4599 66.6871 21.9994L68.7738 19.9128C69.1978 19.4879 69.8071 19.3035 70.3955 19.4214L79.3737 21.217C80.0848 21.3589 80.6403 21.9153 80.7822 22.6255L82.5778 31.6038C82.6957 32.1922 82.5113 32.8015 82.0865 33.2255L79.9998 35.3122C80.5401 37.1303 80.8175 39.0158 80.8175 40.9348C80.8175 43.0504 80.4816 45.088 79.8635 47C84.8641 43.7485 88 38.1548 88 31.9566Z" fill="#D4D349"/>
<path d="M50.0739 25.2731C53.1304 16.6112 61.2587 10.8334 70.5 10.8334C82.4472 10.8334 92.1666 20.5529 92.1666 32.5001C92.1666 41.7414 86.3889 49.8697 77.727 52.9261C75.1362 56.6099 71.326 59.3778 66.8889 60.6376V65H74.1111V59.0417C74.1111 58.1832 74.7156 57.4433 75.5572 57.2724C78.8346 56.6058 81.9057 55.3121 84.684 53.4267C85.4006 52.9406 86.3622 53.0309 86.9749 53.6443L90.361 57.0297L95.0297 52.361L91.6435 48.9748C91.0309 48.3622 90.9398 47.4014 91.4258 46.684C93.3112 43.9055 94.6057 40.8344 95.2716 37.5571C95.4425 36.7156 96.1824 36.1111 97.0409 36.1111H103V28.8889H97.0417C96.1832 28.8889 95.4433 28.2843 95.2724 27.4428C94.6058 24.1654 93.3121 21.0943 91.4267 18.316C90.9406 17.5994 91.0317 16.6378 91.6443 16.0251L95.0297 12.639L90.361 7.97031L86.9749 11.3565C86.3622 11.9691 85.4014 12.0602 84.684 11.5741C81.9055 9.68878 78.8344 8.39429 75.5572 7.7284C74.7156 7.55672 74.1111 6.81676 74.1111 5.95832V0H66.8889V5.95832C66.8889 6.81678 66.2844 7.55672 65.4428 7.7276C62.1654 8.39421 59.0943 9.68792 56.316 11.5733C55.5994 12.0594 54.6378 11.9683 54.0252 11.3557L50.639 7.97033L45.9703 12.639L49.3565 16.0252C49.9691 16.6378 50.0602 17.5986 49.5741 18.316C47.6888 21.0945 46.3943 24.1656 45.7284 27.4429C45.5575 28.2844 44.8176 28.8889 43.9591 28.8889H38V36.1111H42.3624C43.6215 31.673 46.3896 27.8636 50.0739 25.2731Z" fill="#D4D349"/>
<path d="M13.6668 101C20.6512 101 26.3335 95.3177 26.3335 88.3333C26.3335 87.3858 26.2245 86.4285 26.0088 85.489C25.8699 84.8815 26.0524 84.2457 26.4927 83.8047L53.2739 57.0237C53.7707 56.5269 54.5091 56.3629 55.1699 56.602C56.9455 57.2451 58.8107 57.5714 60.7141 57.5714C69.694 57.5714 77 50.2655 77 41.2857C77 40.3899 76.9281 39.5037 76.7851 38.6312L69.232 46.1843C68.8046 46.6116 68.1915 46.7982 67.5978 46.6794L58.55 44.8699C57.8335 44.7269 57.2737 44.1663 57.1307 43.4506L55.3211 34.403C55.2024 33.81 55.3882 33.1961 55.8163 32.7687L63.3695 25.2157C62.4962 25.0719 61.61 25 60.7141 25C51.7342 25 44.4282 32.3059 44.4282 41.2857C44.4282 43.1889 44.7546 45.0543 45.3976 46.8299C45.6367 47.4899 45.4719 48.229 44.9759 48.7258L18.1947 75.5068C17.7544 75.947 17.1179 76.1304 16.5104 75.9907C15.5717 75.775 14.6152 75.6659 13.6668 75.6659C6.68238 75.6659 1 81.3482 1 88.3326C1 95.3169 6.68238 100.999 13.6668 100.999L13.6668 101ZM13.6668 79.2857C15.5078 79.2857 17.2219 79.8399 18.6526 80.7883L46.7677 52.6735C47.4746 51.9666 48.6201 51.9666 49.3269 52.6735C50.0338 53.3803 50.0338 54.5258 49.3269 55.2326L21.2118 83.3475C22.1602 84.7781 22.7144 86.4923 22.7144 88.3333C22.7144 93.3224 18.6558 97.3809 13.6667 97.3809C8.67751 97.3809 4.61896 93.3224 4.61896 88.3333C4.61896 83.3442 8.67759 79.2857 13.6668 79.2857Z" fill="#D4D349"/>
<path d="M79 32.2003L77.6333 25.3667L70.7997 24L65 29.7997L66.3667 36.6333L73.2003 38L79 32.2003ZM70.2123 30.9996C70.2123 30.0121 71.013 29.2114 72.0005 29.2114C72.988 29.2114 73.7887 30.0121 73.7887 30.9996C73.7887 31.9871 72.988 32.7878 72.0005 32.7878C71.013 32.7878 70.2123 31.9871 70.2123 30.9996Z" fill="#D4D349"/>
<path d="M20 88.5C20 91.5373 17.5373 94 14.5 94C11.4627 94 9 91.5373 9 88.5C9 85.4627 11.4627 83 14.5 83C17.5373 83 20 85.4627 20 88.5Z" fill="#D4D349"/>
<path d="M63.6141 38.92L62.4303 33L60 35.4303L61.4283 42.5717L68.5697 44L71 41.5697L65.08 40.3859C64.3408 40.2382 63.7626 39.6601 63.6141 38.92Z" fill="#D4D349"/>
</g>
<defs>
<clipPath id="clip0_349_812">
<rect width="103" height="101" fill="white"/>
</clipPath>
</defs>
</svg>
