<svg width="94" height="95" viewBox="0 0 94 95" fill="none" xmlns="http://www.w3.org/2000/svg">
<g clip-path="url(#clip0_349_1159)">
<path d="M80.3994 71.2994C78.8635 71.3092 77.3507 71.6788 75.9809 72.3794L76.0676 72.2917L63.2636 59.3508H63.2644C65.676 55.9484 66.9815 51.8727 67.001 47.6873C67.0197 43.5019 65.7515 39.414 63.3714 35.9889L77.2573 22.8213C80.7321 24.4273 84.7603 24.2368 88.0722 22.3112C91.384 20.3847 93.5713 16.9605 93.9436 13.1167C94.316 9.27375 92.828 5.48515 89.9491 2.94658C87.0695 0.40724 83.1542 -0.569221 79.4371 0.32482C75.72 1.21888 72.6594 3.87235 71.2199 7.45006C69.7805 11.027 70.1401 15.087 72.1853 18.3488L58.6717 31.1641C55.279 28.6596 51.1903 27.2999 46.9894 27.2811C42.7878 27.2615 38.6871 28.5825 35.272 31.0562L22.468 18.1192L22.3813 18.2068C23.0745 16.8223 23.4401 15.2933 23.4498 13.7411C23.4498 11.0468 22.391 8.4637 20.5066 6.55837C18.6215 4.65385 16.0657 3.58371 13.3999 3.58371C10.7341 3.58371 8.17834 4.65385 6.29317 6.55837C4.4088 8.46364 3.34998 11.0468 3.34998 13.7411C3.34998 16.4354 4.4088 19.0185 6.29317 20.9238C8.17829 22.8283 10.7341 23.8984 13.3999 23.8984C14.9358 23.8886 16.4486 23.5191 17.8184 22.8185L17.7317 22.9061L30.5357 35.847H30.5349C28.1061 39.2736 26.7998 43.3834 26.7998 47.599C26.7998 51.8146 28.1061 55.9243 30.5349 59.3509L23.0677 66.898C20.6801 65.3577 17.9074 64.5362 15.0749 64.5279C11.0765 64.5279 7.24207 66.1331 4.41546 68.9906C1.58808 71.8474 0 75.7229 0 79.764C0 83.805 1.58825 87.6805 4.41546 90.5373C7.24207 93.3949 11.0765 95 15.0749 95C19.0732 95 22.9077 93.3948 25.7343 90.5373C28.5617 87.6805 30.1498 83.805 30.1498 79.764C30.1423 76.9011 29.3287 74.0989 27.8048 71.6857L35.272 64.1386C38.6623 66.5934 42.7286 67.9137 46.8996 67.9137C51.0706 67.9137 55.1369 66.5934 58.5273 64.1386L71.3313 77.0795L71.418 76.9918V76.9911C70.7248 78.3756 70.3592 79.9046 70.3495 81.4568C70.3495 84.1512 71.4083 86.7342 73.2927 88.6396C75.1778 90.5441 77.7336 91.6142 80.3994 91.6142C83.0652 91.6142 85.6209 90.5441 87.5061 88.6396C89.3905 86.7343 90.4493 84.1512 90.4493 81.4568C90.4493 78.7625 89.3905 76.1795 87.5061 74.2741C85.621 72.3696 83.0652 71.2994 80.3994 71.2994Z" fill="#D4D349"/>
</g>
<defs>
<clipPath id="clip0_349_1159">
<rect width="94" height="95" fill="white"/>
</clipPath>
</defs>
</svg>
