<svg width="87" height="99" viewBox="0 0 87 99" fill="none" xmlns="http://www.w3.org/2000/svg">
<g clip-path="url(#clip0_349_1331)">
<path d="M43 28.5V25.3C40.3535 25.3 38.2 23.1465 38.2 20.5H35C35 24.9114 38.5886 28.5 43 28.5Z" fill="#D4D349"/>
<path d="M47.8 20.5H51C51 16.0886 47.4114 12.5 43 12.5V15.7C45.6465 15.7 47.8 17.8535 47.8 20.5Z" fill="#D4D349"/>
<path d="M43 34.5C51.2701 34.5 58 27.9959 58 20C58 12.0041 51.2701 5.5 43 5.5C34.7299 5.5 28 12.0041 28 20C28 27.9959 34.7299 34.5 43 34.5ZM43 8.72222C49.433 8.72222 54.6667 13.7828 54.6667 20C54.6667 26.2172 49.433 31.2778 43 31.2778C36.567 31.2778 31.3333 26.2172 31.3333 20C31.3333 13.7828 36.567 8.72222 43 8.72222Z" fill="#D4D349"/>
<path d="M8.55318 23.8612C7.75252 24.8975 6.9817 25.9598 6.28511 27.0622L9.06858 28.7066C9.65233 27.7809 10.2943 26.8869 10.9595 26.0105L16.4148 30.8811C23.3623 37.0844 32.3945 40.5 41.8495 40.5H43.1488C52.6038 40.5 61.636 37.0844 68.5834 30.8811L74.0388 26.0105C74.7055 26.889 75.3482 27.783 75.9297 28.7052L78.7131 27.0636C78.0202 25.9626 77.2487 24.9003 76.4451 23.8612L79.473 21.1587C79.8093 20.8602 80 20.4392 80 19.9993C80 19.5593 79.8093 19.1383 79.4752 18.842L68.5856 9.1189C61.6381 2.91559 52.6059 -0.5 43.1491 -0.5H41.8498C32.3948 -0.5 23.3626 2.91559 16.4151 9.1189L5.52407 18.842C5.19069 19.1383 5 19.5593 5 19.9993C5 20.4392 5.19069 20.8602 5.52479 21.1566L8.55318 23.8612ZM18.6275 11.4335C24.9702 5.77304 33.2185 2.65372 41.8504 2.65372H43.1497C51.783 2.65372 60.0312 5.77304 66.3744 11.4335L75.9664 19.9993L66.3731 28.565C60.0305 34.2255 51.7822 37.3448 43.1503 37.3448H41.851C33.2177 37.3448 24.9694 34.2255 18.6262 28.565L14.8014 25.1494L9.03448 19.9993L18.6275 11.4335Z" fill="#D4D349"/>
<path d="M76.3568 44.5H10.6428C9.73635 44.5 9 45.2098 9 46.0882V84.2059C9 85.0844 9.73635 85.7941 10.6428 85.7941H36.2488L32.8861 89.045C28.7159 89.4201 25.4287 92.7838 25.4287 96.9118C25.4287 97.7903 26.165 98.5 27.0715 98.5H59.9285C60.835 98.5 61.5713 97.7903 61.5713 96.9118C61.5713 92.7838 58.2841 89.4202 54.1147 89.045L50.7513 85.7941H76.3572C77.2636 85.7941 78 85.0844 78 84.2059V46.0882C78 45.2098 77.2636 44.5 76.3572 44.5H76.3568ZM58.0046 95.3235H28.9947C29.6731 93.475 31.5001 92.1471 33.6423 92.1471H53.3565C55.4988 92.1471 57.3258 93.4751 58.0042 95.3235H58.0046ZM49.3913 88.9706H37.609L40.8947 85.7941H46.1057L49.3913 88.9706ZM74.7137 82.6176H12.2855V47.6765H74.7137V82.6176Z" fill="#D4D349"/>
<path d="M16.6471 79.5H69.3529C70.2618 79.5 71 78.78 71 77.8889V52.1111C71 51.22 70.2618 50.5 69.3529 50.5H16.6471C15.7382 50.5 15 51.22 15 52.1111V77.8889C15 78.78 15.7382 79.5 16.6471 79.5ZM18.2941 53.7222H67.7059V76.2778H18.2941V53.7222Z" fill="#D4D349"/>
<path d="M40.9028 68.4146L37.3675 65.0921L35 67.3171L40.0236 72.0384C40.3383 72.3363 40.7659 72.5 41.2077 72.5C41.2713 72.5 41.3333 72.4972 41.3969 72.4888C41.9044 72.4354 42.3567 72.1663 42.6273 71.7602L51 59.17L48.16 57.5L40.9028 68.4146Z" fill="#D4D349"/>
<path d="M3.00002 33.4705L5.75954 34.5C6.12923 33.5732 6.54779 32.6495 7 31.7583L4.34543 30.5C3.85427 31.4638 3.40206 32.4653 3.00002 33.4705Z" fill="#D4D349"/>
<path d="M5 38.4002L1.85302 37.5C1.52353 38.5973 1.23798 39.7275 1 40.8632L4.21428 41.5C4.43248 40.452 4.69687 39.4091 5 38.4002Z" fill="#D4D349"/>
<path d="M4 43.8306L0.307311 43.5C0.154485 44.4448 0.0523275 45.4175 0 46.389L3.71757 46.5C3.76408 45.6005 3.86047 44.703 4 43.8306Z" fill="#D4D349"/>
<path d="M3.71757 50.5001L0 50.6112C0.0523253 51.5826 0.154487 52.5553 0.30731 53.5L4 53.1694C3.86046 52.2972 3.76407 51.3996 3.71757 50.5001Z" fill="#D4D349"/>
<path d="M4.2219 56.5L1 57.1428C1.23486 58.2727 1.51816 59.4011 1.8433 60.5L5 59.5978C4.70054 58.5854 4.43767 57.5414 4.2219 56.5Z" fill="#D4D349"/>
<path d="M3 63.5297C3.40185 64.5351 3.8545 65.5348 4.34676 66.5L7 65.2421C6.548 64.3508 6.12967 63.427 5.76015 62.5L3 63.5297Z" fill="#D4D349"/>
<path d="M78 65.2421L80.6532 66.5C81.1455 65.5347 81.5975 64.5351 82 63.5297L79.2419 62.5C78.869 63.427 78.4527 64.3514 78 65.2421Z" fill="#D4D349"/>
<path d="M81 59.5978L84.1567 60.5C84.4826 59.4011 84.7666 58.2727 85 57.1428L81.7781 56.5C81.5623 57.5398 81.2994 58.584 81 59.5978Z" fill="#D4D349"/>
<path d="M82 53.1694L85.6927 53.5C85.8455 52.5552 85.9477 51.5825 86 50.611L82.2824 50.5C82.2359 51.3995 82.1395 52.297 82 53.1694Z" fill="#D4D349"/>
<path d="M82.2824 46.4999L86 46.3888C85.9477 45.4174 85.8455 44.4447 85.6927 43.5L82 43.8306C82.1395 44.7028 82.2359 45.6004 82.2824 46.4999Z" fill="#D4D349"/>
<path d="M81.7863 41.4999L85 40.8631C84.7621 39.728 84.4766 38.5973 84.1471 37.5L81 38.3988C81.3038 39.4097 81.5682 40.4525 81.7863 41.4999Z" fill="#D4D349"/>
<path d="M79.2419 34.4999L82 33.4703C81.5982 32.4649 81.1455 31.4652 80.6532 30.5L78 31.7579C78.454 32.6492 78.8703 33.5735 79.2419 34.4999Z" fill="#D4D349"/>
</g>
<defs>
<clipPath id="clip0_349_1331">
<rect width="87" height="99" fill="white"/>
</clipPath>
</defs>
</svg>
