<svg width="120" height="105" viewBox="0 0 120 105" fill="none" xmlns="http://www.w3.org/2000/svg">
<g clip-path="url(#clip0_349_1238)">
<path d="M25 57.4761H18.4946C17.1693 57.4761 15.9641 57.7347 14.6388 58.1221L0.0604934 4.13083C-0.421055 2.32256 2.10852 1.28919 2.83129 3.09739L25 57.4761Z" fill="#D4D349"/>
<path d="M119.909 4.19451L105.299 58.1221C104.101 57.7351 102.784 57.4768 101.466 57.4768H95L117.155 3.0332C117.993 1.35575 120.507 2.25926 119.909 4.19412L119.909 4.19451Z" fill="#D4D349"/>
<path d="M114.954 71.0381H5.16474C4.44415 71.0381 3.84338 71.1673 3.24263 71.4267C2.64186 71.6861 2.04109 72.0747 1.561 72.5925C1.08088 73.1104 0.719753 73.7583 0.480114 74.4063C0.119819 75.1844 0 75.9616 0 76.6096V93.3221C0 94.0993 0.119818 94.7473 0.360296 95.3953C0.600771 96.0432 0.961066 96.6912 1.44118 97.209C1.9213 97.7269 2.52207 98.1164 3.12281 98.3749C3.84424 98.8936 4.44418 99.0228 5.16474 99.0228H114.954C115.675 99.0228 116.276 98.8936 116.876 98.6342C117.477 98.3749 118.078 97.9862 118.558 97.4684C119.038 96.9506 119.399 96.3026 119.639 95.6546C119.879 95.0067 119.999 94.2295 119.999 93.5815L120 76.6096C120 75.1844 119.399 73.7593 118.438 72.7226C117.597 71.686 116.276 71.0381 114.955 71.0381L114.954 71.0381ZM15.0146 88.9174C14.294 88.9174 13.5734 88.658 12.9726 88.2694C12.3719 87.8808 11.8918 87.2328 11.6513 86.4556C11.4108 85.6784 11.291 84.9012 11.4108 84.124C11.5306 83.3468 11.8909 82.6989 12.3719 82.0509C12.852 81.5331 13.5734 81.1436 14.294 81.0143C15.0145 80.8851 15.7352 80.8851 16.4557 81.2737C17.1763 81.5331 17.6572 82.0509 18.1373 82.6989C18.4976 83.3469 18.7381 84.1241 18.7381 84.9013C18.7381 85.9378 18.3778 86.9744 17.6572 87.6224C16.9366 88.5289 15.9756 88.9174 15.0146 88.9174ZM33.5126 88.9174C32.792 88.9174 32.0714 88.658 31.4707 88.2694C30.8699 87.8808 30.3898 87.2328 30.1493 86.4556C29.9088 85.6784 29.789 84.9012 29.9088 84.124C30.0286 83.3468 30.3889 82.6989 30.8699 82.0509C31.35 81.5331 32.0714 81.1436 32.792 81.0143C33.5126 80.8851 34.2332 80.8851 34.9537 81.2737C35.6743 81.5331 36.1553 82.0509 36.6354 82.6989C36.9956 83.3469 37.2361 84.1241 37.2361 84.9013C37.2361 85.9378 36.8758 86.9744 36.1552 87.6224C35.4347 88.5289 34.4736 88.9174 33.5126 88.9174ZM52.0115 88.9174C51.2909 88.9174 50.5703 88.658 49.9695 88.2694C49.3688 87.8808 48.8886 87.2328 48.6482 86.4556C48.4077 85.6784 48.2879 84.9012 48.4077 84.124C48.5275 83.3468 48.8878 82.6989 49.3688 82.0509C49.8489 81.5331 50.5703 81.1436 51.2909 81.0143C52.0114 80.8851 52.7321 80.8851 53.4526 81.2737C54.1732 81.5331 54.6541 82.0509 55.1342 82.6989C55.4945 83.3469 55.735 84.1241 55.735 84.9013C55.735 85.9378 55.3747 86.9744 54.6541 87.6224C53.9335 88.2695 52.9725 88.9174 52.0115 88.9174ZM105.104 88.9174C104.384 88.9174 103.663 88.658 103.062 88.2694C102.462 87.8808 101.982 87.2328 101.741 86.4556C101.501 85.6784 101.381 84.9012 101.501 84.124C101.62 83.3468 101.981 82.6989 102.462 82.0509C102.942 81.5331 103.663 81.1436 104.384 81.0143C105.104 80.8851 105.825 80.8851 106.546 81.2737C107.266 81.5331 107.747 82.0509 108.227 82.6989C108.587 83.3469 108.828 84.1241 108.828 84.9013C108.828 85.9378 108.468 86.9744 107.747 87.6224C107.026 88.5289 106.065 88.9174 105.104 88.9174Z" fill="#D4D349"/>
<path d="M110 66.7329H10C10.5997 64.7959 11.7982 63.2453 13.3573 62.0831C14.9163 60.9209 16.7146 60.2749 18.6333 60.2749H101.487C103.406 60.2749 105.204 60.9209 106.763 62.0831C108.202 63.2463 109.281 64.796 110 66.7329H110Z" fill="#D4D349"/>
<path d="M111 99.0229C111 100.707 110.402 102.392 109.445 103.656C108.37 104.919 107.054 105.481 105.5 105.481C103.946 105.481 102.63 104.779 101.555 103.656C100.479 102.392 100 100.848 100 99.0229H111Z" fill="#D4D349"/>
<path d="M20 99.0229C20 100.707 19.402 102.392 18.4455 103.656C17.3696 104.919 16.0545 105.481 14.5 105.481C13.0655 105.481 11.6304 104.779 10.5545 103.656C9.47869 102.392 9 100.848 9 99.0229H20Z" fill="#D4D349"/>
<path d="M50.8031 46.2825C50.5626 46.2825 50.2021 46.1483 49.9615 46.0131C49.7209 45.8789 49.4812 45.7438 49.3605 45.4754C49.2406 45.206 49.1199 44.9376 49 44.6683V43.7261C50.0814 39.5556 54.4077 36.5955 59.4551 36.5955C64.5024 36.5955 68.8287 39.5553 69.9101 43.7261C70.03 43.9954 70.03 44.2638 69.9101 44.5332C69.9101 44.8025 69.7902 45.0709 69.6695 45.206C69.5496 45.4754 69.4289 45.6096 69.1892 45.7438C68.9486 45.878 68.8287 46.0131 68.5881 46.1473C68.3475 46.2815 68.1078 46.2815 67.8672 46.1473C67.6266 46.1473 67.3869 46.0131 67.2661 45.878C67.0256 45.7438 66.9057 45.6087 66.7858 45.3403C66.6659 45.0709 66.5452 44.9367 66.4254 44.6674C65.8243 42.2461 62.8199 40.3616 59.3352 40.3616C55.8506 40.3616 52.8462 42.2451 52.2451 44.6674C52.1252 45.0709 51.8846 45.4745 51.644 45.7438C51.5242 46.1473 51.1636 46.2825 50.8031 46.2825Z" fill="#D4D349"/>
<path d="M75.0933 32.2404C74.73 32.2404 74.3668 32.114 74.0035 31.8602C73.6402 31.6065 73.5194 31.2263 73.3978 30.8461C72.1864 25.7766 66.4942 21.974 59.9548 21.974C53.4154 21.974 47.7231 25.6492 46.5118 30.8461C46.391 31.3527 46.1485 31.7338 45.6636 31.9867C45.3004 32.2404 44.8154 32.3668 44.3314 32.2404C43.8473 32.114 43.4832 31.8602 43.2416 31.3527C43 30.9726 43 30.4659 43 29.9585C44.6955 23.2408 51.7198 18.2976 59.9547 18.2976C68.1896 18.2976 75.2141 23.2408 76.9094 29.9585C77.0302 30.2122 77.0302 30.4651 76.9094 30.8461C76.9094 31.0999 76.7886 31.3527 76.5461 31.6065C76.4253 31.8602 76.1829 31.9867 75.9404 32.1131C75.6988 32.2404 75.4565 32.2404 75.0933 32.2404Z" fill="#D4D349"/>
<path d="M81.1126 19.3739C80.7531 19.3739 80.3935 19.2434 80.034 18.9813C79.6744 18.7192 79.5549 18.3266 79.4345 17.934C77.6368 9.68699 69.3656 3.79669 59.8954 3.79669C50.4261 3.79669 42.1548 9.68699 40.3563 17.934C40.3563 18.196 40.2368 18.4572 40.1163 18.5887C39.9968 18.8507 39.7568 18.9813 39.6372 19.1119C39.3973 19.2425 39.2777 19.3739 39.0377 19.3739H38.3186C38.0786 19.3739 37.8395 19.2434 37.7191 19.1119C37.4791 18.9813 37.3595 18.7192 37.24 18.5887C37.1204 18.4581 37 18.196 37 17.934V17.1487C39.1581 7.19978 48.7479 0 59.8952 0C71.0425 0 80.6326 7.19978 82.9103 17.0173C83.0299 17.2794 83.0299 17.5406 82.9103 17.9341C82.9103 18.1962 82.7908 18.4573 82.5508 18.7194C82.4312 18.9814 82.1912 19.112 81.9513 19.2426C81.7121 19.3741 81.4722 19.3739 81.1126 19.3739Z" fill="#D4D349"/>
</g>
<defs>
<clipPath id="clip0_349_1238">
<rect width="120" height="105" fill="white"/>
</clipPath>
</defs>
</svg>
