<svg width="115" height="111" viewBox="0 0 115 111" fill="none" xmlns="http://www.w3.org/2000/svg">
<g clip-path="url(#clip0_349_890)">
<path d="M83.1111 94.0354L88 81.2651H31L35.5095 94.0354H83.1111ZM71.7097 87.6498H78.1431V91.8445H71.7097V87.6498ZM61.301 87.6498H67.7345V91.8445H61.301V87.6498ZM50.8924 87.6498H57.3259V91.8445H50.8924V87.6498ZM40.4837 87.6498H46.9172V91.8445H40.4837V87.6498Z" fill="#D4D349"/>
<path d="M110.767 80.2205H104.143V20.311C104.143 17.4332 102.243 15.092 99.9078 15.092H99.4742C97.139 15.092 95.2393 17.4333 95.2393 20.311V80.2205H91.7897L85.2822 96.4601H33.4853L27.4823 80.2228H19.004V20.3133C19.004 17.4355 17.1042 15.0943 14.7691 15.0943H14.3337C11.9985 15.0943 10.0988 17.4356 10.0988 20.3133V80.2228H4.23493C1.89977 80.2228 0 82.5641 0 85.4418V99.6158C0 102.494 1.8998 104.835 4.23493 104.835H10.4252V111.449H100.232V104.835L110.765 104.836C113.1 104.836 115 102.495 115 99.6169V85.4429C115 82.5663 113.1 80.2251 110.765 80.2251L110.767 80.2205ZM12.0547 90.6217H27.3658V94.6365H12.0547V90.6217ZM96.9744 107.433H13.6836V104.833H96.9744V107.433Z" fill="#D4D349"/>
<path d="M14 4.04983C19.9241 4.04983 24.7441 10.0456 24.7441 17.414H28C28 7.81154 21.7199 0 14 0C6.2801 0 0 7.8127 0 17.414H3.25587C3.25587 10.0465 8.07688 4.04983 14 4.04983Z" fill="#D4D349"/>
<path d="M14.5 5.80469C9.26142 5.80469 5 11.0123 5 17.414H8.24327C8.24327 13.1984 11.0503 9.76807 14.5 9.76807C17.9497 9.76807 20.7567 13.1984 20.7567 17.414H24C24.0009 11.0123 19.7386 5.80469 14.5 5.80469Z" fill="#D4D349"/>
<path d="M100 4.04983C105.924 4.04983 110.744 10.0456 110.744 17.414H114C114 7.81154 107.72 0 100 0C92.2801 0 86 7.81154 86 17.414H89.2559C89.2559 10.0465 94.0762 4.04983 100 4.04983Z" fill="#D4D349"/>
<path d="M99.5 5.80469C94.2628 5.80469 90 11.0123 90 17.414H93.2436C93.2436 13.1984 96.05 9.76807 99.5 9.76807C102.95 9.76807 105.756 13.1984 105.756 17.414H109C109 11.0123 104.738 5.80469 99.5 5.80469Z" fill="#D4D349"/>
</g>
<defs>
<clipPath id="clip0_349_890">
<rect width="115" height="111" fill="white"/>
</clipPath>
</defs>
</svg>
