<svg width="134" height="126" viewBox="0 0 134 126" fill="none" xmlns="http://www.w3.org/2000/svg">
<g clip-path="url(#clip0_11_1166)">
<path d="M31.8571 24.5623L34.2324 31.5792H43V27.9226H36.9105L31.8571 13L25.94 30.4716L23.7188 26.0943H17V29.7509H21.424L26.6315 40L31.8571 24.5623Z" fill="#D4D349"/>
<path d="M115.645 95.1776C120.804 95.1776 125 91.0174 125 85.9034V37.6775C125 33.1703 121.737 29.4127 117.43 28.5813C116.566 18.1147 107.712 9.85484 96.9357 9.85484C86.2187 9.85484 77.3994 18.0195 76.4504 28.4033H50.1609C50.1609 17.1534 40.928 8 29.5805 8C18.2329 8 9 17.1534 9 28.4033C9 34.8356 12.072 40.8441 17.1646 44.6703C14.4593 47.0503 12.7419 50.5115 12.7419 54.3711V64.8972C12.7419 72.2594 17.2005 78.8143 23.9676 81.6165V86.8249C17.279 90.5477 12.7419 97.6402 12.7419 105.77V123H55.5043V122.957C57.4446 122.857 59.329 122.423 61.1063 121.621L76.3286 114.762C76.9216 114.494 77.457 114.142 77.9297 113.725L85.7093 113.726C88.1449 113.726 90.2029 112.17 90.9781 110.016H119.387C122.481 110.016 124.999 107.52 124.999 104.452C124.999 101.384 122.481 98.8871 119.387 98.8871H108.161C107.129 98.8871 106.29 98.0558 106.29 97.0323V95.1775L115.645 95.1776ZM115.645 91.4679H51.075C47.9378 87.9437 43.6938 85.4364 38.9363 84.4841V81.7574C39.8701 81.4477 40.7304 80.9691 41.488 80.3381L121.259 80.339V85.9035C121.259 88.9715 118.741 91.468 115.646 91.468L115.645 91.4679ZM81.9681 98.8873H78.668C74.8342 98.8873 71.1876 100.649 68.8715 103.48V95.1776H83.8391V99.0744C83.2344 98.9519 82.6079 98.8873 81.9681 98.8873ZM57.2973 109.317L56.3434 102.7C55.9525 99.9919 55.0521 97.4579 53.7557 95.1784L65.1292 95.1776V105.788L57.2973 109.317ZM32.6093 56.2244L33.964 53.5407C34.2822 52.9081 34.9237 52.5148 35.6387 52.5148H46.4209C47.4533 52.5148 48.2919 53.3478 48.2919 54.3696C48.2919 55.3914 47.4533 56.2245 46.4209 56.2245L32.6093 56.2244ZM96.9357 13.5652C106.221 13.5652 113.774 21.0549 113.774 30.2587C113.774 39.4626 106.221 46.9523 96.9357 46.9523C87.6503 46.9523 80.0972 39.4626 80.0972 30.2587C80.0972 21.0549 87.6503 13.5652 96.9357 13.5652ZM76.4504 32.1136C77.3993 42.4973 86.2187 50.662 96.9357 50.662C107.548 50.662 116.306 42.6563 117.398 32.4199C119.632 33.1544 121.258 35.2204 121.258 37.6781V76.6298H43.9419C44.2259 75.6784 44.3612 74.6764 44.2559 73.6587L42.8711 59.9345H46.4193C49.5139 59.9345 52.0321 57.438 52.0321 54.37C52.0321 51.302 49.5139 48.8055 46.4193 48.8055H42.4886C42.2288 47.5443 41.6842 46.3925 40.9634 45.3724C45.6316 42.3012 48.7763 37.5299 49.7793 32.1136H76.4504ZM12.7419 28.4039C12.7419 19.2001 20.295 11.7103 29.5805 11.7103C38.8659 11.7103 46.419 19.2001 46.419 28.4039C46.419 34.3525 43.2593 39.7292 38.146 42.7343C36.7352 41.8872 35.0907 41.3879 33.3241 41.3879H25.8386C23.9734 41.3879 22.201 41.7829 20.5941 42.4826C15.7429 39.4311 12.7419 34.1357 12.7419 28.4039ZM16.4838 54.3717C16.4838 49.2576 20.6801 45.0975 25.8386 45.0975H33.3241C35.7638 45.0975 37.8428 46.6459 38.6128 48.8055H35.6342C33.4934 48.8055 31.5707 49.983 30.6128 51.8809L28.422 56.2248H16.4838V54.3717ZM16.4838 64.8979V59.9345H21.6121C20.7159 61.3066 20.2256 62.9006 20.2256 64.5733C20.2256 66.829 21.1477 69.0381 22.759 70.6347L23.9676 71.8329V77.4769C19.4138 74.9679 16.4838 70.2048 16.4838 64.8979ZM25.4043 68.0121C24.4914 67.107 23.9676 65.8533 23.9676 64.5731C23.9676 63.2747 24.4763 62.0541 25.4043 61.1341L26.6146 59.9343H39.1123L40.5339 74.0311C40.6575 75.2425 40.229 76.4349 39.357 77.2994C38.5978 78.0521 37.542 78.4868 36.4661 78.4868L31.4513 78.486V82.1957H35.1932V84.0746C35.012 84.0696 34.8341 84.0489 34.6528 84.0489C32.224 84.0489 29.8953 84.4588 27.7094 85.1858V70.2975L25.4043 68.0121ZM59.5561 118.248C58.0201 118.941 56.3829 119.292 54.6916 119.292C49.4564 119.292 44.9293 115.951 43.4266 110.982L40.7288 102.066L37.1438 103.131L39.8416 112.047C40.7245 114.968 42.4308 117.426 44.6293 119.292H16.4838V105.772C16.4838 95.839 24.6332 87.7595 34.653 87.7595C43.6353 87.7595 51.3679 94.4071 52.6366 103.225L53.7458 110.917L51.2575 112.039L52.8069 115.415L63.8848 110.422L66.0757 115.307L59.5561 118.248ZM74.7801 111.386L69.4837 113.774L67.2928 108.886L72.4907 106.544C72.8348 106.39 73.2165 106.308 73.6708 106.308C75.1484 106.308 76.3537 107.503 76.3537 108.968C76.3537 110.007 75.7364 110.956 74.7801 111.386ZM85.7083 110.018H79.9986C80.0579 109.672 80.0955 109.324 80.0955 108.968C80.0955 106.265 78.3833 103.967 75.9493 103.043C76.8213 102.763 77.7325 102.598 78.6663 102.598H81.9665C85.0611 102.598 87.5793 105.095 87.5793 108.163C87.5793 109.186 86.7407 110.018 85.7083 110.018ZM108.16 102.598H119.385C120.418 102.598 121.256 103.43 121.256 104.453C121.256 105.477 120.418 106.308 119.385 106.308H91.133C90.6711 104.058 89.3631 102.129 87.5799 100.791V95.1789H102.548V97.0337C102.548 100.102 105.066 102.598 108.16 102.598H108.16Z" fill="#D4D349"/>
<path d="M114 84H118V88H114V84Z" fill="#D4D349"/>
<path d="M99 84H103V88H99V84Z" fill="#D4D349"/>
<path d="M106 84H110V88H106V84Z" fill="#D4D349"/>
<path d="M86 21H90V25H86V21Z" fill="#D4D349"/>
<path d="M93 21H108V25H93V21Z" fill="#D4D349"/>
<path d="M86 28H90V32H86V28Z" fill="#D4D349"/>
<path d="M93 28H108V32H93V28Z" fill="#D4D349"/>
<path d="M86 36H90V40H86V36Z" fill="#D4D349"/>
<path d="M93 36H108V40H93V36Z" fill="#D4D349"/>
<path d="M75 58H56V73H75V58ZM71.2 69.25H59.8V61.75H71.2V69.25Z" fill="#D4D349"/>
<path d="M56 51H75V55H56V51Z" fill="#D4D349"/>
<path d="M56 43H75V47H56V43Z" fill="#D4D349"/>
<path d="M56 36H75V40H56V36Z" fill="#D4D349"/>
<path d="M78 69H82V73H78V69Z" fill="#D4D349"/>
<path d="M86 69H118V73H86V69Z" fill="#D4D349"/>
<path d="M78 62H117V66H78V62Z" fill="#D4D349"/>
<path d="M78 54H117V58H78V54Z" fill="#D4D349"/>
</g>
<defs>
<clipPath id="clip0_11_1166">
<rect width="134" height="126" fill="white"/>
</clipPath>
</defs>
</svg>
