<svg width="116" height="110" viewBox="0 0 116 110" fill="none" xmlns="http://www.w3.org/2000/svg">
<g clip-path="url(#clip0_349_1386)">
<path d="M29.6101 47.2185H29.9596C30.3334 47.2225 30.6829 47.0636 30.8863 46.7975C31.9863 48.7786 33.2709 50.6825 34.728 52.4912L34.876 52.6278C35.3726 53.2657 36.0041 54.0282 36.7696 54.9051L37.2531 55.4286L37.3337 55.508L37.7638 55.952L37.8846 56.0656V56.0664C41.1396 59.4598 45.2164 62.2209 49.8396 64.1628C57.1329 67.0438 64.2128 66.7022 72.1639 61.9539C74.2656 60.6536 76.1536 59.1213 77.7792 57.3993H79.8481C82.3892 57.3842 84.8198 56.5145 86.6046 54.9814C88.3905 53.4483 89.3856 51.3775 89.3715 49.2226V46.7633C91.0215 46.2502 92.4466 45.3193 93.453 44.0977C94.4603 42.876 95 41.4216 95 39.9307V32.689C95.0019 31.3712 94.5821 30.0772 93.7847 28.9462C92.9874 27.8152 91.8424 26.8889 90.4724 26.2661C89.9365 19.4231 86.4537 12.9852 80.6856 8.17541C74.9185 3.36588 67.268 0.519847 59.1886 0.177413C59.0677 0.177413 58.9468 0.00663492 58.826 0.00663492C51.0358 -0.136342 43.4332 2.03533 37.3334 6.14443C30.173 11.1089 25.8724 18.4414 25.5265 26.2773C24.1595 26.9 23.0173 27.8254 22.2199 28.9541C21.4235 30.0829 21.0009 31.3729 21 32.689V39.9316V39.9308C21.0028 41.8649 21.9117 43.7189 23.526 45.0852C25.1404 46.4515 27.3284 47.2187 29.6098 47.2187L29.6101 47.2185ZM86.0267 47.2185V49.4275C86.0285 50.6928 85.4532 51.9097 84.4226 52.824C83.3909 53.7382 81.9836 54.28 80.4928 54.3356C81.3792 53.1965 82.2797 52.0583 83.1791 50.7945C84.0786 49.5299 84.7101 48.2893 85.3416 47.0025C85.5225 47.132 85.7502 47.2043 85.9863 47.2074L86.0267 47.2185ZM33.5319 32.7913C33.5553 32.4792 33.8374 32.225 34.2037 32.1877C41.0812 31.2766 45.9301 27.6331 48.6837 21.3357C48.7934 21.1188 49.0276 20.9671 49.3021 20.9346C49.5767 20.902 49.8522 20.9933 50.0274 21.176C57.1466 29.4433 64.8036 32.9622 83.0857 32.2901C83.4971 32.2742 83.8569 32.5252 83.9178 32.8708C84.5212 39.1928 82.9293 45.5258 79.3378 51.0901C78.6201 52.2093 77.8218 53.2895 76.9466 54.3246H65.6635V52.0473C65.6635 50.6254 64.304 49.4737 62.6278 49.4737H58.7458C57.0686 49.4737 55.71 50.6255 55.71 52.0473V55.8051C55.7175 56.6384 56.513 57.3127 57.4959 57.3191H74.0186C71.0738 59.9593 67.4194 61.9564 63.3662 63.1382C61.5812 63.6577 59.6792 63.8253 57.8051 63.6275C51.3606 62.8348 45.5167 59.9832 41.4716 55.6566C36.0578 50.1113 32.8206 42.0491 33.5325 32.7903L33.5319 32.7913Z" fill="#D4D349"/>
<path d="M66.5457 96.2085L67.6595 93.7412H67.6586C67.8897 93.2486 67.8348 92.6942 67.5089 92.2406L62.1726 84.6116V84.6108C61.9027 84.2023 62.0296 83.69 62.4719 83.4052C72.1946 76.4012 68.0527 70.6138 58.0999 70H57.8963C47.9569 70.6139 43.8017 76.4012 53.5243 83.4052H53.5233C53.9467 83.7027 54.05 84.2134 53.7677 84.6108L49.0698 91.7513C48.7753 92.197 48.726 92.7276 48.9344 93.2067L50.2926 96.2086H50.2916C50.3257 96.3061 50.3864 96.395 50.4688 96.4703C52.4104 101.041 54.3246 105.407 55.6829 108.625C55.7075 108.749 55.7075 108.875 55.6829 109H61.1138C61.0891 108.875 61.0891 108.749 61.1138 108.625C62.472 105.407 64.3862 101.041 66.3686 96.4925C66.4491 96.4084 66.5087 96.3116 66.5457 96.2085Z" fill="#D4D349"/>
<path d="M44.5285 96.3497C44.4482 96.2732 44.3855 96.1841 44.343 96.0877L34.9116 74.6101C34.6985 74.1604 34.1356 73.9128 33.5884 74.0282C23.667 76.4594 14.7912 79.1756 8.5748 82.4393C2.35742 85.7032 0.108581 97.1266 1.3119 104.282V104.419C2.50225 107.557 4.31452 109.543 6.95998 109.999H49.4375C49.6091 110.009 49.7752 109.946 49.8832 109.829C49.9911 109.714 50.0271 109.56 49.9791 109.417C48.6033 106.108 46.6323 101.371 44.5295 96.3498L44.5285 96.3497Z" fill="#D4D349"/>
<path d="M108.439 82.4242C102.213 79.1572 93.3261 76.4385 83.4313 74.0282C82.8834 73.9127 82.3198 74.1605 82.1064 74.6107L72.6622 96.0861H72.6631C72.6206 96.1825 72.5578 96.2717 72.4774 96.3482C70.3718 101.375 68.3984 106.115 67.0209 109.416V109.417C66.9728 109.559 67.0089 109.713 67.117 109.829C67.2251 109.945 67.3914 110.009 67.5632 109.999H110.014C112.663 109.542 114.477 107.555 115.669 104.413V104.276C116.914 97.1249 114.677 85.5992 108.438 82.4236L108.439 82.4242Z" fill="#D4D349"/>
</g>
<defs>
<clipPath id="clip0_349_1386">
<rect width="116" height="110" fill="white"/>
</clipPath>
</defs>
</svg>
