<svg width="115" height="109" viewBox="0 0 115 109" fill="none" xmlns="http://www.w3.org/2000/svg">
<g clip-path="url(#clip0_363_3906)">
<path d="M52.6445 79.5H62.3555C63.8157 79.5 65 78.3795 65 77C65 75.6196 63.8147 74.5 62.3555 74.5H52.6445C51.1843 74.5 50 75.6205 50 77C50 78.3795 51.1844 79.5 52.6445 79.5Z" fill="#D4D349"/>
<path d="M108.013 -0.5H6.98523C3.13377 -0.5 0 2.59595 0 6.40303V81.7206C0 85.5267 3.13282 88.6236 6.98523 88.6236H46.0804L40.9374 103.212H33.0794C31.6021 103.212 30.4039 104.397 30.4039 105.856C30.4039 107.316 31.6031 108.5 33.0794 108.5H81.9197C83.397 108.5 84.5952 107.315 84.5952 105.856C84.5952 104.396 83.396 103.212 81.9197 103.212H74.0617L68.9187 88.6236H108.014C111.865 88.6236 114.999 85.5277 114.999 81.7206L115 6.40303C115 2.5969 111.866 -0.499056 108.015 -0.499056L108.013 -0.5ZM46.6036 103.211L51.7466 88.6224H63.2496L68.3936 103.211H46.6036ZM109.647 81.7194C109.647 82.6094 108.913 83.3334 108.014 83.3334H6.98621C6.10058 83.3334 5.35305 82.5946 5.35305 81.7194V71.9775H109.647L109.647 81.7194ZM109.647 66.6894H5.35348V6.40185C5.35348 5.52663 6.10101 4.78791 6.98665 4.78791H108.014C108.9 4.78791 109.647 5.52663 109.647 6.40185L109.647 66.6894Z" fill="#D4D349"/>
<path d="M50.7894 17.5095C49.7369 18.5284 49.7369 20.1795 50.7894 21.1975C51.84 22.2163 53.5485 22.2163 54.5991 21.1975C59.3992 16.5526 67.2075 16.5526 72.0067 21.1975C74.3316 23.4481 75.6114 26.4401 75.6114 29.6222C75.6114 32.8044 74.3315 35.7974 72.0067 38.0479C70.9542 39.0668 70.9542 40.7179 72.0067 41.7359C72.5339 42.2462 73.2218 42.5 73.9115 42.5C74.6013 42.5 75.2901 42.2453 75.8164 41.7359C79.1591 38.5 81 34.1963 81 29.6206C81 25.044 79.16 20.742 75.8164 17.5061C68.9187 10.8307 57.688 10.8307 50.7896 17.5097L50.7894 17.5095Z" fill="#D4D349"/>
<path d="M60.4001 49.8041C55.5992 54.4488 47.7896 54.4507 42.9886 49.8041C38.1896 45.1602 38.1896 37.5998 42.9886 32.9532C44.0413 31.9343 44.0413 30.2832 42.9886 29.2635C41.9359 28.2464 40.23 28.2446 39.1763 29.2635C32.2746 35.9459 32.2746 46.8139 39.1763 53.4922C42.6286 56.8307 47.1618 58.5 51.6938 58.5C56.2269 58.5 60.761 56.8307 64.2105 53.4912C65.2632 52.4724 65.2632 50.8213 64.2105 49.8034C63.1587 48.7845 61.4538 48.7845 60.4001 49.8034V49.8041Z" fill="#D4D349"/>
<path d="M66.4285 23.284L45.7847 43.9282C44.7384 44.9744 44.7384 46.67 45.7847 47.7153C46.3068 48.2394 46.9925 48.5 47.6781 48.5C48.3637 48.5 49.0494 48.2384 49.5715 47.7153L70.2153 27.0711C71.2616 26.0249 71.2616 24.3293 70.2153 23.284C69.1701 22.2387 67.4747 22.2387 66.4285 23.284Z" fill="#D4D349"/>
</g>
<defs>
<clipPath id="clip0_363_3906">
<rect width="115" height="109" fill="white"/>
</clipPath>
</defs>
</svg>
