<svg width="124" height="106" viewBox="0 0 124 106" fill="none" xmlns="http://www.w3.org/2000/svg">
<g clip-path="url(#clip0_349_1106)">
<path d="M70.1685 74.1117L62 81L53.8315 74.1117C50.8155 71.5797 49.002 67.3124 49 62.7416V45.4667C51.8486 45.4606 54.6586 44.6284 57.212 43.0335L62 40L66.788 43.0335C69.3414 44.6284 72.1514 45.4605 75 45.4667V62.7416C74.9981 67.3127 73.1845 71.5798 70.1685 74.1117Z" fill="#D4D349"/>
<path d="M85.9934 46.1352C86.0051 52.4806 84.1517 58.6159 80.7765 63.4061C80.3244 63.9877 79.8332 64.521 79.3077 65C79.3409 64.2447 79.3409 63.487 79.3077 62.7304V40.2433H75.0333C72.8354 40.2361 70.6687 39.6075 68.6978 38.4057L61.8809 34.1889L55.064 38.4045V38.4057C53.0931 39.6075 50.9264 40.2361 48.7286 40.2433H44.3445V61.8652H43.9716C40.6835 60.3522 38.0971 58.7307 36.7594 55.4874C34.5673 50.0819 38.2057 45.7841 36.0802 39.9468C34.4978 36.18 32.0298 33.0911 29 31.0809C29.5617 29.7826 30.3945 28.6907 31.4113 27.9198C33.4203 26.7687 35.7378 26.7687 37.7467 27.9198C42.3941 30.4331 42.1308 36.7301 45.7917 37.6231L45.7907 37.6219C47.3907 37.9754 49.0289 37.3395 50.1748 35.9194C51.3599 33.9792 51.7112 31.4514 51.1182 29.136C50.1317 24.9469 47.2166 25.1906 45.4188 21.3246C42.9195 15.9191 45.6596 8.51303 46.2741 7.02668H46.2731C48.1677 2.6986 51.0997 -0.802908 54.6686 -3C53.2447 -0.397405 52.3151 2.56825 51.9509 5.67531C51.5987 8.84261 52.4011 12.0389 54.143 14.4062C55.0169 15.5139 56.1491 16.2607 57.3822 16.5419C58.6153 16.8218 59.8885 16.6239 61.0256 15.9736C62.239 15.1 63.1844 13.7583 63.7147 12.1561C64.246 10.5526 64.3331 8.77877 63.9632 7.10894C69.4434 11.3524 71.0875 15.4874 71.5259 18.5957C72.2717 24.2715 69.1362 27.8394 71.0875 32.1094C71.705 33.5464 72.6689 34.712 73.8483 35.4432C75.0265 36.1744 76.3593 36.435 77.6637 36.1901C78.9672 35.6579 80.073 34.5648 80.7767 33.1109C81.4813 31.6569 81.7377 29.9386 81.4999 28.2713C84.5344 33.4642 86.113 39.7361 85.9937 46.1359L85.9934 46.1352Z" fill="#D4D349"/>
<path d="M2.17634 84H36.8237C38.0255 84 39 85.5225 39 86.7569V103.243C39 104.766 38.0255 106 36.8237 106H2.17634C0.974503 106 0 104.478 0 103.243V86.7569C0 85.2345 0.974503 84 2.17634 84Z" fill="#D4D349"/>
<path d="M44.1763 84H78.8237C80.0255 84 81 85.5225 81 86.7569V103.243C81 104.766 80.0255 106 78.8237 106H44.1763C42.9745 106 42 104.478 42 103.243V86.7569C42 85.2345 42.9745 84 44.1763 84Z" fill="#D4D349"/>
<path d="M86.1763 84H120.824C122.025 84 123 85.5225 123 86.7569V103.243C123 104.766 122.025 106 120.824 106H86.1763C84.9745 106 84 104.478 84 103.243V86.7569C84 85.2345 84.9745 84 86.1763 84Z" fill="#D4D349"/>
<path d="M2.22222 60H17.7778C19.005 60 20 61.5225 20 62.7569V79.2431C20 80.7655 19.005 82 17.7778 82H2.22222C0.995048 82 0 80.4775 0 79.2431V62.7569C0 61.2345 0.995048 60 2.22222 60Z" fill="#D4D349"/>
<path d="M106.222 60H121.778C123.005 60 124 61.5225 124 62.7569V79.2431C124 80.7655 123.005 82 121.778 82H106.222C104.995 82 104 80.4775 104 79.2431V62.7569C104 61.2345 104.995 60 106.222 60Z" fill="#D4D349"/>
<path d="M54 82H24.2254C22.9965 82 22 80.7686 22 79.25V62.75C22 61.2314 22.9965 60 24.2254 60H33.127C35.3792 63.7739 38.5801 66.5202 42.2293 67.8106L44.7884 68.8836V68.8824C45.7808 73.2887 48.0242 77.1054 51.108 79.6357L54 82Z" fill="#D4D349"/>
<path d="M101.999 61.7982V78.2569C101.999 78.9843 101.764 79.6823 101.347 80.1967C100.93 80.711 100.363 81 99.7733 81H70L72.8034 78.6953C74.0183 77.6923 75.1121 76.4824 76.0528 75.1023L82.2837 69.4239C83.0029 68.7577 83.6805 68.0241 84.3083 67.2294C86.2058 64.8634 87.7167 62.0688 88.7589 59H99.8854C101.089 59.0747 102.025 60.314 101.999 61.7982L101.999 61.7982Z" fill="#D4D349"/>
<path d="M31.9519 57H2.19899C0.984644 57 0 55.7686 0 54.25V37.75C0 36.2314 0.984644 35 2.19899 35H24.8928L26.6078 36.073C28.7449 37.5266 30.5062 39.7105 31.6871 42.3697C32.1043 43.9596 32.1043 45.6747 31.6871 47.2644C31.0392 50.4761 31.1305 53.8509 31.9512 57L31.9519 57Z" fill="#D4D349"/>
<path d="M123 37.75V54.25C123 54.9792 122.771 55.679 122.363 56.1946C121.954 56.7103 121.401 57 120.823 57H89C89.8114 53.6349 90.2651 50.1483 90.3497 46.6323C90.4352 42.6877 89.9863 38.7532 89.0224 35H120.823C121.401 35 121.954 35.2897 122.363 35.8054C122.771 36.321 123 37.0208 123 37.75Z" fill="#D4D349"/>
</g>
<defs>
<clipPath id="clip0_349_1106">
<rect width="124" height="106" fill="white"/>
</clipPath>
</defs>
</svg>
