<svg width="134" height="121" viewBox="0 0 134 121" fill="none" xmlns="http://www.w3.org/2000/svg">
<path d="M104.274 70.5807C103.236 70.0616 102.01 70.0616 100.972 70.5807C100.972 70.5807 85.9768 78.1261 85.8589 78.2026L102.623 86.5842L119.387 78.2026C119.269 78.1252 104.274 70.5807 104.274 70.5807Z" fill="#D4D349"/>
<path d="M84.1653 99.7222C84.1653 101.121 84.9547 102.399 86.2055 103.025L100.777 110.797V89.789L84.1653 81.4832L84.1653 99.7222Z" fill="#D4D349"/>
<path d="M104.468 89.789V110.797L119.04 103.024C120.29 102.398 121.08 101.121 121.08 99.7222V81.4832L104.468 89.789Z" fill="#D4D349"/>
<path d="M59.9767 70.5807C58.9385 70.0616 57.7125 70.0616 56.6742 70.5807C56.6742 70.5807 41.6793 78.1261 41.5614 78.2026L58.3255 86.5842L75.0896 78.2026C74.9717 78.1252 59.9767 70.5807 59.9767 70.5807Z" fill="#D4D349"/>
<path d="M39.8678 99.7222C39.8678 101.121 40.6571 102.399 41.908 103.025L56.4793 110.797V89.789L39.8677 81.4832L39.8678 99.7222Z" fill="#D4D349"/>
<path d="M60.1708 110.797L74.7421 103.024C75.993 102.398 76.7823 101.121 76.7823 99.7222V81.4832L60.1708 89.789L60.1708 110.797Z" fill="#D4D349"/>
<path d="M82.1255 33.6662C81.0872 33.1471 79.8612 33.1471 78.823 33.6662C78.823 33.6662 63.8281 41.2115 63.7101 41.2881L80.4742 49.6696L97.2383 41.2881C97.1205 41.2106 82.1255 33.6662 82.1255 33.6662Z" fill="#D4D349"/>
<path d="M62.0166 62.8076C62.0166 64.2068 62.8059 65.4841 64.0568 66.1101L78.6281 73.882V52.8744L62.0165 44.5687L62.0166 62.8076Z" fill="#D4D349"/>
<path d="M36.1763 99.7222V77.3056C36.1763 77.3056 39.8357 74.92 55.0143 67.2833C56.0435 66.7675 57.0562 66.4989 58.325 66.4989V40.3908C58.325 40.3908 61.9844 38.0053 77.1646 30.3686C78.1921 29.8528 79.3349 29.5841 80.4738 29.5841C81.6127 29.5841 82.7553 29.8527 83.7763 30.3628C85.2949 31.1275 86.6248 31.7957 87.8567 32.4162V11.1259C87.8567 9.08739 86.2038 7.43448 84.1653 7.43448H70.9387L67.4978 21.1941C67.2926 22.0165 66.5551 22.5933 65.7081 22.5933H39.8679C39.0208 22.5933 38.2833 22.0165 38.0782 21.1941L34.6373 7.43448H21.4107C19.3721 7.43448 17.7192 9.08739 17.7192 11.1259V107.104C17.7192 109.142 19.3721 110.795 21.4107 110.795H48.6347L40.1699 106.28C37.7407 105.065 36.1759 102.537 36.1759 99.721L36.1763 99.7222ZM32.4848 33.2759C36.557 33.2759 39.8677 36.5866 39.8677 40.6588C39.8677 44.7311 36.557 48.0418 32.4848 48.0418C28.4126 48.0418 25.1019 44.7311 25.1019 40.6588C25.1019 36.5866 28.4126 33.2759 32.4848 33.2759ZM25.1019 62.8076C25.1019 58.7354 28.4126 55.4247 32.4848 55.4247C36.557 55.4247 39.8677 58.7354 39.8677 62.8076C39.8677 66.8798 36.557 70.1905 32.4848 70.1905C28.4126 70.1905 25.1019 66.8798 25.1019 62.8076Z" fill="#D4D349"/>
<path d="M98.9311 62.8076V44.5686L82.3195 52.8744V73.882L96.8909 66.1092C98.1417 65.4838 98.9311 64.2066 98.9311 62.8076Z" fill="#D4D349"/>
<path d="M64.2651 18.9031L67.1327 7.4357H38.4405L41.308 18.9031H64.2651Z" fill="#D4D349"/>
</svg>
