<svg width="85" height="90" viewBox="0 0 85 90" fill="none" xmlns="http://www.w3.org/2000/svg">
<rect x="0.463867" y="0.0644531" width="84" height="89" rx="10" fill="#070707"/>
<g clip-path="url(#clip0_349_3638)">
<path d="M48.145 17.8393L50.6615 15.2508C51.0366 14.865 51.0366 14.2401 50.6615 13.8538C50.2864 13.468 49.6789 13.468 49.3034 13.8538L45.4623 17.8048C45.2646 18.0081 45.178 18.2771 45.1883 18.5435C45.1742 18.9412 45.3868 19.2949 45.7165 19.4633L49.3034 23.1529C49.4912 23.346 49.7368 23.4426 49.9825 23.4426C50.2281 23.4426 50.4738 23.346 50.6616 23.1533C51.0367 22.7675 51.0367 22.1426 50.6616 21.7563L48.9549 20.0009C59.4285 22.2692 67.2672 31.9295 67.2672 43.1978C67.2672 54.9041 59.1258 64.7466 47.909 66.6013C47.3851 66.6882 47.0289 67.1944 47.1133 67.7332C47.1892 68.2187 47.5973 68.5645 48.0599 68.5645C48.1109 68.5645 48.1619 68.5605 48.2138 68.5521C60.3661 66.5417 69.1875 55.8784 69.1875 43.1968C69.1875 30.5626 60.0893 19.7932 48.1447 17.8381L48.145 17.8393Z" fill="#D4D349"/>
<path d="M42.6581 66.6652L39.0712 62.9756C38.6961 62.5898 38.0887 62.5898 37.7131 62.9756C37.338 63.3615 37.338 63.9863 37.7131 64.3726L39.4198 66.1281C28.9464 63.8598 21.1077 54.1995 21.1077 42.9312C21.1077 31.225 29.249 21.3825 40.4657 19.5277C40.9895 19.4409 41.3458 18.9347 41.2613 18.3958C41.1769 17.8566 40.6809 17.4897 40.1609 17.5774C28.0088 19.5874 19.1875 30.2511 19.1875 42.9316C19.1875 55.5657 28.2856 66.335 40.23 68.2902L37.7136 70.8787C37.3385 71.2645 37.3385 71.8893 37.7136 72.2756C37.9013 72.4679 38.147 72.5645 38.3926 72.5645C38.6383 72.5645 38.8839 72.4679 39.0717 72.2752L42.9127 68.3242C43.1104 68.1209 43.197 67.8519 43.1867 67.5856C43.2004 67.1878 42.9882 66.8342 42.6585 66.6657L42.6581 66.6652Z" fill="#D4D349"/>
<path d="M48.5486 60.5645C48.5486 61.1145 48.9861 61.5645 49.5208 61.5645C50.0556 61.5645 50.4931 61.1145 50.4931 60.5645V57.5645H51.4653C51.6888 57.5645 51.9028 57.4845 52.0681 57.3444L56.9293 53.3444C57.1623 53.1546 57.2986 52.8645 57.2986 52.5645V50.5645H60.2153C60.75 50.5645 61.1875 50.1145 61.1875 49.5645C61.1875 49.0145 60.75 48.5645 60.2153 48.5645H57.2986V44.5645H60.2153C60.75 44.5645 61.1875 44.1145 61.1875 43.5645C61.1875 43.0145 60.75 42.5645 60.2153 42.5645H57.2986V38.5645H60.2153C60.75 38.5645 61.1875 38.1145 61.1875 37.5645C61.1875 37.0145 60.75 36.5645 60.2153 36.5645H57.2986V34.5645C57.2986 34.2645 57.1623 33.9743 56.9293 33.7845L52.0681 29.7845C51.9028 29.6444 51.6888 29.5645 51.4653 29.5645H50.4931V26.5645C50.4931 26.0145 50.0556 25.5645 49.5208 25.5645C48.9861 25.5645 48.5486 26.0145 48.5486 26.5645V29.5645H44.6597V26.5645C44.6597 26.0145 44.2222 25.5645 43.6875 25.5645C43.1528 25.5645 42.7153 26.0145 42.7153 26.5645V29.5645H38.8264V26.5645C38.8264 26.0145 38.3889 25.5645 37.8542 25.5645C37.3194 25.5645 36.8819 26.0145 36.8819 26.5645V29.5645H35.9097C35.6862 29.5645 35.4722 29.6444 35.3069 29.7845L30.4457 33.7845C30.2127 33.9743 30.0764 34.2645 30.0764 34.5645V36.5645H27.1597C26.625 36.5645 26.1875 37.0145 26.1875 37.5645C26.1875 38.1145 26.625 38.5645 27.1597 38.5645H30.0764V42.5645H27.1597C26.625 42.5645 26.1875 43.0145 26.1875 43.5645C26.1875 44.1145 26.625 44.5645 27.1597 44.5645H30.0764V48.5645H27.1597C26.625 48.5645 26.1875 49.0145 26.1875 49.5645C26.1875 50.1145 26.625 50.5645 27.1597 50.5645H30.0764V52.5645C30.0764 52.8645 30.2127 53.1546 30.4457 53.3444L35.3069 57.3444C35.4722 57.4845 35.6862 57.5645 35.9097 57.5645H36.8819V60.5645C36.8819 61.1145 37.3194 61.5645 37.8542 61.5645C38.3889 61.5645 38.8264 61.1145 38.8264 60.5645V57.5645H42.7153V60.5645C42.7153 61.1145 43.1528 61.5645 43.6875 61.5645C44.2222 61.5645 44.6597 61.1145 44.6597 60.5645V57.5645H48.5486V60.5645ZM35.9097 50.5645C35.375 50.5645 34.9375 50.1145 34.9375 49.5645V46.5645H33.9653C33.4306 46.5645 32.9931 46.1145 32.9931 45.5645C32.9931 45.0145 33.4306 44.5645 33.9653 44.5645H35.9097C36.4444 44.5645 36.8819 45.0145 36.8819 45.5645V48.5645H39.7986C40.3333 48.5645 40.7708 49.0145 40.7708 49.5645V53.5645C40.7708 54.1145 40.3333 54.5645 39.7986 54.5645C39.2639 54.5645 38.8264 54.1145 38.8264 53.5645V50.5645H35.9097ZM51.4653 36.5645C52 36.5645 52.4375 37.0145 52.4375 37.5645V40.5645H53.4097C53.9444 40.5645 54.3819 41.0145 54.3819 41.5645C54.3819 42.1145 53.9444 42.5645 53.4097 42.5645H51.4653C50.9306 42.5645 50.4931 42.1145 50.4931 41.5645V38.5645H47.5764C47.0417 38.5645 46.6042 38.1145 46.6042 37.5645V33.5645C46.6042 33.0145 47.0417 32.5645 47.5764 32.5645C48.1111 32.5645 48.5486 33.0145 48.5486 33.5645V36.5645H51.4653ZM46.6042 49.5645C46.6042 49.0145 47.0417 48.5645 47.5764 48.5645H50.4931V45.5645C50.4931 45.0145 50.9306 44.5645 51.4653 44.5645H53.4097C53.9444 44.5645 54.3819 45.0145 54.3819 45.5645C54.3819 46.1145 53.9444 46.5645 53.4097 46.5645H52.4375V49.5645C52.4375 50.1145 52 50.5645 51.4653 50.5645H48.5486V53.5645C48.5486 54.1145 48.1111 54.5645 47.5764 54.5645C47.0417 54.5645 46.6042 54.1145 46.6042 53.5645V49.5645ZM43.6875 47.5645C41.5391 47.5645 39.7986 45.7743 39.7986 43.5645C39.7986 41.3546 41.5391 39.5645 43.6875 39.5645C45.8359 39.5645 47.5764 41.3546 47.5764 43.5645C47.5764 45.7743 45.8359 47.5645 43.6875 47.5645ZM38.8264 33.5645C38.8264 33.0145 39.2639 32.5645 39.7986 32.5645C40.3333 32.5645 40.7708 33.0145 40.7708 33.5645V37.5645C40.7708 38.1145 40.3333 38.5645 39.7986 38.5645H36.8819V41.5645C36.8819 42.1145 36.4444 42.5645 35.9097 42.5645H33.9653C33.4306 42.5645 32.9931 42.1145 32.9931 41.5645C32.9931 41.0145 33.4306 40.5645 33.9653 40.5645H34.9375V37.5645C34.9375 37.0145 35.375 36.5645 35.9097 36.5645H38.8264V33.5645Z" fill="#D4D349"/>
<path d="M46.1875 43.5645C46.1875 44.6689 45.292 45.5645 44.1875 45.5645C43.083 45.5645 42.1875 44.6689 42.1875 43.5645C42.1875 42.46 43.083 41.5645 44.1875 41.5645C45.292 41.5645 46.1875 42.46 46.1875 43.5645Z" fill="#D4D349"/>
</g>
<defs>
<clipPath id="clip0_349_3638">
<rect x="16.1875" y="11.5645" width="55" height="63" rx="10" fill="white"/>
</clipPath>
</defs>
</svg>
