<svg width="85" height="90" viewBox="0 0 85 90" fill="none" xmlns="http://www.w3.org/2000/svg">
<rect x="0.207031" y="0.546387" width="84" height="89" rx="10" fill="#070707"/>
<g clip-path="url(#clip0_349_3433)">
<path d="M59.1579 33.0464H26.7034C26.2767 33.0464 25.9307 32.6946 25.9307 32.2607V22.8321C25.9307 22.3982 26.2767 22.0464 26.7034 22.0464H59.1579C59.3628 22.0464 59.5595 22.1292 59.7044 22.2765C59.8492 22.4238 59.9307 22.6237 59.9307 22.8321V32.2607C59.9307 32.469 59.8493 32.669 59.7044 32.8163C59.5595 32.9636 59.3628 33.0464 59.1579 33.0464ZM27.4761 31.475H58.3852V23.6178H27.4761V31.475Z" fill="#D4D349"/>
<path d="M59.1579 45.0464H26.7034C26.2767 45.0464 25.9307 44.6946 25.9307 44.2607V34.8321C25.9307 34.3982 26.2767 34.0464 26.7034 34.0464H59.1579C59.3628 34.0464 59.5595 34.1292 59.7044 34.2765C59.8492 34.4238 59.9307 34.6237 59.9307 34.8321V44.2607C59.9307 44.469 59.8493 44.669 59.7044 44.8163C59.5595 44.9636 59.3628 45.0464 59.1579 45.0464ZM27.4761 43.475H58.3852V35.6178H27.4761V43.475Z" fill="#D4D349"/>
<path d="M59.1579 58.0464H26.7034C26.2767 58.0464 25.9307 57.6946 25.9307 57.2607V47.8321C25.9307 47.3982 26.2767 47.0464 26.7034 47.0464H59.1579C59.3628 47.0464 59.5595 47.1292 59.7044 47.2765C59.8492 47.4238 59.9307 47.6237 59.9307 47.8321V57.2607C59.9307 57.469 59.8493 57.669 59.7044 57.8163C59.5595 57.9636 59.3628 58.0464 59.1579 58.0464ZM27.4761 56.475H58.3852V48.6178H27.4761V56.475Z" fill="#D4D349"/>
<path d="M50.1449 30.0464H29.7164C29.2825 30.0464 28.9307 29.6732 28.9307 29.2131V25.8797C28.9307 25.4195 29.2825 25.0464 29.7164 25.0464H50.1449C50.3533 25.0464 50.5532 25.1342 50.7006 25.2904C50.8479 25.4467 50.9307 25.6587 50.9307 25.8797V29.2131C50.9307 29.434 50.8479 29.6461 50.7006 29.8023C50.5532 29.9586 50.3533 30.0464 50.1449 30.0464ZM30.5021 28.3797H49.3592V26.7131H30.5021V28.3797Z" fill="#D4D349"/>
<path d="M54.4307 30.0464C53.7677 30.0464 53.1315 29.783 52.6628 29.3142C52.1941 28.8455 51.9307 28.2093 51.9307 27.5464C51.9307 26.8835 52.1941 26.2472 52.6628 25.7785C53.1316 25.3099 53.7678 25.0464 54.4307 25.0464C55.0935 25.0464 55.7298 25.3098 56.1985 25.7785C56.6672 26.2473 56.9307 26.8835 56.9307 27.5464C56.9307 28.2093 56.6673 28.8456 56.1985 29.3142C55.7297 29.7829 55.0935 30.0464 54.4307 30.0464ZM54.4307 26.713C54.0936 26.713 53.7897 26.9161 53.6609 27.2275C53.5318 27.5389 53.6029 27.8972 53.8414 28.1356C54.0798 28.3741 54.4381 28.4452 54.7495 28.3161C55.0609 28.1873 55.264 27.8834 55.264 27.5463C55.264 27.3254 55.1762 27.1133 55.02 26.957C54.8637 26.8008 54.6516 26.713 54.4307 26.713Z" fill="#D4D349"/>
<path d="M27.9307 32.0464H29.9307V35.0464H27.9307V32.0464Z" fill="#D4D349"/>
<path d="M55.9307 32.0464H57.9307V35.0464H55.9307V32.0464Z" fill="#D4D349"/>
<path d="M55.9307 45.0464H57.9307V48.0464H55.9307V45.0464Z" fill="#D4D349"/>
<path d="M27.9307 45.0464H29.9307V48.0464H27.9307V45.0464Z" fill="#D4D349"/>
<path d="M54.9307 52.0464H56.9307V57.0464H54.9307V52.0464Z" fill="#D4D349"/>
<path d="M51.9307 52.0464H53.9307V57.0464H51.9307V52.0464Z" fill="#D4D349"/>
<path d="M48.9307 52.0464H50.9307V57.0464H48.9307V52.0464Z" fill="#D4D349"/>
<path d="M45.9307 52.0464H47.9307V57.0464H45.9307V52.0464Z" fill="#D4D349"/>
<path d="M42.9307 52.0464H44.9307V57.0464H42.9307V52.0464Z" fill="#D4D349"/>
<path d="M39.9307 52.0464H41.9307V57.0464H39.9307V52.0464Z" fill="#D4D349"/>
<path d="M36.9307 52.0464H38.9307V57.0464H36.9307V52.0464Z" fill="#D4D349"/>
<path d="M33.9307 52.0464H35.9307V57.0464H33.9307V52.0464Z" fill="#D4D349"/>
<path d="M29.9307 52.0464H31.9307V57.0464H29.9307V52.0464Z" fill="#D4D349"/>
<path d="M26.9307 52.0464H59.9307V54.0464H26.9307V52.0464Z" fill="#D4D349"/>
<path d="M47.9307 38.0464H56.9307V40.0464H47.9307V38.0464Z" fill="#D4D349"/>
<path d="M47.9307 41.0464H56.9307V43.0464H47.9307V41.0464Z" fill="#D4D349"/>
<path d="M44.9307 38.0464H46.9307V40.0464H44.9307V38.0464Z" fill="#D4D349"/>
<path d="M34.9307 38.0464H43.9307V40.0464H34.9307V38.0464Z" fill="#D4D349"/>
<path d="M44.9307 41.0464H46.9307V43.0464H44.9307V41.0464Z" fill="#D4D349"/>
<path d="M41.9307 41.0464H43.9307V43.0464H41.9307V41.0464Z" fill="#D4D349"/>
<path d="M27.9307 54.0464H29.9307V56.0464H27.9307V54.0464Z" fill="#D4D349"/>
<path d="M34.9307 41.0464H39.9307V43.0464H34.9307V41.0464Z" fill="#D4D349"/>
<path d="M33.0973 43.0464H29.764C29.3038 43.0464 28.9307 42.6732 28.9307 42.2131V38.8797C28.9307 38.4195 29.3038 38.0464 29.764 38.0464H33.0973C33.3183 38.0464 33.5304 38.1342 33.6866 38.2904C33.8429 38.4467 33.9307 38.6587 33.9307 38.8797V42.2131C33.9307 42.434 33.8429 42.6461 33.6866 42.8023C33.5304 42.9586 33.3183 43.0464 33.0973 43.0464ZM30.5973 41.3797H32.264V39.7131H30.5973V41.3797Z" fill="#D4D349"/>
<path d="M53.1449 67.0464H32.7164C32.2825 67.0464 31.9307 66.7106 31.9307 66.2964V61.7964C31.9307 61.3822 32.2825 61.0464 32.7164 61.0464H53.1449C53.3533 61.0464 53.5532 61.1254 53.7006 61.266C53.8479 61.4067 53.9307 61.5975 53.9307 61.7964V66.2964C53.9307 66.4953 53.8479 66.6861 53.7006 66.8267C53.5532 66.9674 53.3533 67.0464 53.1449 67.0464ZM33.5021 65.5464H52.3592V62.5464H33.5021V65.5464Z" fill="#D4D349"/>
<path d="M45.0973 62.0464H41.764C41.3038 62.0464 40.9307 61.7106 40.9307 61.2964V56.7964C40.9307 56.3822 41.3038 56.0464 41.764 56.0464H45.0973C45.3183 56.0464 45.5304 56.1254 45.6866 56.266C45.8429 56.4067 45.9307 56.5975 45.9307 56.7964V61.2964C45.9307 61.4953 45.8429 61.6861 45.6866 61.8267C45.5304 61.9674 45.3183 62.0464 45.0973 62.0464ZM42.5973 60.5464H44.264V57.5464H42.5973V60.5464Z" fill="#D4D349"/>
<path d="M65.5623 67.0464H52.9307V65.3797H65.5623C65.9982 65.3797 66.3517 65.0066 66.3517 64.5464C66.3517 64.0862 65.9982 63.7131 65.5623 63.7131H52.9307V62.0464H65.5623C66.4085 62.0464 67.1902 62.5229 67.6135 63.2964C68.0364 64.0698 68.0364 65.023 67.6135 65.7964C67.1902 66.5698 66.4085 67.0464 65.5623 67.0464Z" fill="#D4D349"/>
<path d="M32.9307 67.0464H20.2991C19.4528 67.0464 18.6711 66.5698 18.2479 65.7964C17.8249 65.0229 17.8249 64.0698 18.2479 63.2964C18.6711 62.5229 19.4528 62.0464 20.2991 62.0464H32.9307V63.7131H20.2991C19.8631 63.7131 19.5096 64.0862 19.5096 64.5464C19.5096 65.0066 19.8631 65.3797 20.2991 65.3797H32.9307V67.0464Z" fill="#D4D349"/>
<path d="M27.9307 65.0015L30.8858 62.0464L31.9307 63.0912L28.9755 66.0464L27.9307 65.0015Z" fill="#D4D349"/>
<path d="M23.9307 65.0015L26.8858 62.0464L27.9307 63.0912L24.9755 66.0464L23.9307 65.0015Z" fill="#D4D349"/>
<path d="M19.9307 65.0015L22.8858 62.0464L23.9307 63.0912L20.9755 66.0464L19.9307 65.0015Z" fill="#D4D349"/>
<path d="M53.9307 63.0912L54.9755 62.0464L57.9307 65.0015L56.8858 66.0464L53.9307 63.0912Z" fill="#D4D349"/>
<path d="M57.9307 63.0912L58.9755 62.0464L61.9307 65.0015L60.8858 66.0464L57.9307 63.0912Z" fill="#D4D349"/>
<path d="M61.9307 63.0912L62.9755 62.0464L65.9307 65.0015L64.8858 66.0464L61.9307 63.0912Z" fill="#D4D349"/>
</g>
<defs>
<clipPath id="clip0_349_3433">
<rect x="14.9307" y="19.0464" width="55" height="51" rx="10" fill="white"/>
</clipPath>
</defs>
</svg>
