<svg width="85" height="90" viewBox="0 0 85 90" fill="none" xmlns="http://www.w3.org/2000/svg">
<rect x="0.713867" y="0.956543" width="84" height="89" rx="10" fill="#070707"/>
<g clip-path="url(#clip0_355_3825)">
<path d="M42.6672 22.6756C42.4296 22.6872 42.1993 22.7606 41.9985 22.8877L24.6138 33.7628C24.2098 34.0139 23.9639 34.4557 23.9639 34.9316C23.9639 35.4072 24.2098 35.8493 24.6138 36.1001L41.9985 46.972C42.2162 47.1071 42.4673 47.179 42.7237 47.179C42.9801 47.179 43.2312 47.1071 43.4489 46.972L60.8335 36.1001H60.8338C61.2379 35.8493 61.4838 35.4072 61.4838 34.9316C61.4838 34.4557 61.2379 34.0139 60.8338 33.7628L43.4492 22.8877C43.2159 22.7404 42.9435 22.6664 42.6675 22.6756H42.6672ZM27.9479 41.4302L24.6138 43.5202C24.2147 43.7722 23.9724 44.2113 23.9724 44.6835C23.9724 45.1557 24.2147 45.5948 24.6138 45.8469L41.9985 56.7329C42.2162 56.868 42.4673 56.9395 42.7237 56.9395C42.9801 56.9395 43.2312 56.868 43.4489 56.7329L60.8335 45.8469H60.8338C61.233 45.5948 61.4752 45.1557 61.4752 44.6835C61.4752 44.2113 61.233 43.7722 60.8338 43.5202L57.4998 41.4302L44.9082 49.3043C44.9054 49.3061 44.9026 49.308 44.9002 49.3098C43.5725 50.1339 41.8757 50.1339 40.548 49.3098C40.5453 49.308 40.5425 49.3061 40.5397 49.3043L27.9479 41.4302ZM27.9506 51.182L24.6138 53.2696C24.211 53.5207 23.966 53.9622 23.966 54.4369C23.966 54.9119 24.211 55.3531 24.6138 55.6043L41.9985 66.4793C42.2162 66.6144 42.4673 66.6859 42.7237 66.6859C42.9801 66.6859 43.2312 66.6144 43.4489 66.4793L60.8335 55.6043H60.8338C61.2367 55.3531 61.4817 54.9119 61.4817 54.4369C61.4817 53.9623 61.2367 53.5208 60.8338 53.2696L57.4971 51.182L44.9086 59.0648C44.9058 59.0666 44.903 59.0685 44.9006 59.07C43.573 59.894 41.8761 59.894 40.5484 59.07C40.5457 59.0685 40.5429 59.0666 40.5402 59.0648L27.9506 51.182Z" fill="#D4D349"/>
</g>
<defs>
<clipPath id="clip0_355_3825">
<rect x="15.2139" y="22.6726" width="55" height="45.5681" rx="10" fill="white"/>
</clipPath>
</defs>
</svg>
