<svg width="85" height="90" viewBox="0 0 85 90" fill="none" xmlns="http://www.w3.org/2000/svg">
<rect x="0.463867" y="0.782471" width="84" height="89" rx="10" fill="#070707"/>
<g clip-path="url(#clip0_349_3698)">
<path d="M42.1875 54.8361L41.0592 55.9658C40.3338 56.6114 39.2054 56.6114 38.4801 55.9658L37.5937 55.0783L25.746 68.7956C24.1342 70.6515 21.2327 70.8127 19.4595 69.0378C17.6862 67.2624 17.7672 64.3578 19.7014 62.7437L33.4022 50.8818L32.5158 49.9943C31.7904 49.2681 31.7904 48.1384 32.5158 47.4122L33.6441 46.2825C34.6115 48.0578 35.8203 49.7521 37.2711 51.2852C38.7215 52.6568 40.4142 53.948 42.187 54.8355L42.1875 54.8361Z" fill="#D4D349"/>
<path d="M51.6875 31.2825C47.246 31.2825 42.9635 33.3254 40.1875 36.7825C42.9632 40.3183 47.167 42.2825 51.6875 42.2825C56.2081 42.2825 60.4115 40.3183 63.1875 36.7825C60.491 33.3251 56.208 31.2825 51.6875 31.2825ZM51.6875 41.1037C49.3083 41.1037 47.3253 39.1395 47.3253 36.7822C47.3253 34.4252 49.308 32.4607 51.6875 32.4607C54.0667 32.4607 56.0497 34.4249 56.0497 36.7822C56.0497 39.1395 54.1463 41.1037 51.6875 41.1037Z" fill="#D4D349"/>
<path d="M65.6279 23.6956C58.2154 16.4781 46.1593 16.4781 38.7469 23.6956C31.3344 30.9131 31.3343 42.652 38.7469 49.8694C46.1594 57.0868 58.2155 57.0869 65.6279 49.8694C73.1219 42.5726 72.9591 30.913 65.6279 23.6956ZM52.1058 43.9999C46.811 43.9999 41.7604 41.541 38.5837 37.3375C38.3392 37.0202 38.3392 36.7028 38.5837 36.3855C41.7604 32.1819 46.7294 29.723 52.1058 29.723C57.4006 29.723 62.4512 32.182 65.6279 36.3855C65.8724 36.7028 65.8724 37.0201 65.6279 37.3375C62.4512 41.5411 57.4822 43.9999 52.1058 43.9999Z" fill="#D4D349"/>
<path d="M52.1875 34.2825C50.5588 34.2825 49.1875 35.6538 49.1875 37.2825C49.1875 38.9111 50.5588 40.2825 52.1875 40.2825C53.8162 40.2825 55.1875 38.9111 55.1875 37.2825C55.1879 35.6542 53.9021 34.2825 52.1875 34.2825Z" fill="#D4D349"/>
</g>
<defs>
<clipPath id="clip0_349_3698">
<rect x="15.1875" y="18.2825" width="59" height="56" rx="10" fill="white"/>
</clipPath>
</defs>
</svg>
