<svg width="85" height="90" viewBox="0 0 85 90" fill="none" xmlns="http://www.w3.org/2000/svg">
<rect x="0.463867" y="0.864502" width="84" height="89" rx="10" fill="#070707"/>
<path d="M25.5855 41.3645C25.195 41.3645 24.8001 41.2704 24.435 41.0745C23.2721 40.4506 22.8464 39.0226 23.4831 37.8828L28.6826 28.5853C29.3193 27.4473 30.7786 27.0316 31.94 27.6525C33.1029 28.2763 33.5286 29.7062 32.8919 30.8442L27.6924 40.1417C27.2556 40.9239 26.4334 41.3645 25.5855 41.3645Z" fill="#D4D349"/>
<path d="M63.7895 41.3645C62.9415 41.3645 62.1193 40.9239 61.6826 40.1431L56.4831 30.8451C55.8464 29.707 56.2721 28.2774 57.435 27.6536C58.598 27.0312 60.0556 27.4465 60.6923 28.5864L65.8919 37.8845C66.5285 39.0241 66.1032 40.4524 64.9399 41.0764C64.5749 41.2704 64.1799 41.3645 63.7895 41.3645Z" fill="#D4D349"/>
<path d="M51.7329 64.3645H38.6421C37.2858 64.3645 36.1875 63.2448 36.1875 61.8645C36.1875 60.4846 37.2854 59.3645 38.6421 59.3645H51.7329C53.0892 59.3645 54.1875 60.4842 54.1875 61.8645C54.1875 63.2448 53.0892 64.3645 51.7329 64.3645Z" fill="#D4D349"/>
<path d="M30.7894 60.3645C29.9414 60.3645 29.1193 59.9239 28.6826 59.143L23.4832 49.8457C22.8465 48.706 23.2719 47.2775 24.4336 46.6536C25.5965 46.0311 27.0542 46.4465 27.6924 47.5865L32.8918 56.8838C33.5285 58.0235 33.1031 59.452 31.9414 60.076C31.5753 60.2704 31.1799 60.3645 30.7895 60.3645H30.7894Z" fill="#D4D349"/>
<path d="M58.5854 60.3645C58.195 60.3645 57.8 60.2719 57.4336 60.076C56.2722 59.452 55.8464 58.022 56.4831 56.8838L61.6826 47.5864C62.3193 46.4467 63.7767 46.0311 64.9414 46.6535C66.1028 47.2789 66.5286 48.7075 65.8919 49.8457L60.6924 59.143C60.2557 59.9224 59.4335 60.3645 58.5855 60.3645H58.5854Z" fill="#D4D349"/>
<path d="M51.7329 28.3645H38.6421C37.2858 28.3645 36.1875 27.2448 36.1875 25.8645C36.1875 24.4846 37.2854 23.3645 38.6421 23.3645H51.7329C53.0892 23.3645 54.1875 24.4842 54.1875 25.8645C54.1875 27.2448 53.0892 28.3645 51.7329 28.3645Z" fill="#D4D349"/>
<path d="M26.1879 50.3645C22.33 50.3645 19.1875 47.2223 19.1875 43.3645C19.1875 39.5067 22.3297 36.3645 26.1875 36.3645C30.0454 36.3645 33.1875 39.5067 33.1875 43.3645C33.1879 47.2224 30.0453 50.3645 26.1879 50.3645Z" fill="#D4D349"/>
<path d="M40.1875 62.3645C40.1875 66.2224 37.0453 69.3645 33.1875 69.3645C29.3296 69.3645 26.1875 66.2223 26.1875 62.3645C26.1875 58.507 29.3297 55.3645 33.1875 55.3645C37.0454 55.3645 40.1875 58.507 40.1875 62.3645Z" fill="#D4D349"/>
<path d="M40.1875 25.3647C40.1875 29.2225 37.0453 32.3645 33.1875 32.3645C29.3296 32.3645 26.1875 29.2224 26.1875 25.3647C26.1875 21.507 29.3297 18.3645 33.1875 18.3645C37.0454 18.3645 40.1875 21.5069 40.1875 25.3647Z" fill="#D4D349"/>
<path d="M62.1875 62.3645C62.1875 66.2224 59.0453 69.3645 55.1875 69.3645C51.3296 69.3645 48.1875 66.2223 48.1875 62.3645C48.1875 58.507 51.3297 55.3645 55.1875 55.3645C59.0454 55.3645 62.1875 58.507 62.1875 62.3645Z" fill="#D4D349"/>
<path d="M48.1875 25.3647C48.1875 21.5069 51.3297 18.3645 55.1875 18.3645C59.0454 18.3645 62.1875 21.5066 62.1875 25.3643C62.1875 29.2221 59.0453 32.3645 55.1875 32.3645C51.3296 32.3645 48.1875 29.2221 48.1875 25.3647Z" fill="#D4D349"/>
<path d="M70.1875 43.3645C70.1875 47.2224 67.0453 50.3645 63.1875 50.3645C59.3296 50.3645 56.1875 47.2223 56.1875 43.3645C56.1875 39.5067 59.3297 36.3645 63.1875 36.3645C67.045 36.3645 70.1875 39.5067 70.1875 43.3645Z" fill="#D4D349"/>
</svg>
