<svg width="85" height="90" viewBox="0 0 85 90" fill="none" xmlns="http://www.w3.org/2000/svg">
<rect x="0.814453" y="0.923828" width="84" height="89" rx="10" fill="#070707"/>
<g clip-path="url(#clip0_349_3150)">
<path d="M36.5382 42.1995C36.5353 42.4635 36.6173 42.7215 36.7717 42.9356C36.9261 43.1499 37.1449 43.3094 37.396 43.3904C37.7412 43.4943 37.9635 43.8292 37.9255 44.1877C37.9198 44.5295 38.0303 44.8632 38.2384 45.134C38.4468 45.4052 38.7406 45.598 39.0724 45.6808C39.3511 45.7467 39.568 45.9658 39.6311 46.2455C39.6995 46.5764 39.8793 46.8733 40.1405 47.0877C40.4013 47.302 40.7277 47.4207 41.0655 47.4238C41.4632 47.4163 41.8414 47.2518 42.1173 46.9655C42.3935 46.6796 42.5445 46.2957 42.5379 45.8983V43.6738H42.0985L41.5683 44.2039H41.568C41.2739 44.4883 40.8059 44.4842 40.5168 44.1948C40.2275 43.9057 40.2234 43.4377 40.5077 43.1436L41.0379 42.6131C41.3197 42.3331 41.7008 42.1752 42.0984 42.1737H42.5379V40.6739H40.288C40.288 41.0879 39.9522 41.4238 39.5379 41.4238C39.1239 41.4238 38.788 41.0879 38.788 40.6739V39.1738C38.788 38.7595 39.1239 38.4239 39.5379 38.4239C39.9522 38.4239 40.288 38.7595 40.288 39.1738H42.5379V37.6737H42.0984C41.7008 37.6725 41.3197 37.5146 41.0379 37.2343L40.5077 36.7041C40.2234 36.4097 40.2275 35.942 40.5168 35.6529C40.8059 35.3635 41.2739 35.3594 41.568 35.6435L42.0981 36.1736L42.5379 36.1739V33.38C42.5479 32.863 42.1377 32.4355 41.6207 32.4239C41.5702 32.4233 41.52 32.4277 41.4707 32.4374C41.3744 32.4546 41.2818 32.487 41.1954 32.5325L41.1123 32.5827C41.1019 32.5903 41.0576 32.6226 41.0464 32.6292C40.987 32.6876 40.9541 32.7199 40.9255 32.7538L40.8882 32.8072C40.8813 32.8185 40.8401 32.8822 40.8326 32.8919L40.7733 33.008C40.7215 33.2092 40.5934 33.3822 40.4161 33.4905C40.2413 33.5969 40.0313 33.6305 39.832 33.5834C39.6364 33.5426 39.4327 33.5925 39.278 33.7187C39.1229 33.8452 39.0335 34.0345 39.0341 34.2344C39.0329 34.3832 39.0809 34.5282 39.1706 34.6469C39.3339 34.8606 39.3703 35.1456 39.2658 35.3936C39.1612 35.6413 38.9321 35.8145 38.665 35.8469C38.2413 35.9125 37.8646 36.1526 37.6261 36.5089C37.3875 36.8651 37.3094 37.3052 37.4104 37.7218C37.4744 37.9842 37.3925 38.2604 37.1957 38.4456C36.949 38.6829 36.8103 39.0112 36.8119 39.3537C36.809 39.6481 36.9114 39.9335 37.1 40.1594C37.2287 40.3142 37.2899 40.5145 37.2698 40.7147C37.2494 40.9153 37.1493 41.0992 36.992 41.2251C36.7008 41.464 36.5338 41.8225 36.5382 42.1995Z" fill="#D4D349"/>
<path d="M57.5381 32.4238H58.5381V51.4238H57.5381V32.4238Z" fill="#D4D349"/>
<path d="M46.0108 47.4238C46.3071 47.4216 46.5958 47.3299 46.8394 47.1604C47.0826 46.9912 47.2691 46.752 47.3739 46.4749C47.3912 46.4313 47.4047 46.3879 47.4182 46.3443L47.443 46.2552C47.5083 45.9739 47.7245 45.7526 48.0039 45.6807C48.3354 45.5982 48.6288 45.4061 48.8369 45.1355C49.0447 44.8649 49.1549 44.5319 49.1492 44.1903C49.1122 43.8309 49.3347 43.4957 49.6803 43.3902C49.9653 43.2942 50.2067 43.0996 50.3605 42.8412C50.5146 42.5829 50.5708 42.2781 50.5197 41.9818C50.4682 41.6855 50.3125 41.4171 50.0809 41.2257C49.9233 41.0998 49.8232 40.9162 49.8028 40.7156C49.7827 40.515 49.8439 40.3147 49.9726 40.16C50.1612 39.9343 50.2635 39.6487 50.2607 39.3546C50.2626 39.0121 50.1236 38.6838 49.8768 38.4461C49.7249 38.3046 49.6386 38.1065 49.6383 37.8987C49.638 37.8378 49.6452 37.7772 49.6593 37.7179C49.6879 37.6012 49.7023 37.4812 49.702 37.361C49.7089 36.9935 49.5805 36.6362 49.3413 36.3572C49.1022 36.0778 48.7688 35.8964 48.4044 35.8468C48.1408 35.8164 47.9129 35.6491 47.8049 35.4064C47.6969 35.1638 47.7255 34.8825 47.8796 34.6663C47.8937 34.6452 47.9094 34.6255 47.9261 34.6063C47.9477 34.5658 47.959 34.5442 47.9697 34.5194C48.0102 34.429 48.0312 34.331 48.0318 34.2322C48.0328 34.0322 47.943 33.8426 47.7883 33.7161C47.6332 33.5896 47.4295 33.54 47.2339 33.5811C47.0396 33.6345 46.8319 33.6078 46.6576 33.5064C46.4834 33.4051 46.3573 33.2381 46.3077 33.0425L46.2656 32.9487C46.2581 32.9367 46.2182 32.8655 46.2116 32.8526L46.1313 32.7409V32.7412C46.1049 32.711 46.0766 32.6828 46.0465 32.6564L45.979 32.598C45.9655 32.5905 45.9257 32.5635 45.9131 32.5553V32.555C45.8368 32.5086 45.7543 32.4731 45.668 32.4502C45.5983 32.4336 45.527 32.4248 45.4555 32.4238C44.9385 32.4354 44.5282 32.863 44.5383 33.3799V36.1739H44.9777L45.5082 35.6434C45.8023 35.3593 46.2703 35.3634 46.5594 35.6528C46.8488 35.9419 46.8529 36.4096 46.5685 36.7041L46.0384 37.2342C45.7565 37.5145 45.3754 37.6724 44.9778 37.6737H44.5383V39.1738H46.7882C46.7882 38.7594 47.1241 38.4239 47.5384 38.4239C47.9524 38.4239 48.2883 38.7594 48.2883 39.1738V40.6739C48.2883 41.0879 47.9524 41.4238 47.5384 41.4238C47.1241 41.4238 46.7882 41.0879 46.7882 40.6739H44.5383V42.174H44.9778V42.1736C45.3754 42.1752 45.7565 42.3331 46.0384 42.6131L46.5685 43.1433V43.1436C46.7132 43.2833 46.7958 43.4754 46.7976 43.6766C46.7992 43.8775 46.7201 44.0711 46.5779 44.2133C46.4357 44.3555 46.2421 44.4346 46.0412 44.4331C45.84 44.4312 45.6479 44.3486 45.5082 44.2039L44.9777 43.6737H44.5383V45.8983C44.5317 46.2957 44.6827 46.6796 44.9589 46.9655C45.2348 47.2518 45.6131 47.4162 46.0108 47.4238Z" fill="#D4D349"/>
<path d="M30.5381 51.4238H55.5381V28.4238H30.5381V51.4238ZM35.2218 38.9898C35.2218 38.3871 35.4187 37.8009 35.7822 37.3226C35.772 37.222 35.7668 37.1211 35.7668 37.0199C35.764 36.456 35.9194 35.9026 36.2145 35.4239C36.5097 34.9447 36.9328 34.5597 37.435 34.3126C37.4122 34.1846 37.4005 34.0548 37.4005 33.9247C37.3974 33.3754 37.6039 32.846 37.9772 32.4464C38.3505 32.0467 38.8619 31.8073 39.4057 31.7785C39.4365 31.7266 39.471 31.6769 39.5085 31.63C39.531 31.5962 39.5553 31.5639 39.5821 31.5335C39.6673 31.4276 39.7621 31.3298 39.8652 31.2413C39.8938 31.2124 39.9246 31.186 39.9572 31.1618C39.9778 31.1447 40.0403 31.0987 40.0624 31.0838C40.0846 31.0689 40.1271 31.0379 40.1714 31.0096H40.1711C40.2108 30.9826 40.2517 30.9581 40.2939 30.9354C40.472 30.8373 40.6625 30.7637 40.8601 30.7165C40.8955 30.7066 40.9312 30.6988 40.9675 30.6929C41.7174 30.5578 42.4864 30.7916 43.0379 31.322C43.4749 30.8913 44.0614 30.6504 44.6723 30.6497C44.8194 30.6494 44.9658 30.664 45.1099 30.6935C45.1594 30.7016 45.2087 30.7125 45.257 30.7261C45.4391 30.7718 45.6149 30.8404 45.7798 30.9311C45.8423 30.9658 45.9004 31.0009 45.9503 31.0357C45.9546 31.0357 45.9995 31.0677 46.0414 31.0972C46.0568 31.1084 46.126 31.1602 46.1414 31.1714C46.1854 31.2065 46.2272 31.2441 46.2666 31.2841C46.3469 31.3555 46.4208 31.4344 46.487 31.5195C46.5325 31.5772 46.5679 31.6248 46.6024 31.676C46.6273 31.7074 46.6494 31.7409 46.6688 31.776C47.2123 31.8052 47.7238 32.0446 48.097 32.4442C48.4706 32.8438 48.6771 33.3733 48.6737 33.9226C48.6737 34.0527 48.6623 34.1825 48.6393 34.3104C49.1418 34.5576 49.5649 34.9426 49.86 35.4217C50.1552 35.9005 50.3102 36.4538 50.3075 37.0177C50.3075 37.1186 50.3026 37.2192 50.2921 37.3195C50.5958 37.721 50.7839 38.1989 50.8359 38.701C50.8876 39.2031 50.8014 39.7098 50.5863 40.1657C51.0519 40.7982 51.2251 41.6024 51.0614 42.3729C50.898 43.1433 50.4133 43.8053 49.7317 44.19C49.6646 44.7098 49.4621 45.2025 49.1448 45.618C48.8273 46.0335 48.4066 46.3564 47.9253 46.5542L47.9164 46.5772V46.5775C47.5542 47.5338 46.7208 48.2282 45.7217 48.4067C44.7225 48.5853 43.7039 48.222 43.038 47.4491C42.3702 48.2276 41.3448 48.5931 40.3404 48.4102C39.3359 48.2276 38.5017 47.5237 38.1453 46.5589C37.6644 46.3608 37.2437 46.0378 36.9267 45.6227C36.6094 45.2076 36.4069 44.7148 36.3395 44.195C35.6579 43.8106 35.1735 43.1485 35.0101 42.3782C34.8464 41.6078 35.0197 40.8036 35.4853 40.171C35.3114 39.8018 35.2212 39.3985 35.2218 38.9899L35.2218 38.9898Z" fill="#D4D349"/>
<path d="M55.5374 23.0904C55.5374 22.9135 55.4599 22.7441 55.322 22.6189C55.1842 22.4939 54.9971 22.4238 54.802 22.4238H31.2736C30.8674 22.4238 30.5381 22.7221 30.5381 23.0904V26.4238H55.5381L55.5374 23.0904ZM33.4791 25.0904H32.7436C32.3377 25.0904 32.0084 24.7919 32.0084 24.4238C32.0084 24.0555 32.3377 23.757 32.7436 23.757H33.4791C33.885 23.757 34.2143 24.0555 34.2143 24.4238C34.2143 24.7919 33.885 25.0904 33.4791 25.0904ZM37.1556 25.0904H36.4201C36.0139 25.0904 35.6849 24.7919 35.6849 24.4238C35.6849 24.0555 36.0139 23.757 36.4201 23.757H37.1553C37.5615 23.757 37.8908 24.0555 37.8908 24.4238C37.8908 24.7919 37.5615 25.0904 37.1553 25.0904H37.1556ZM53.3315 25.0904H50.3901C49.9842 25.0904 49.655 24.7919 49.655 24.4238C49.655 24.0555 49.9842 23.757 50.3901 23.757H53.3315C53.7374 23.757 54.0666 24.0555 54.0666 24.4238C54.0666 24.7919 53.7374 25.0904 53.3315 25.0904Z" fill="#D4D349"/>
<path d="M27.9957 63.4238H58.0798C58.5244 63.4249 58.9449 63.2405 59.2214 62.9233L60.5381 61.4238H25.5381L26.8551 62.9233H26.8548C27.1313 63.2405 27.5518 63.4249 27.9964 63.4238H27.9957Z" fill="#D4D349"/>
<path d="M62.8057 55.4238H49.6271V56.0904C49.6271 56.4439 49.4729 56.7832 49.1981 57.0332C48.9235 57.2832 48.5512 57.4238 48.1627 57.4238H37.9131C37.5246 57.4238 37.1523 57.2832 36.8778 57.0332C36.6029 56.7832 36.4488 56.4439 36.4488 56.0904V55.4238H23.2701C22.8657 55.4238 22.5381 55.7221 22.5381 56.0904V58.757C22.5381 58.9339 22.615 59.1035 22.7523 59.2285C22.8899 59.3535 23.0759 59.4238 23.2701 59.4238H62.806C63.0003 59.4238 63.1863 59.3535 63.3239 59.2285C63.4612 59.1035 63.5381 58.9339 63.5381 58.757V56.0904C63.5381 55.9135 63.4612 55.7441 63.3239 55.6189C63.1863 55.4939 63.0003 55.4238 62.806 55.4238L62.8057 55.4238ZM25.4662 58.0904H24.7342C24.3297 58.0904 24.0018 57.7919 24.0018 57.4238C24.0018 57.0555 24.3297 56.757 24.7342 56.757H25.4662C25.8707 56.757 26.1983 57.0555 26.1983 57.4238C26.1983 57.7919 25.8707 58.0904 25.4662 58.0904ZM29.1271 58.0904H28.3947C27.9905 58.0904 27.6627 57.7919 27.6627 57.4238C27.6627 57.0555 27.9905 56.757 28.3947 56.757H29.1271C29.5312 56.757 29.8591 57.0555 29.8591 57.4238C29.8591 57.7919 29.5312 58.0904 29.1271 58.0904Z" fill="#D4D349"/>
<path d="M24.5387 30.1535V54.2346H36.3781C36.7705 54.2346 37.1471 54.3883 37.4246 54.6622C37.7021 54.9359 37.8582 55.307 37.8582 55.6942V56.4238H48.2173V55.6942C48.2173 55.3069 48.3734 54.9359 48.6509 54.6622C48.9284 54.3883 49.305 54.2346 49.6974 54.2346H61.5368V30.1535C61.5597 29.7833 61.2822 29.4611 60.9078 29.4238H57.0969V30.8834H58.577V30.8831C58.9694 30.8831 59.346 31.037 59.6234 31.3107C59.9009 31.5843 60.057 31.9557 60.057 32.3426V51.316C60.057 51.7029 59.9009 52.0743 59.6234 52.3479C59.346 52.6216 58.9694 52.7752 58.577 52.7752H27.4979C27.1055 52.7752 26.7289 52.6216 26.4514 52.3479C26.174 52.0743 26.0178 51.7029 26.0178 51.316V32.3426C26.0178 31.9557 26.1739 31.5843 26.4514 31.3107C26.7289 31.037 27.1055 30.8831 27.4979 30.8831H28.978V29.4238H25.278C24.8692 29.4238 24.5381 29.7503 24.5381 30.1535L24.5387 30.1535Z" fill="#D4D349"/>
<path d="M27.5381 32.4238H28.5381V51.4238H27.5381V32.4238Z" fill="#D4D349"/>
</g>
<defs>
<clipPath id="clip0_349_3150">
<rect x="15.5381" y="21.4238" width="55" height="47" rx="10" fill="white"/>
</clipPath>
</defs>
</svg>
