<svg width="85" height="90" viewBox="0 0 85 90" fill="none" xmlns="http://www.w3.org/2000/svg">
<rect x="0.463867" y="0.5" width="84" height="89" rx="10" fill="#070707"/>
<g clip-path="url(#clip0_349_3759)">
<path d="M15.964 27.1129C15.9636 24.666 17.2467 22.3907 19.3611 21.0894C21.4755 19.7879 24.1242 19.6432 26.3733 20.7063C28.6219 21.7694 30.1553 23.8909 30.4325 26.3225L51.4952 26.3225C51.6987 24.5387 52.5825 22.8959 53.9701 21.7242C55.3576 20.5524 57.1459 19.9383 58.9762 20.0049C60.8065 20.0712 62.5433 20.8136 63.8383 22.0831C65.1337 23.3522 65.8911 25.0542 65.9589 26.8479C66.0269 28.6417 65.4001 30.3942 64.2045 31.7539C63.0088 33.1137 61.3326 33.9799 59.5123 34.1793L59.5123 54.8207C61.3326 55.0201 63.0089 55.8863 64.2045 57.2461C65.4001 58.6059 66.0269 60.3583 65.9589 62.152C65.8912 63.9454 65.1337 65.6478 63.8383 66.9169C62.5433 68.1864 60.8062 68.9287 58.9762 68.9951C57.1459 69.0618 55.3576 68.4475 53.9701 67.2758C52.5825 66.104 51.6987 64.4613 51.4952 62.6775L30.4325 62.6775C30.2291 64.4613 29.3453 66.1041 27.9577 67.2758C26.5701 68.4475 24.7819 69.0617 22.9516 68.9951C21.1213 68.9288 19.3845 68.1864 18.0895 66.9169C16.7941 65.6478 16.0367 63.9458 15.9689 62.152C15.9009 60.3583 16.5277 58.6058 17.7233 57.2461C18.919 55.8863 20.5952 55.0201 22.4155 54.8207L22.4155 34.1793C20.6424 33.9831 19.005 33.1546 17.8151 31.8514C16.6253 30.5484 15.9664 28.8615 15.9639 27.113L15.964 27.1129ZM23.222 21.5806C21.8089 21.5781 20.4466 22.0961 19.4047 23.0317C18.3628 23.9674 17.718 25.2524 17.5974 26.6323C17.4768 28.0121 17.8898 29.3857 18.7542 30.4812C18.7978 29.8694 19.0051 29.2798 19.3554 28.7717C19.7061 28.2633 20.1867 27.8548 20.7498 27.587C20.3383 27.0623 20.114 26.4198 20.1118 25.7583C20.1118 24.6691 20.7044 23.6629 21.6668 23.1184C22.6291 22.574 23.8151 22.574 24.7774 23.1184C25.7397 23.6628 26.3327 24.6691 26.3327 25.7583C26.3302 26.4198 26.1059 27.0624 25.6944 27.587C26.2574 27.8548 26.7384 28.2633 27.0887 28.7717C27.439 29.2798 27.6464 29.8693 27.69 30.4812C28.5544 29.3857 28.9673 28.0121 28.8468 26.6323C28.7261 25.2524 28.0813 23.9674 27.0395 23.0317C25.9975 22.0961 24.6352 21.5781 23.2221 21.5806H23.222ZM21.7243 25.7584C21.7247 26.1476 21.8824 26.5208 22.1632 26.796C22.4444 27.0712 22.8253 27.2258 23.2224 27.2254C23.6195 27.2254 24.0004 27.0709 24.2812 26.7957C24.562 26.5205 24.7197 26.1472 24.7197 25.7577C24.7193 25.3685 24.5616 24.9952 24.2808 24.7201C24 24.4449 23.6191 24.2903 23.222 24.2903C22.8249 24.2907 22.4444 24.4456 22.1636 24.7208C21.8828 24.996 21.7247 25.3693 21.7243 25.7584ZM24.0285 34.1792L24.0285 54.8207C25.3894 54.9695 26.6794 55.4949 27.7472 56.335L33.0061 51.1813C31.3762 49.3215 30.4802 46.9513 30.4802 44.4998C30.4802 42.0484 31.3763 39.6781 33.0061 37.8184L27.7472 32.6647C26.6794 33.5047 25.3894 34.0301 24.0285 34.179V34.1792ZM63.1742 30.4813C64.0382 29.3847 64.4511 28.0098 64.3309 26.6292C64.2107 25.2483 63.5659 23.9622 62.5243 23.0248C61.4827 22.0877 60.1204 21.5676 58.7062 21.5676C57.292 21.5676 55.9297 22.0877 54.8882 23.0248C53.8466 23.9622 53.2018 25.2483 53.0815 26.6292C52.9613 28.0098 53.3739 29.3848 54.2383 30.4813C54.2819 29.8695 54.4892 29.2799 54.8395 28.7718C55.1898 28.2634 55.6708 27.8549 56.2339 27.5871C55.8224 27.0624 55.5981 26.4199 55.5956 25.7584C55.5956 24.6692 56.1885 23.663 57.1509 23.1185C58.1132 22.5741 59.2992 22.5741 60.2615 23.1185C61.2238 23.6629 61.8164 24.6692 61.8164 25.7584C61.8143 26.4199 61.59 27.0625 61.1785 27.5871C61.7415 27.8549 62.2221 28.2634 62.5728 28.7718C62.9231 29.2799 63.1306 29.8694 63.1742 30.4813ZM48.9225 37.8186C50.5524 39.6783 51.4484 42.0486 51.4484 44.5C51.4484 46.9515 50.5523 49.3217 48.9225 51.1815L54.1814 56.3352C55.2493 55.4951 56.5392 54.9698 57.9001 54.8208V34.1794C56.5392 34.0305 55.2493 33.5051 54.1814 32.665L48.9225 37.8186ZM57.2088 25.7587C57.2092 26.1478 57.3668 26.5211 57.6477 26.7963C57.9288 27.0715 58.3098 27.226 58.7068 27.2257C59.1039 27.2257 59.4848 27.0711 59.7656 26.7959C60.0465 26.5207 60.2041 26.1475 60.2041 25.758C60.2038 25.3688 60.0461 24.9955 59.7653 24.7203C59.4845 24.4451 59.1036 24.2906 58.7065 24.2906C58.3094 24.2909 57.9288 24.4458 57.648 24.721C57.3673 24.9962 57.2092 25.3695 57.2088 25.7587ZM61.5867 31.8625V30.7261C61.586 30.2173 61.3797 29.7293 61.0124 29.3694C60.6452 29.0095 60.1477 28.807 59.6281 28.8063H57.7844H57.7848C57.2653 28.807 56.7677 29.0095 56.4004 29.3694C56.0332 29.7293 55.8269 30.2172 55.8262 30.7261V31.8625C56.696 32.3748 57.6915 32.6454 58.7064 32.6454C59.7213 32.6454 60.7167 32.3748 61.5866 31.8625H61.5867ZM55.8267 66.6368H55.8263C56.6961 67.1491 57.6916 67.4197 58.7065 67.4197C59.7214 67.4197 60.7168 67.1491 61.5867 66.6368V65.5003C61.586 64.9916 61.3797 64.5036 61.0125 64.1437C60.6452 63.7837 60.1477 63.5813 59.6281 63.5806H57.7844H57.7848C57.2653 63.5813 56.7677 63.7838 56.4005 64.1437C56.0332 64.5036 55.8269 64.9915 55.8262 65.5003L55.8267 66.6368ZM60.2042 60.5329C60.2042 60.1438 60.0465 59.7705 59.7657 59.495C59.4849 59.2197 59.104 59.0652 58.7069 59.0649C58.3094 59.0649 57.9285 59.2194 57.6477 59.4946C57.3669 59.7698 57.2092 60.1431 57.2088 60.5322C57.2088 60.9217 57.3669 61.295 57.6477 61.5702C57.9285 61.8454 58.3094 62 58.7065 62C59.1036 61.9996 59.4842 61.8451 59.7646 61.5699C60.0454 61.2947 60.2035 60.9221 60.2042 60.5329ZM54.2386 65.2558C54.2821 64.644 54.4895 64.0544 54.8398 63.5464C55.1901 63.038 55.6711 62.6294 56.2342 62.3616C55.8227 61.837 55.5984 61.1945 55.5959 60.5329C55.5959 59.4437 56.1888 58.4375 57.1512 57.8931C58.1135 57.3483 59.2995 57.3483 60.2618 57.8931C61.2241 58.4375 61.8167 59.4437 61.8167 60.5329C61.8145 61.1945 61.5902 61.837 61.1787 62.3616C61.7418 62.6294 62.2224 63.038 62.5731 63.5464C62.9234 64.0544 63.1308 64.644 63.1744 65.2558C64.0384 64.1592 64.4513 62.7843 64.3311 61.4037C64.2109 60.0228 63.5661 58.7368 62.5245 57.7993C61.4829 56.8622 60.1206 56.3421 58.7064 56.3421C57.2922 56.3421 55.9299 56.8622 54.8884 57.7993C53.8468 58.7368 53.202 60.0228 53.0817 61.4037C52.9615 62.7843 53.3741 64.1593 54.2386 65.2558ZM30.4334 61.0971L51.4961 61.0971C51.648 59.7634 52.1841 58.4992 53.0413 57.4528L47.7828 52.2994C46.5703 53.3226 45.1341 54.0589 43.5849 54.4509L43.1831 52.9196C45.7404 52.2718 47.87 50.5413 48.9932 48.1985C50.1164 45.8557 50.1165 43.1446 48.9932 40.8018C47.8699 38.459 45.7404 36.7285 43.1831 36.0807L43.5849 34.5494C45.1341 34.9414 46.5703 35.6777 47.7828 36.7009L53.0413 31.5475C52.1841 30.5011 51.6481 29.2369 51.4961 27.9032L30.4334 27.9032C30.2815 29.2369 29.7454 30.5011 28.8881 31.5475L34.1467 36.7009C35.3592 35.6777 36.7953 34.9414 38.3445 34.5494L38.7463 36.0807C36.1891 36.7285 34.0595 38.459 32.9363 40.8018C31.813 43.1446 31.813 45.8557 32.9363 48.1985C34.0596 50.5413 36.1891 52.2718 38.7463 52.9196L38.3445 54.4509C36.7953 54.0589 35.3592 53.3226 34.1467 52.2994L28.8881 57.4528C29.7453 58.4992 30.2814 59.7634 30.4334 61.0971ZM20.343 66.6368C21.2129 67.1491 22.2083 67.4197 23.2232 67.4197C24.2378 67.4197 25.2336 67.1491 26.1034 66.6368V65.5003C26.1027 64.9916 25.896 64.5036 25.5292 64.1437C25.162 63.7838 24.6644 63.5813 24.1448 63.5806H22.3012C21.782 63.5813 21.2845 63.7838 20.9172 64.1437C20.5499 64.5036 20.3437 64.9915 20.343 65.5003L20.343 66.6368ZM24.7206 60.5329C24.7209 60.1438 24.5632 59.7705 24.2824 59.495C24.0016 59.2197 23.6207 59.0652 23.2236 59.0649C22.8261 59.0649 22.4452 59.2194 22.1644 59.4946C21.8836 59.7698 21.7256 60.1431 21.7256 60.5326C21.7256 60.9218 21.8836 61.295 22.1644 61.5702C22.4453 61.8454 22.8262 62 23.2232 62C23.6204 61.9996 24.0009 61.8451 24.2813 61.5699C24.5621 61.2947 24.7202 60.9221 24.7209 60.533L24.7206 60.5329ZM17.5781 61.8874C17.5784 63.1071 17.9925 64.2923 18.7553 65.2558C18.7989 64.644 19.0062 64.0544 19.3565 63.5464C19.7072 63.038 20.1878 62.6294 20.7509 62.3616C20.3394 61.837 20.1151 61.1945 20.113 60.5329C20.113 59.4437 20.7056 58.4375 21.6679 57.8931C22.6302 57.3486 23.8162 57.3487 24.7785 57.8931C25.7408 58.4375 26.3338 59.4437 26.3338 60.5329C26.3313 61.1945 26.107 61.837 25.6955 62.3616C26.2585 62.6294 26.7395 63.038 27.0898 63.5464C27.4401 64.0544 27.6475 64.644 27.6911 65.2558C28.801 63.8425 29.1467 61.9911 28.6199 60.2838C28.0932 58.5765 26.7586 57.2231 25.0351 56.6491C23.3121 56.0754 21.4122 56.3513 19.9329 57.3903C18.4539 58.4294 17.577 60.1039 17.5781 61.8874ZM23.2232 32.6454C24.2378 32.6447 25.2333 32.3745 26.1034 31.8625V30.7261C26.1027 30.2173 25.8964 29.7293 25.5292 29.3694C25.162 29.0095 24.6644 28.807 24.1448 28.8063H22.3012H22.3015C21.782 28.807 21.2845 29.0095 20.9172 29.3694C20.5499 29.7293 20.3437 30.2172 20.3429 30.7261V31.8625C21.2131 32.3745 22.2086 32.6447 23.2231 32.6454H23.2232Z" fill="#D4D349"/>
<path d="M39.4709 50.9906L39.464 50.2135C39.1578 50.0749 38.8633 49.911 38.5845 49.7235C38.5581 49.7173 38.5307 49.7218 38.5081 49.7364L37.8362 50.1117C37.5387 50.2777 37.1678 50.2308 36.921 49.9961C35.9915 49.1158 35.323 47.9953 34.99 46.7588C34.8987 46.415 35.0519 46.0532 35.3623 45.8792L36.0623 45.4879C36.047 45.3236 36.0393 45.1611 36.0393 44.9993C36.0393 44.8375 36.047 44.6747 36.0623 44.5108L35.3626 44.1194V44.1201C35.0522 43.9465 34.8991 43.5843 34.9907 43.2406C35.3223 42.0037 35.989 40.8829 36.9171 40.0009C37.1643 39.7665 37.5352 39.7196 37.8328 39.8856L38.5071 40.263H38.5074C38.531 40.2762 38.5588 40.2807 38.5855 40.2752C38.8713 40.0877 39.1668 39.9151 39.4706 39.7585V39.006C39.4709 38.6539 39.707 38.3456 40.0473 38.2546C40.7029 38.0831 41.3782 37.9973 42.056 38.0001C42.6723 38.0098 43.2855 38.0966 43.8806 38.2577C44.2205 38.349 44.457 38.657 44.457 39.0088L44.4639 39.7859C44.7702 39.9245 45.0643 40.0884 45.3431 40.2759C45.3695 40.2811 45.3966 40.2766 45.4198 40.263L46.0917 39.8876C46.3889 39.7213 46.7601 39.7682 47.007 40.0033C47.9365 40.8835 48.6049 42.0041 48.9375 43.2406C49.0292 43.5844 48.8761 43.9465 48.5656 44.1201L47.8657 44.5115C47.8809 44.6757 47.8886 44.8382 47.8886 45C47.8886 45.1619 47.8809 45.3247 47.8657 45.4886L48.5653 45.8799L48.565 45.8792C48.8757 46.0529 49.0288 46.415 48.9372 46.7588C48.6059 47.9957 47.9392 49.1169 47.0108 49.9985C46.7636 50.2329 46.3927 50.2798 46.0952 50.1138L45.4209 49.7363H45.4205C45.3976 49.7211 45.3688 49.7166 45.3424 49.7242C45.0563 49.9117 44.7608 50.0843 44.457 50.2409V50.9937C44.457 51.3455 44.2205 51.6538 43.8806 51.7448C43.2567 51.9132 42.6136 51.999 41.9675 52C41.9359 52 41.9039 51.9993 41.872 51.9993C41.2553 51.9896 40.6425 51.9028 40.0474 51.7417C39.7075 51.6503 39.4709 51.3423 39.4709 50.9906ZM40.105 48.796C40.381 48.9231 40.6147 49.1269 40.7779 49.3828C40.9414 49.6391 41.0275 49.937 41.0265 50.2408V50.3648V50.3645C41.3122 50.4134 41.6018 50.4398 41.8917 50.4436C42.2299 50.4506 42.5681 50.4249 42.9014 50.3669V50.2408C42.9004 49.937 42.9865 49.6391 43.15 49.3828C43.3132 49.1269 43.5469 48.9231 43.8229 48.796C44.0493 48.6939 44.267 48.5724 44.4729 48.4338C44.725 48.2696 45.0174 48.1775 45.3181 48.1678C45.6188 48.1581 45.9163 48.2307 46.1785 48.3783L46.3267 48.4609C46.7177 48.0043 47.0292 47.4851 47.2479 46.9251L46.6413 46.5862L46.6416 46.5865C46.3493 46.423 46.1941 46.0907 46.2569 45.7615C46.358 45.2587 46.358 44.7406 46.2569 44.2378C46.1941 43.9086 46.3493 43.5763 46.6416 43.4127L47.2482 43.0738L47.2479 43.0742C47.0277 42.5148 46.7152 41.996 46.3236 41.5397L46.1781 41.621C45.9167 41.7689 45.6195 41.8418 45.3191 41.8321C45.0188 41.8224 44.7268 41.7303 44.475 41.5664C44.2681 41.4272 44.05 41.3057 43.823 41.2032C43.5469 41.0761 43.3132 40.8723 43.1501 40.6164C42.9865 40.3601 42.9004 40.0622 42.9014 39.7584V39.6344V39.6348C42.6157 39.5858 42.3261 39.5594 42.0362 39.5556C41.6976 39.5466 41.3594 39.5723 41.0265 39.6323V39.7584C41.0275 40.0622 40.9414 40.3601 40.7779 40.6164C40.6147 40.8723 40.381 41.0762 40.105 41.2032C39.8786 41.3053 39.6612 41.4265 39.455 41.5647C39.2029 41.7297 38.9109 41.822 38.6099 41.8317C38.3092 41.8418 38.0116 41.7689 37.7495 41.621L37.6012 41.5383C37.2106 41.9953 36.8991 42.5144 36.6797 43.0741L37.2863 43.413V43.4127C37.5786 43.5762 37.7338 43.9085 37.671 44.2377C37.5696 44.7405 37.5696 45.2586 37.671 45.7614C37.7338 46.0906 37.5786 46.4229 37.2863 46.5865L36.6797 46.9254L36.68 46.925C36.9002 47.4844 37.2127 48.0032 37.6043 48.4595L37.7501 48.3783C38.0116 48.23 38.3088 48.1567 38.6091 48.1661C38.9095 48.1758 39.2015 48.2682 39.4529 48.4328C39.6598 48.572 39.8779 48.6935 40.105 48.796Z" fill="#D4D349"/>
<path d="M41.9635 42C42.7593 42 43.5224 42.3159 44.0848 42.8787C44.6476 43.4412 44.9639 44.2043 44.9639 44.9996C44.9639 45.7954 44.6479 46.5585 44.0851 47.1209C43.5227 47.6837 42.7596 48 41.9639 48C41.1685 48 40.4054 47.6837 39.8426 47.1213C39.2802 46.5588 38.9639 45.7957 38.9639 45C38.9649 44.2046 39.2812 43.4422 39.8433 42.8798C40.4057 42.3173 41.1681 42.001 41.9635 42ZM41.9635 46.4447C42.3468 46.4447 42.7141 46.2926 42.9849 46.0218C43.2561 45.751 43.4085 45.3833 43.4085 45.0004C43.4085 44.6171 43.2564 44.2498 42.9853 43.9786C42.7145 43.7078 42.3471 43.5554 41.9639 43.5554C41.5809 43.5554 41.2136 43.7078 40.9425 43.9786C40.6717 44.2494 40.5193 44.6168 40.5193 45C40.5196 45.383 40.672 45.75 40.9428 46.0211C41.2136 46.2919 41.5806 46.444 41.9635 46.4447Z" fill="#D4D349"/>
<path d="M40.1164 35.9996L39.9639 34.0442V34.0447C40.6294 33.9851 41.2984 33.9851 41.9639 34.0447L41.8113 36V35.9996C41.2472 35.9518 40.6806 35.9518 40.1164 35.9996Z" fill="#D4D349"/>
<path d="M41.8113 53.0004L41.9639 54.9562C41.6344 54.9855 41.3012 55.0004 40.9639 55C40.627 55 40.2938 54.9851 39.9639 54.9557L40.1164 53V53.0004C40.6806 53.0482 41.2471 53.0482 41.8113 53.0004Z" fill="#D4D349"/>
</g>
<defs>
<clipPath id="clip0_349_3759">
<rect width="55" height="52" rx="10" transform="matrix(-1 0 0 1 69.9639 19)" fill="white"/>
</clipPath>
</defs>
</svg>
