<svg width="85" height="90" viewBox="0 0 85 90" fill="none" xmlns="http://www.w3.org/2000/svg">
<rect x="0.757568" y="0.956543" width="84" height="89" rx="10" fill="#070707"/>
<g clip-path="url(#clip0_349_3289)">
<path d="M23.2601 24.4565C22.7071 24.4565 22.2576 24.9061 22.2576 25.4589C22.2576 26.0091 22.7071 26.4565 23.2601 26.4565C23.8102 26.4565 24.2576 26.0091 24.2576 25.4589C24.2576 24.9064 23.8102 24.4565 23.2601 24.4565Z" fill="#D4D349"/>
<path d="M51.2578 42.4565H61.2578V56.4565H51.2578V42.4565Z" fill="#D4D349"/>
<path d="M18.2576 65.6994C18.2576 66.6684 19.0793 67.4565 20.0887 67.4565H63.4261C64.4355 67.4565 65.2572 66.6684 65.2572 65.6994L65.2576 31.4565H18.2579L18.2576 65.6994ZM49.0143 41.5981C49.0143 41.1399 49.3783 40.7683 49.828 40.7683H61.0531C61.5028 40.7683 61.8669 41.1399 61.8669 41.5981V57.1582C61.8669 57.6164 61.5028 57.988 61.0531 57.988L49.828 57.9883C49.3783 57.9883 49.0143 57.6168 49.0143 57.1586V41.5981ZM23.1407 40.9239H43.1815C43.6312 40.9239 43.9952 41.2955 43.9952 41.7537C43.9952 42.2119 43.6312 42.5834 43.1815 42.5834L23.1407 42.5838C22.691 42.5838 22.327 42.2122 22.327 41.754C22.3266 41.2955 22.6906 40.9239 23.1407 40.9239ZM23.1407 48.6264H43.1815C43.6312 48.6264 43.9952 48.998 43.9952 49.4562C43.9952 49.9144 43.6312 50.2859 43.1815 50.2859H23.1407C22.691 50.2859 22.327 49.9144 22.327 49.4562C22.3266 48.998 22.6906 48.6264 23.1407 48.6264ZM23.1407 56.3286H43.1815C43.6312 56.3286 43.9952 56.7001 43.9952 57.1583C43.9952 57.6165 43.6312 57.9881 43.1815 57.9881L23.1407 57.9884C22.691 57.9884 22.327 57.6169 22.327 57.1587C22.3266 56.7001 22.6906 56.3286 23.1407 56.3286Z" fill="#D4D349"/>
<path d="M31.7609 23.4565C30.9319 23.4565 30.2576 24.1309 30.2576 24.9601C30.2576 25.7851 30.9318 26.4565 31.7609 26.4565C32.5862 26.4565 33.2576 25.7851 33.2576 24.9601C33.258 24.1309 32.5862 23.4565 31.7609 23.4565Z" fill="#D4D349"/>
<path d="M38.7613 23.4565C37.9321 23.4565 37.2576 24.1309 37.2576 24.9601C37.2576 25.7851 37.932 26.4565 38.7613 26.4565C39.586 26.4565 40.2576 25.7851 40.2576 24.9601C40.2576 24.1309 39.586 23.4565 38.7613 23.4565Z" fill="#D4D349"/>
<path d="M63.426 20.4565H20.0887C19.0797 20.4565 18.2576 21.4777 18.2576 22.7326V29.4565H65.2572L65.2576 22.7326C65.2576 21.4777 64.4355 20.4565 63.4264 20.4565H63.426ZM22.978 27.9744C21.4551 27.9744 20.216 26.7451 20.216 25.2335C20.216 23.7191 21.4551 22.4873 22.978 22.4873C24.4974 22.4873 25.7343 23.7191 25.7343 25.2335C25.7343 26.7451 24.4977 27.9744 22.978 27.9744ZM30.7865 27.9744C29.1915 27.9744 27.8936 26.6866 27.8936 25.1036C27.8936 23.5175 29.1915 22.2269 30.7865 22.2269C32.3784 22.2269 33.6738 23.5176 33.6738 25.1036C33.6738 26.6866 32.3784 27.9744 30.7865 27.9744ZM38.4641 27.9744C36.8691 27.9744 35.5713 26.6866 35.5713 25.1036C35.5713 23.5175 36.8692 22.2269 38.4641 22.2269C40.0561 22.2269 41.3508 23.5176 41.3508 25.1036C41.3508 26.6866 40.056 27.9744 38.4641 27.9744Z" fill="#D4D349"/>
</g>
<defs>
<clipPath id="clip0_349_3289">
<rect x="14.2576" y="18.4565" width="55" height="52" rx="10" fill="white"/>
</clipPath>
</defs>
</svg>
