<svg width="85" height="90" viewBox="0 0 85 90" fill="none" xmlns="http://www.w3.org/2000/svg">
<rect x="0.255127" y="0.423828" width="84" height="89" rx="10" fill="#070707"/>
<g clip-path="url(#clip0_349_3199)">
<path d="M25.9785 34.4238C25.9785 35.2524 25.307 35.9238 24.4785 35.9238C23.65 35.9238 22.9785 35.2523 22.9785 34.4238C22.9785 33.5953 23.65 32.9238 24.4785 32.9238C25.307 32.9238 25.9785 33.5953 25.9785 34.4238Z" fill="#D4D349"/>
<path d="M34.978 29.9238V23.3084C35.0091 21.4735 33.522 19.9597 31.6536 19.9238H24.3034C22.435 19.9597 20.9478 21.4735 20.979 23.3084V28.5684C25.3988 25.7704 31.2 26.3318 34.978 29.9237V29.9238Z" fill="#D4D349"/>
<path d="M33.9785 36.9238C33.9785 37.4762 33.5309 37.9238 32.9785 37.9238C32.4262 37.9238 31.9785 37.4762 31.9785 36.9238C31.9785 36.3715 32.4262 35.9238 32.9785 35.9238C33.5309 35.9238 33.9785 36.3715 33.9785 36.9238Z" fill="#D4D349"/>
<path d="M28.9785 41.9238C28.9785 42.4762 28.5309 42.9238 27.9785 42.9238C27.4262 42.9238 26.9785 42.4762 26.9785 41.9238C26.9785 41.3715 27.4262 40.9238 27.9785 40.9238C28.5309 40.9238 28.9785 41.3715 28.9785 41.9238Z" fill="#D4D349"/>
<path d="M27.9785 51.8062H29.7285C31.1777 51.8079 32.3518 52.9693 32.3535 54.4028V56.1339C32.3518 57.5674 31.1777 58.7288 29.7285 58.7306H27.9785V63.9238H31.5312C33.4343 63.9215 34.9762 62.3963 34.9785 60.5138V46.9238C33.0815 48.7333 30.6062 49.8325 27.9785 50.031V51.8062Z" fill="#D4D349"/>
<path d="M36.9785 38.4238C36.9785 33.1772 32.7251 28.9238 27.4785 28.9238C22.2319 28.9238 17.9785 33.1772 17.9785 38.4238C17.9785 43.6704 22.2319 47.9238 27.4785 47.9238C32.7228 47.9178 36.9725 43.6681 36.9785 38.4238ZM22.2794 40.3235C22.2696 40.3778 22.2524 40.4301 22.2275 40.479C22.2086 40.5343 22.1823 40.5866 22.1495 40.6349C22.1155 40.6777 22.0807 40.7209 22.0463 40.7641C21.8807 40.922 21.6617 41.0114 21.433 41.0147C21.3196 41.0178 21.207 40.9942 21.1044 40.9456C21.0002 40.9017 20.9037 40.8403 20.8197 40.7644C20.7853 40.7209 20.7505 40.6777 20.7161 40.6349C20.6834 40.5866 20.6571 40.5343 20.6382 40.4793C20.6132 40.4301 20.596 40.3778 20.5866 40.3235C20.5764 40.2665 20.5707 40.2088 20.5694 40.1511C20.5724 39.9224 20.6621 39.7034 20.8197 39.5378C20.9037 39.4615 20.9998 39.4001 21.1044 39.3563C21.4262 39.2206 21.798 39.2925 22.0463 39.5378C22.1222 39.6218 22.1836 39.7182 22.2274 39.8225C22.272 39.9264 22.2953 40.0381 22.2966 40.1511C22.2949 40.2088 22.2892 40.2665 22.2794 40.3235ZM21.433 34.9693C21.433 33.0615 22.9798 31.5147 24.8875 31.5147C26.7953 31.5147 28.3421 33.0615 28.3421 34.9693C28.3421 36.8771 26.7953 38.4238 24.8875 38.4238C22.9805 38.4218 21.435 36.8764 21.433 34.9693ZM28.3421 44.4693C26.911 44.4693 25.7512 43.3094 25.7512 41.8784C25.7512 40.4473 26.911 39.2875 28.3421 39.2875C29.7731 39.2875 30.933 40.4473 30.933 41.8784C30.9313 43.3087 29.7724 44.4676 28.3421 44.4693ZM30.0694 36.6966C30.0694 35.2655 31.2292 34.1056 32.6603 34.1056C34.0913 34.1056 35.2512 35.2655 35.2512 36.6966C35.2512 38.1276 34.0913 39.2875 32.6603 39.2875C31.2299 39.2858 30.0711 38.1269 30.0694 36.6966Z" fill="#D4D349"/>
<path d="M17.9785 43.9238V64.4761C17.9785 66.9324 19.9933 68.9238 22.4785 68.9238C24.9637 68.9238 26.9785 66.9324 26.9785 64.4761V49.3083C23.285 49.0241 19.9462 47.0268 17.9785 43.9241V43.9238Z" fill="#D4D349"/>
<path d="M30.9785 55.1738V53.6738C30.9777 53.2599 30.5207 52.9244 29.9567 52.9238H27.9785V55.9238H29.9567C30.5207 55.9232 30.9777 55.5878 30.9785 55.1738Z" fill="#D4D349"/>
<path d="M59.2422 19.9238H51.9876C50.1426 19.9597 48.6744 21.5019 48.7058 23.3712V30.1086C52.4357 26.4521 58.16 25.8792 62.524 28.7264V23.3712C62.5553 21.5019 61.0871 19.9597 59.2422 19.9238ZM55.6149 40.9238C55.1379 40.9238 54.7512 41.3155 54.7512 41.7988C54.7512 42.2821 55.1379 42.6738 55.6149 42.6738C56.0919 42.6738 56.4785 42.2821 56.4785 41.7988C56.4772 41.3162 56.0912 40.9252 55.6149 40.9238ZM59.0694 33.0488C58.1154 33.0488 57.3422 33.8322 57.3422 34.7988C57.3422 35.7654 58.1154 36.5488 59.0694 36.5488C60.0235 36.5488 60.7967 35.7654 60.7967 34.7988C60.794 33.8336 60.0221 33.0515 59.0694 33.0488ZM55.6149 40.9238C55.1379 40.9238 54.7512 41.3155 54.7512 41.7988C54.7512 42.2821 55.1379 42.6738 55.6149 42.6738C56.0919 42.6738 56.4785 42.2821 56.4785 41.7988C56.4772 41.3162 56.0912 40.9252 55.6149 40.9238ZM59.0694 33.0488C58.1154 33.0488 57.3422 33.8322 57.3422 34.7988C57.3422 35.7654 58.1154 36.5488 59.0694 36.5488C60.0235 36.5488 60.7967 35.7654 60.7967 34.7988C60.794 33.8336 60.0221 33.0515 59.0694 33.0488ZM55.6149 40.9238C55.1379 40.9238 54.7512 41.3155 54.7512 41.7988C54.7512 42.2821 55.1379 42.6738 55.6149 42.6738C56.0919 42.6738 56.4785 42.2821 56.4785 41.7988C56.4772 41.3162 56.0912 40.9252 55.6149 40.9238ZM51.2967 35.6738C50.8197 35.6738 50.4331 36.0655 50.4331 36.5488C50.4331 37.0321 50.8197 37.4238 51.2967 37.4238C51.7737 37.4238 52.1603 37.0321 52.1603 36.5488C52.159 36.0662 51.773 35.6752 51.2967 35.6738ZM56.4785 28.6738C51.2319 28.6738 46.9785 32.9832 46.9785 38.2988C46.9785 43.6144 51.2319 47.9238 56.4785 47.9238C61.7251 47.9238 65.9785 43.6144 65.9785 38.2988C65.9755 32.9846 61.7237 28.6773 56.4785 28.6738ZM48.7058 36.5488C48.7058 35.0989 49.8657 33.9238 51.2967 33.9238C52.7277 33.9238 53.8876 35.0989 53.8876 36.5488C53.8876 37.9987 52.7277 39.1738 51.2967 39.1738C49.8676 39.1697 48.7098 37.9967 48.7058 36.5488ZM55.6149 44.4238C54.1838 44.4238 53.024 43.2487 53.024 41.7988C53.024 40.3489 54.1838 39.1738 55.6149 39.1738C57.0459 39.1738 58.2058 40.3489 58.2058 41.7988C58.2017 43.2467 57.0439 44.4197 55.6149 44.4238ZM59.0694 38.2988C57.1617 38.2988 55.6149 36.7317 55.6149 34.7988C55.6149 32.8659 57.1617 31.2988 59.0694 31.2988C60.9772 31.2988 62.524 32.8659 62.524 34.7988C62.5243 35.7271 62.1603 36.6175 61.5126 37.2741C60.8645 37.9304 59.9857 38.2992 59.0694 38.2988ZM63.1373 40.6702C62.9717 40.8299 62.7527 40.9204 62.524 40.9238C62.411 40.9225 62.2997 40.8989 62.1958 40.8538C62.0912 40.8093 61.9947 40.7475 61.9107 40.6702C61.7531 40.5024 61.6637 40.2806 61.6604 40.0488C61.6617 39.9343 61.685 39.8215 61.7295 39.7163C61.8081 39.4965 61.9788 39.3235 62.1958 39.2439C62.5173 39.1065 62.889 39.179 63.1373 39.4275C63.2135 39.5126 63.2746 39.6103 63.3185 39.7163C63.363 39.8216 63.3863 39.9343 63.3876 40.0488C63.3842 40.2806 63.2949 40.5024 63.1373 40.6702ZM55.6149 40.9238C55.1379 40.9238 54.7512 41.3155 54.7512 41.7988C54.7512 42.2821 55.1379 42.6738 55.6149 42.6738C56.0919 42.6738 56.4785 42.2821 56.4785 41.7988C56.4772 41.3162 56.0912 40.9252 55.6149 40.9238ZM59.0694 33.0488C58.1154 33.0488 57.3422 33.8322 57.3422 34.7988C57.3422 35.7654 58.1154 36.5488 59.0694 36.5488C60.0235 36.5488 60.7967 35.7654 60.7967 34.7988C60.794 33.8336 60.0221 33.0515 59.0694 33.0488ZM55.6149 40.9238C55.1379 40.9238 54.7512 41.3155 54.7512 41.7988C54.7512 42.2821 55.1379 42.6738 55.6149 42.6738C56.0919 42.6738 56.4785 42.2821 56.4785 41.7988C56.4772 41.3162 56.0912 40.9252 55.6149 40.9238ZM53.8876 51.4238H55.6149V49.6301C53.0213 49.4288 50.5785 48.3179 48.7058 46.489V60.2265C48.7095 62.1289 50.2306 63.6701 52.1083 63.6738H55.6149V58.4238H53.8876C52.4585 58.4197 51.3008 57.2467 51.2967 55.7988V54.0488C51.3007 52.601 52.4585 51.428 53.8876 51.4238ZM53.8876 53.1738C53.4113 53.1752 53.0253 53.5662 53.024 54.0488V55.7988C53.0253 56.2814 53.4113 56.6725 53.8876 56.6738H55.5629V53.1738H53.8876ZM53.8876 53.1738C53.4113 53.1752 53.0253 53.5662 53.024 54.0488V55.7988C53.0253 56.2814 53.4113 56.6725 53.8876 56.6738H55.5629V53.1738H53.8876ZM53.8876 53.1738C53.4113 53.1752 53.0253 53.5662 53.024 54.0488V55.7988C53.0253 56.2814 53.4113 56.6725 53.8876 56.6738H55.5629V53.1738H53.8876ZM57.3422 49.6301V64.5488C57.3422 66.965 59.2756 68.9238 61.6603 68.9238C64.0451 68.9238 65.9785 66.965 65.9785 64.5488V44.3363C64.0903 47.3876 60.8861 49.3515 57.3422 49.6301ZM53.024 54.0488V55.7988C53.0253 56.2814 53.4113 56.6725 53.8876 56.6738H55.5629V53.1738H53.8876C53.4113 53.1752 53.0253 53.5662 53.024 54.0488ZM53.8876 53.1738C53.4113 53.1752 53.0253 53.5662 53.024 54.0488V55.7988C53.0253 56.2814 53.4113 56.6725 53.8876 56.6738H55.5629V53.1738H53.8876Z" fill="#D4D349"/>
</g>
<defs>
<clipPath id="clip0_349_3199">
<rect x="14.9785" y="19.9238" width="55" height="50" rx="10" fill="white"/>
</clipPath>
</defs>
</svg>
