<svg width="85" height="90" viewBox="0 0 85 90" fill="none" xmlns="http://www.w3.org/2000/svg">
<rect x="0.400146" y="0.787598" width="84" height="89" rx="10" fill="#070707"/>
<g clip-path="url(#clip0_349_3248)">
<path d="M46.6608 34.8267H46.6622C47.6275 34.8267 48.5361 35.2091 49.2185 35.9049C49.9005 36.6011 50.2775 37.5263 50.2775 38.5105V40.5455C50.2775 42.5767 48.656 44.2293 46.6615 44.23C45.9153 44.23 45.1783 44.1086 44.4706 43.8672L44.1237 43.75V52.0659H54.1236V45.8172L64.1235 53.2876V43.7497L63.775 43.8679C63.0683 44.1079 62.332 44.2293 61.5864 44.2293C59.5919 44.2293 57.9697 42.5767 57.9697 40.5455V38.5095C57.9697 36.4783 59.5919 34.8257 61.5857 34.8257C62.3326 34.8257 63.0696 34.9471 63.7774 35.1885L64.1235 35.3061V29.3403C64.1235 28.9079 63.7787 28.5567 63.3543 28.5567H55.3636L56.3014 25.6933C56.3873 25.4292 56.4312 25.1542 56.4312 24.875C56.4312 23.448 55.2922 22.2876 53.8914 22.2876H52.8176C51.4164 22.2876 50.2774 23.448 50.2774 24.876C50.2774 25.1541 50.3213 25.4291 50.4075 25.6932L51.345 28.5566H44.8928C44.4683 28.5566 44.1235 28.9079 44.1235 29.3403V35.306L44.4711 35.1885C45.1788 34.9478 45.9151 34.8264 46.6606 34.8264L46.6608 34.8267Z" fill="#D4D349"/>
<path d="M25.5327 49.6309C25.8823 49.9792 26.2825 49.8488 26.3985 49.804C26.5126 49.7557 26.8884 49.5633 26.8884 49.0737V47.5508H33.2413V49.0737C33.2413 49.5633 33.6171 49.7557 33.7312 49.804C33.8465 49.8498 34.2474 49.9792 34.597 49.632L35.681 48.556L39.4353 52.2876H42.7706V41.7195L45.2196 42.5295C45.7882 42.718 46.3799 42.8135 46.9787 42.8135C48.161 42.8139 49.1235 41.857 49.1235 40.6816V38.6314C49.1235 38.0615 48.9005 37.5262 48.4953 37.1237C48.0905 36.7201 47.5519 36.4991 46.9794 36.4991H46.978C46.38 36.4991 45.7883 36.5946 45.22 36.7825L42.7707 37.5945V29.3929C42.7707 28.9573 42.4147 28.6034 41.9766 28.6034H33.7273L34.6955 25.7186C34.7841 25.4526 34.8295 25.1755 34.8295 24.8943C34.8295 23.4566 33.6536 22.2876 32.2075 22.2876H31.0989C29.6524 22.2876 28.4765 23.4566 28.4765 24.8953C28.4765 25.1755 28.5219 25.4525 28.6109 25.7186L29.5787 28.6033H22.9176C22.4795 28.6033 22.1235 28.9572 22.1235 29.3928V50.8664L24.4488 48.5547L25.5327 49.6309ZM38.8003 37.2882C39.6778 37.2882 40.3886 37.9948 40.3886 38.8671C40.3886 39.7394 39.6778 40.446 38.8003 40.446C37.9229 40.446 37.2121 39.7394 37.2121 38.8671C37.2121 37.9948 37.9229 37.2882 38.8003 37.2882ZM32.4474 37.2882C33.3248 37.2882 34.0356 37.9948 34.0356 38.8671C34.0356 39.7394 33.3248 40.446 32.4474 40.446C31.57 40.446 30.8592 39.7394 30.8592 38.8671C30.8592 37.9948 31.57 37.2882 32.4474 37.2882ZM26.0945 37.2882C26.9719 37.2882 27.6827 37.9948 27.6827 38.8671C27.6827 39.7394 26.9719 40.446 26.0945 40.446C25.2171 40.446 24.5063 39.7394 24.5063 38.8671C24.5063 37.9948 25.2171 37.2882 26.0945 37.2882Z" fill="#D4D349"/>
<path d="M65.1235 56.6207L55.373 49.2876V54.1483H38.5867L38.3571 54.3845C38.0119 54.7377 38.1383 55.1461 38.1847 55.2639C38.2321 55.3798 38.4238 55.7615 38.9115 55.7615H40.4288V60.6013H55.3732V65.2876L65.1235 56.6207Z" fill="#D4D349"/>
<path d="M36.986 55.7373C36.6187 54.8506 36.8022 53.8794 37.4624 53.1898L35.2219 50.9494C34.5338 51.6089 33.5633 51.7934 32.6744 51.4259C31.7869 51.0586 31.2295 50.2422 31.2084 49.2876H28.0401C28.0196 50.2422 27.4623 51.0586 26.5741 51.4259C25.6859 51.7931 24.7168 51.6096 24.0266 50.9494L21.7861 53.1906C22.4463 53.8801 22.6294 54.8516 22.2626 55.7381C21.8946 56.6259 21.0782 57.1832 20.1235 57.2037V60.3719C21.0782 60.3924 21.8946 60.9497 22.2618 61.8379C22.6291 62.7246 22.4456 63.6958 21.7854 64.3854L24.0259 66.6258C24.7154 65.9663 25.686 65.7835 26.5734 66.1493C27.4609 66.5166 28.0183 67.333 28.0394 68.2876H31.2076C31.2281 67.333 31.7855 66.5166 32.6737 66.1493C33.5619 65.7821 34.531 65.9648 35.2212 66.6258L37.4617 64.3854C36.8014 63.6958 36.6184 62.7243 36.9852 61.8379C37.3525 60.9504 38.1689 60.393 39.1235 60.3719V57.2037C38.1696 57.1832 37.3532 56.6258 36.986 55.7373ZM29.6239 64.3295C26.5632 64.3295 24.0821 61.8485 24.0821 58.7878C24.0821 55.7271 26.5632 53.246 29.6239 53.246C32.6847 53.246 35.1658 55.7271 35.1658 58.7878C35.1658 61.8485 32.6847 64.3295 29.6239 64.3295Z" fill="#D4D349"/>
<path d="M32.1235 58.7876C32.1235 60.1682 31.0041 61.2876 29.6235 61.2876C28.243 61.2876 27.1235 60.1682 27.1235 58.7876C27.1235 57.407 28.243 56.2876 29.6235 56.2876C31.0041 56.2876 32.1235 57.407 32.1235 58.7876Z" fill="#D4D349"/>
</g>
<defs>
<clipPath id="clip0_349_3248">
<rect x="15.1235" y="20.2876" width="55" height="49" rx="10" fill="white"/>
</clipPath>
</defs>
</svg>
