<svg width="85" height="90" viewBox="0 0 85 90" fill="none" xmlns="http://www.w3.org/2000/svg">
<rect x="0.814453" y="0.228516" width="84" height="89" rx="10" fill="#070707"/>
<g clip-path="url(#clip0_349_3509)">
<path d="M43.5381 22.7285H45.5381V24.7285H43.5381V22.7285Z" fill="#D4D349"/>
<path d="M46.5381 22.7285H48.5381V24.7285H46.5381V22.7285Z" fill="#D4D349"/>
<path d="M40.5381 22.7285H42.5381V24.7285H40.5381V22.7285Z" fill="#D4D349"/>
<path d="M20.5381 40.7285H22.5381V42.7285H20.5381V40.7285Z" fill="#D4D349"/>
<path d="M25.5381 37.7285H27.5381V39.7285H25.5381V37.7285Z" fill="#D4D349"/>
<path d="M22.0938 28.6175H25.2048V30.1732L23.6492 30.1728V31.7285H31.427V30.1728H29.8713V28.6171H32.9824C33.8402 28.6171 34.5381 27.9195 34.5381 27.0614V19.2842C34.5381 18.4265 33.8405 17.7285 32.9824 17.7285H22.0938C21.2357 17.7285 20.5381 18.4262 20.5381 19.2842V27.0621C20.5381 27.9199 21.2357 28.6175 22.0938 28.6175ZM22.0938 25.5064H32.9833V27.062L22.0938 27.0617V25.5064Z" fill="#D4D349"/>
<path d="M65.5381 40.7285H67.5381V42.7285H65.5381V40.7285Z" fill="#D4D349"/>
<path d="M61.5381 37.7285H63.5381V39.7285H61.5381V37.7285Z" fill="#D4D349"/>
<path d="M66.0221 51.8871H61.4736L61.4739 44.198H56.9254V42.66H64.5062V41.122L56.9254 41.1224V39.5844H59.9577V38.0464H56.9254V35.2643L44.0382 28.7285L31.151 35.2643V38.0467H28.1188V39.5847H31.151V41.1227L23.5703 41.1224V42.6604H31.151V44.1983L26.6025 44.198V51.8874L22.0543 51.8871C21.2183 51.8871 20.5381 52.5768 20.5381 53.4251V61.1145C20.5381 61.9625 21.218 62.6525 22.0543 62.6525H25.0866V64.1905L23.5703 64.1898V65.7278H31.1511V64.1898H29.6348V62.6518H32.6671C33.5031 62.6518 34.1833 61.9621 34.1833 61.1138V53.4251C34.1833 52.5771 33.5034 51.8871 32.6671 51.8871H28.1186V45.7357H31.1508V48.5178L37.5694 51.7734C37.4868 51.8442 37.3885 51.8871 37.2829 51.8871H35.6994V56.5008H37.2829C37.4717 56.5008 37.6461 56.6298 37.7363 56.849C37.8205 57.0558 37.7887 57.2696 37.6537 57.4073L36.5311 58.5459L39.7483 61.8092L40.8701 60.6712C41.0065 60.5329 41.218 60.5013 41.4386 60.5934C41.6396 60.6779 41.7645 60.8511 41.7645 61.0457L41.7648 62.6522H46.3133V61.0467C46.3133 60.8522 46.4386 60.6783 46.6566 60.5868C46.8605 60.5 47.0703 60.5329 47.2077 60.6713L48.3296 61.8092L51.5467 58.546L50.4242 57.408C50.2884 57.2697 50.2566 57.0559 50.3484 56.8314C50.4304 56.6309 50.6055 56.5008 50.7943 56.5008H52.3768V51.8871H50.7933C50.6894 51.8871 50.591 51.8449 50.5074 51.7724L56.925 48.5178V45.7357H59.9573V51.8872H55.4088C54.5728 51.8872 53.8925 52.5769 53.8925 53.4252V61.1146C53.8925 61.9625 54.5725 62.6525 55.4088 62.6525H58.441V64.1905H56.9248V65.7285H64.5055V64.1905H62.9893V62.6525H66.0215C66.8575 62.6525 67.5378 61.9628 67.5378 61.1146L67.5381 53.4252C67.5381 52.5768 66.8581 51.8872 66.0218 51.8872L66.0221 51.8871ZM32.6681 59.5765V61.1145L22.0545 61.1141V59.5762L32.6681 59.5765ZM32.6674 47.567V36.2147L43.2802 30.8321V34.9706H41.5118C38.3065 34.9706 35.6994 37.615 35.6994 40.866C35.6994 42.7113 36.5683 44.4744 38.0245 45.5818L38.7317 46.1199V48.0423C38.7317 49.314 39.7519 50.3492 41.006 50.3492C41.5905 50.3492 42.1187 50.1177 42.5222 49.7493C42.7412 49.9492 42.9989 50.1038 43.2802 50.2082V52.9504L32.6674 47.567ZM42.5223 41.8908C42.5223 42.7404 41.844 43.4288 41.0061 43.4288C40.1684 43.4288 39.4898 42.7407 39.4898 41.8908C39.4898 41.0411 40.1681 40.3528 41.0061 40.3528C41.844 40.3528 42.5223 41.0412 42.5223 41.8908ZM44.0386 56.5002C42.7848 56.5002 41.7643 55.4653 41.7643 54.1933C41.7643 54.0988 41.7846 54.0081 41.7961 53.9156L44.0386 55.0529L46.281 53.9156C46.2922 54.0081 46.3128 54.0988 46.3128 54.1933C46.3128 55.4652 45.2923 56.5002 44.0386 56.5002ZM55.4092 47.5665L44.7964 52.9491V50.2069C45.0777 50.1032 45.3354 49.9485 45.5544 49.748C45.9577 50.1171 46.4862 50.3479 47.0707 50.3479C48.3244 50.3479 49.345 49.3131 49.345 48.041V46.1186L50.0521 45.5802C51.5085 44.4738 52.3772 42.7107 52.3772 40.8654C52.3772 37.6144 49.7702 34.97 46.5651 34.97H44.7964V30.8315L55.4092 36.2141V47.5665ZM45.5543 41.8903C45.5543 41.0406 46.2326 40.3523 47.0706 40.3523C47.9082 40.3523 48.5868 41.0403 48.5868 41.8903C48.5868 42.7399 47.9085 43.4283 47.0706 43.4283C46.2326 43.4283 45.5543 42.7399 45.5543 41.8903ZM66.0219 61.1129H55.4092V59.575H66.0219V61.1129Z" fill="#D4D349"/>
<path d="M65.9824 17.7285H55.0938C54.236 17.7285 53.5381 18.4261 53.5381 19.2841V27.0617C53.5381 27.9194 54.2357 28.6173 55.0938 28.6173H58.2048V30.1729H56.6492V31.7285H64.427V30.1729H62.8713V28.6173H65.9824C66.8402 28.6173 67.5381 27.9197 67.5381 27.0617V19.2841C67.5381 18.4261 66.8405 17.7285 65.9824 17.7285ZM65.9824 27.0617H55.0938V25.5061H65.9824V27.0617Z" fill="#D4D349"/>
<path d="M41.5381 63.7285H43.5381V65.7285H41.5381V63.7285Z" fill="#D4D349"/>
<path d="M38.5381 63.7285H40.5381V65.7285H38.5381V63.7285Z" fill="#D4D349"/>
<path d="M44.5381 63.7285H46.5381V65.7285H44.5381V63.7285Z" fill="#D4D349"/>
<path d="M47.5381 63.7285H49.5381V65.7285H47.5381V63.7285Z" fill="#D4D349"/>
</g>
<defs>
<clipPath id="clip0_349_3509">
<rect x="16.5381" y="17.7285" width="55" height="51" rx="10" fill="white"/>
</clipPath>
</defs>
</svg>
