<svg width="85" height="90" viewBox="0 0 85 90" fill="none" xmlns="http://www.w3.org/2000/svg">
<rect x="0.630127" y="0.592529" width="84" height="89" rx="10" fill="#070707"/>
<g clip-path="url(#clip0_349_3356)">
<path fill-rule="evenodd" clip-rule="evenodd" d="M38.589 59.7251C38.589 60.157 38.2339 60.5065 37.796 60.5065C37.358 60.5065 37.0029 60.157 37.0029 59.7251V55.2915C37.0029 54.86 37.358 54.5101 37.796 54.5101C38.2339 54.5101 38.589 54.86 38.589 55.2915V59.7251ZM36.0182 59.7251C36.0073 60.1492 35.6552 60.4868 35.2251 60.4868C34.7947 60.4868 34.443 60.1492 34.4317 59.7251V57.412C34.443 56.9882 34.7947 56.6502 35.2251 56.6502C35.6552 56.6502 36.0073 56.9882 36.0182 57.412V59.7254V59.7251ZM33.447 59.7251C33.4357 60.1492 33.084 60.4868 32.6535 60.4868C32.2235 60.4868 31.8718 60.1492 31.8605 59.7251V51.6843C31.8718 51.2606 32.2235 50.9225 32.6535 50.9225C33.084 50.9225 33.4357 51.2606 33.447 51.6843V59.7251ZM30.8758 59.7251C30.8645 60.1492 30.5128 60.4868 30.0823 60.4868C29.6523 60.4868 29.3002 60.1492 29.2893 59.7251V56.5333V56.5337C29.2836 56.323 29.3646 56.1185 29.5141 55.9675C29.6632 55.8165 29.8684 55.7315 30.0823 55.7315C30.2966 55.7315 30.5014 55.8165 30.6509 55.9675C30.8001 56.1185 30.8814 56.323 30.8757 56.5337V59.7255L30.8758 59.7251ZM61.0937 49.3687H47.5889V62.6782H61.0937V49.3687ZM46.7945 47.8055H61.8862C62.3241 47.8055 62.6796 48.1554 62.6796 48.5869V63.4571C62.6796 63.6645 62.596 63.8634 62.4472 64.0099C62.2985 64.1565 62.0967 64.2389 61.8862 64.2389H46.7945C46.3566 64.2385 46.0015 63.8886 46.0015 63.4571V48.5869C46.0015 48.1554 46.3566 47.8055 46.7945 47.8055ZM21.9095 67.0925V25.477H18.3535V67.0925H21.9095ZM23.4989 25.477V67.0925H65.3535V25.477H23.4989ZM37.3026 39.0363C36.5476 39.7747 35.5162 40.1725 34.4528 40.1353C33.3898 40.0982 32.3897 39.6292 31.6896 38.84C30.9895 38.0508 30.6521 37.0111 30.7572 35.9682C30.8623 34.9252 31.4004 33.9713 32.2443 33.3331L33.2701 36.498C33.3752 36.8204 33.6794 37.039 34.0232 37.039V37.0423H38.3643L38.3639 37.042C38.2223 37.797 37.8514 38.4916 37.3001 39.0341L37.3026 39.0363ZM34.0035 33.6421C34.6791 33.5015 35.384 33.6117 35.9823 33.9508C36.5811 34.29 37.0319 34.8347 37.2484 35.481H34.5989L34.005 33.6421H34.0035ZM40.0109 36.3177V36.3537C40.0101 37.6457 39.5356 38.8935 38.6748 39.8678C37.814 40.8418 36.6248 41.4767 35.3264 41.6547C34.028 41.8332 32.7078 41.543 31.6093 40.8377C30.5112 40.1327 29.7083 39.06 29.3495 37.8174C28.9903 36.5752 29.0991 35.2469 29.6561 34.0773C30.2126 32.9078 31.1797 31.9761 32.3786 31.4537C32.7793 31.28 33.247 31.4589 33.4232 31.8537C33.4428 31.8978 33.4583 31.9431 33.4696 31.9898L33.5196 32.146L33.6277 32.1212C33.9395 32.054 34.2573 32.0203 34.5763 32.0203C35.5877 32.0225 36.5672 32.3672 37.3512 32.9968C38.1348 33.6261 38.6752 34.5022 38.8816 35.4776H39.2186C39.6565 35.4779 40.0117 35.8278 40.0117 36.2597V36.3128L40.0109 36.3177ZM57.9627 39.148V40.1183H50.7176V39.148H57.9627ZM49.9245 37.5848H58.7557C58.9662 37.5848 59.1681 37.6672 59.3168 37.8138C59.4655 37.9603 59.5488 38.1592 59.5488 38.3666V40.9001C59.5488 41.3316 59.1937 41.6815 58.7557 41.6815H49.9245C49.4861 41.6815 49.131 41.332 49.1307 40.9001V38.3689C49.1307 37.937 49.4861 37.5868 49.9245 37.5868L49.9245 37.5848ZM57.9627 32.9799V33.9502H50.7176V32.9799H57.9627ZM49.9245 31.4167H58.7557C58.9662 31.4167 59.1681 31.4991 59.3168 31.6456C59.4655 31.7922 59.5488 31.9911 59.5488 32.1985V34.732C59.5488 34.9394 59.4655 35.1383 59.3168 35.2848C59.1681 35.4314 58.9662 35.5138 58.7557 35.5134H49.9245C49.714 35.5137 49.5121 35.4314 49.3634 35.2848C49.2143 35.1383 49.1307 34.9394 49.1307 34.732V32.1985C49.131 31.767 49.4862 31.4171 49.9245 31.4171V31.4167ZM61.0926 29.8954V43.203H47.5877V29.8954H61.0926ZM46.7934 28.3318H61.885C62.0955 28.3318 62.2973 28.4142 62.4461 28.5611C62.5948 28.7077 62.6784 28.9066 62.6784 29.114V43.9841C62.6784 44.416 62.3229 44.7655 61.885 44.7655H46.7934C46.3554 44.7655 46.0003 44.4157 46.0003 43.9841V29.113C46.0003 28.6815 46.3554 28.3316 46.7934 28.3312V28.3318ZM19.7296 62.2344C19.5157 62.24 19.3086 62.1599 19.1554 62.0129C19.0017 61.8656 18.9155 61.6638 18.9155 61.4527C18.9155 61.2419 19.0017 61.0397 19.1554 60.8928C19.3086 60.7455 19.5158 60.6657 19.7296 60.6709H20.5317C20.9618 60.682 21.3048 61.0289 21.3048 61.4527C21.3048 61.8768 20.9618 62.2233 20.5317 62.2345L19.7296 62.2344ZM19.7296 57.1812C19.2917 57.1812 18.9366 56.8314 18.9366 56.3998C18.9366 55.9683 19.2917 55.6184 19.7296 55.6184H20.5317C20.9697 55.6184 21.3248 55.9683 21.3248 56.3998C21.3248 56.8314 20.9697 57.1812 20.5317 57.1812H19.7296ZM19.7296 52.1281V52.1277C19.5157 52.1332 19.3086 52.0535 19.1554 51.9062C19.0017 51.7589 18.9155 51.557 18.9155 51.3463C18.9155 51.1351 19.0017 50.9333 19.1554 50.786C19.3086 50.6391 19.5158 50.5589 19.7296 50.5645H20.5317C20.9618 50.5756 21.3048 50.9222 21.3048 51.3463C21.3048 51.77 20.9618 52.1169 20.5317 52.1277L19.7296 52.1281ZM19.7296 47.0749V47.0745C19.2917 47.0745 18.9366 46.7246 18.9366 46.2931C18.9366 45.8615 19.2917 45.5117 19.7296 45.5117H20.5317C20.9697 45.5117 21.3248 45.8615 21.3248 46.2931C21.3248 46.7246 20.9697 47.0745 20.5317 47.0745L19.7296 47.0749ZM19.7296 42.0217V42.0213C19.5157 42.0269 19.3086 41.9467 19.1554 41.7998C19.0017 41.6525 18.9155 41.4506 18.9155 41.2395C18.9155 41.0288 19.0017 40.8269 19.1554 40.6796C19.3086 40.5323 19.5158 40.4525 19.7296 40.4581H20.5317C20.9618 40.4689 21.3048 40.8158 21.3048 41.2395C21.3048 41.6636 20.9618 42.0102 20.5317 42.0213L19.7296 42.0217ZM19.7296 36.9658V36.9654C19.2917 36.9654 18.9366 36.6156 18.9366 36.184C18.9366 35.7525 19.2917 35.4026 19.7296 35.4026H20.5317C20.9697 35.4026 21.3248 35.7525 21.3248 36.184C21.3248 36.6156 20.9697 36.9654 20.5317 36.9654L19.7296 36.9658ZM19.7296 31.9126V31.9119C19.5157 31.9174 19.3086 31.8377 19.1554 31.6904C19.0017 31.5434 18.9155 31.3412 18.9155 31.1305C18.9155 30.9193 19.0017 30.7175 19.1554 30.5702C19.3086 30.4233 19.5158 30.3431 19.7296 30.3487H20.5317C20.9618 30.3598 21.3048 30.7064 21.3048 31.1305C21.3048 31.5542 20.9618 31.9011 20.5317 31.9119L19.7296 31.9126ZM57.4978 52.8933C57.2839 52.8988 57.0768 52.8191 56.9235 52.6718C56.7699 52.5245 56.6836 52.3226 56.6836 52.1119C56.6836 51.9007 56.7699 51.6989 56.9235 51.5516C57.0768 51.4047 57.2839 51.3245 57.4978 51.3301H59.7895C60.2196 51.3412 60.5622 51.6878 60.5622 52.1119C60.5622 52.5356 60.2196 52.8825 59.7895 52.8933L57.4978 52.8933ZM48.8894 52.8933C48.4594 52.8825 48.1167 52.5356 48.1167 52.1118C48.1167 51.6878 48.4594 51.3412 48.8894 51.3301H55.122C55.552 51.3412 55.8947 51.6877 55.8947 52.1118C55.8947 52.5356 55.552 52.8825 55.122 52.8933H48.8894ZM57.4978 56.8041C57.2839 56.8096 57.0768 56.7298 56.9235 56.5825C56.7699 56.4352 56.6836 56.2334 56.6836 56.0223C56.6836 55.8115 56.7699 55.6097 56.9235 55.4624C57.0768 55.3151 57.2839 55.2353 57.4978 55.2409H59.7895C60.2196 55.252 60.5622 55.5986 60.5622 56.0223C60.5622 56.4464 60.2196 56.7929 59.7895 56.8041L57.4978 56.8041ZM48.8894 56.8041C48.4594 56.7929 48.1167 56.4464 48.1167 56.0223C48.1167 55.5985 48.4594 55.252 48.8894 55.2409H55.122C55.552 55.252 55.8947 55.5985 55.8947 56.0223C55.8947 56.4464 55.552 56.7929 55.122 56.8041H48.8894ZM57.4978 60.7141V60.7145C57.2839 60.7196 57.0768 60.6399 56.9235 60.4926C56.7699 60.3456 56.6836 60.1434 56.6836 59.9327C56.6836 59.7216 56.7699 59.5197 56.9235 59.3724C57.0768 59.2255 57.2839 59.1453 57.4978 59.1509H59.7895C60.2196 59.162 60.5622 59.5086 60.5622 59.9327C60.5622 60.3564 60.2196 60.7033 59.7895 60.7145L57.4978 60.7141ZM48.8894 60.7141V60.7145C48.4594 60.7033 48.1167 60.3564 48.1167 59.9327C48.1167 59.5086 48.4594 59.162 48.8894 59.1509H55.122C55.552 59.162 55.8947 59.5086 55.8947 59.9327C55.8947 60.3564 55.552 60.7033 55.122 60.7145L48.8894 60.7141ZM41.3317 49.3689H27.824V62.6784H41.3298V49.3689H41.3317ZM27.0306 47.8057C26.5927 47.8057 26.2375 48.1556 26.2375 48.5871V63.4573C26.2375 63.6643 26.3208 63.8632 26.4695 64.0101C26.6183 64.1567 26.8201 64.239 27.0306 64.239H42.1222C42.5602 64.2387 42.9153 63.8888 42.9153 63.4573V48.5871C42.9153 48.3797 42.8317 48.1812 42.6829 48.0346C42.5342 47.8881 42.3324 47.8057 42.1222 47.8057H27.0306ZM41.3298 29.896V43.2036H27.824V29.896H41.3298ZM27.0306 28.3324H42.1222C42.5602 28.3328 42.9153 28.6827 42.9153 29.1145V43.9847C42.9153 44.1921 42.8317 44.391 42.6829 44.5376C42.5342 44.6837 42.3324 44.7661 42.1222 44.7661H27.0306C26.5927 44.7661 26.2375 44.4162 26.2375 43.9847V29.1136C26.2375 28.9062 26.3208 28.7073 26.4695 28.5607C26.6182 28.4142 26.8201 28.3318 27.0306 28.3318L27.0306 28.3324ZM61.2994 23.9148L59.6135 22.0925H24.0915L22.4067 23.9158L61.2994 23.9148Z" fill="#D4D349"/>
</g>
<defs>
<clipPath id="clip0_349_3356">
<rect x="15.3535" y="18.0925" width="55" height="52" rx="10" fill="white"/>
</clipPath>
</defs>
</svg>
