<svg width="134" height="135" viewBox="0 0 134 135" fill="none" xmlns="http://www.w3.org/2000/svg">
<g clip-path="url(#clip0_81_1905)">
<path d="M15.7979 105.696H12.8501V102.748H15.9944V105.696H15.7979ZM58.2406 105.696H55.2929L55.0973 102.748H58.2416L58.2406 105.696ZM100.683 105.696H97.7356L97.5391 102.748H100.683L100.683 105.696ZM119.35 97.6392H109.525V93.3166C109.525 88.7975 105.988 85.2602 101.468 85.2602H67.082V79.169H68.6542C70.0298 79.169 71.0124 78.1864 71.2089 77.0073L72.388 70.9162C75.7279 70.1301 78.8722 68.951 81.6234 66.9867L86.7319 70.5231C87.7145 71.3092 89.2866 71.1127 90.0718 70.1301L94.3943 65.8075C95.3769 64.8249 95.3769 63.4494 94.7874 62.4676L91.2509 57.3592C93.0196 54.4114 94.3952 51.2681 94.9839 48.1238L101.075 46.9447C102.254 46.7481 103.237 45.569 103.237 44.39V38.1023C103.237 36.7267 102.254 35.7441 101.075 35.5476L94.9839 34.3685C94.1978 31.0286 93.0187 27.8843 91.2509 25.1331L94.7874 20.0246C95.5735 19.042 95.3769 17.4699 94.3943 16.6847L90.2674 12.1656C89.4813 11.183 87.9092 11.183 86.9275 11.7726L81.819 15.309C78.8712 13.5404 75.7279 12.1647 72.5836 11.3795L71.4045 5.28841C71.208 4.10931 70.0288 3.12671 68.8498 3.12671H62.5621C61.1865 3.12671 60.204 4.10931 60.0074 5.28841L58.8292 11.5761C55.4893 12.3622 52.3451 13.5413 49.5938 15.5056L44.4854 11.9691C43.5028 11.183 41.9307 11.3796 41.1455 12.3622L36.8229 16.6847C35.8403 17.4708 35.8403 19.0429 36.4299 20.0246L39.9663 25.1331C38.1976 28.0808 36.822 31.0277 36.0368 34.3685L29.9457 35.5476C28.7666 35.7441 27.784 36.9232 27.784 38.1023V44.39C27.784 45.7656 28.7666 46.7481 29.9457 46.9447L36.0368 48.1238C36.8229 51.4637 38.002 54.608 39.9663 57.3592L36.4299 62.4676C35.6438 63.4502 35.8403 65.0223 36.8229 65.8075L41.1455 70.1301C42.1281 71.1127 43.5036 71.1127 44.4854 70.5231L49.5938 66.9867C52.5416 68.7554 55.4884 70.131 58.8292 70.9162L60.0083 77.0073C60.2049 78.1864 61.384 79.169 62.563 79.169H64.1352V85.2602H29.944C25.4249 85.2602 21.8876 88.7966 21.8876 93.3166V97.6392H12.0626C9.70439 97.6392 7.74 99.6044 7.74 101.962V107.66C7.74 110.018 9.70519 111.982 12.0626 111.982H34.6594C37.0176 111.982 38.982 110.017 38.982 107.66V101.962C38.982 99.6036 37.0168 97.6392 34.6594 97.6392H24.8344V93.3166C24.8344 90.5654 27.1926 88.2082 29.9429 88.2082H64.3291V97.6401H54.5041C52.146 97.6401 50.1816 99.6053 50.1816 101.963V107.661C50.1816 110.019 52.1468 111.983 54.5041 111.983H77.101C79.4592 111.983 81.4235 110.018 81.4235 107.661V101.963C81.4235 99.6045 79.4584 97.6401 77.101 97.6401H67.276V88.2082H101.662C104.413 88.2082 106.771 90.5663 106.771 93.3166V97.6392H96.9457C94.5875 97.6392 92.6231 99.6044 92.6231 101.962V107.66C92.6231 110.018 94.5883 111.982 96.9457 111.982H119.543C121.901 111.982 123.865 110.017 123.865 107.66V101.962C123.67 99.6045 121.705 97.6392 119.348 97.6392H119.35ZM65.7075 59.7172C55.4903 59.7172 47.2376 51.4644 47.2376 41.0507C47.2376 30.8336 55.4903 22.5808 65.7075 22.5808C75.9246 22.5808 84.1774 30.8336 84.1774 41.0507C84.1774 51.4644 75.9246 59.7172 65.7075 59.7172Z" fill="#D4D349"/>
<path d="M34.6613 115.13H12.0645C9.7063 115.13 7.74191 117.095 7.74191 119.452V125.15C7.74191 127.508 9.7071 129.473 12.0645 129.473H34.6613C37.0195 129.473 38.9839 127.508 38.9839 125.15V119.452C38.9839 117.094 37.0187 115.13 34.6613 115.13ZM15.7984 123.185H12.8506L12.6541 120.237H15.7984L15.7984 123.185Z" fill="#D4D349"/>
<path d="M77.1041 115.13H54.3116C51.9534 115.13 49.9891 117.095 49.9891 119.452V125.15C49.9891 127.508 51.9542 129.473 54.3116 129.473H76.9085C79.2666 129.473 81.231 127.508 81.231 125.15V119.452C81.4276 117.094 79.4624 115.13 77.1041 115.13ZM58.2411 123.185H55.2933L55.0968 120.237H58.2411L58.2411 123.185Z" fill="#D4D349"/>
<path d="M119.349 115.13H96.7525C94.3943 115.13 92.4299 117.095 92.4299 119.452V125.15C92.4299 127.508 94.3951 129.473 96.7525 129.473H119.349C121.707 129.473 123.672 127.508 123.672 125.15V119.452C123.672 117.094 121.707 115.13 119.349 115.13ZM100.683 123.185H97.7351L97.5386 120.237H100.683L100.683 123.185Z" fill="#D4D349"/>
</g>
<defs>
<clipPath id="clip0_81_1905">
<rect width="134" height="134.353" fill="white" transform="translate(0 0.57373)"/>
</clipPath>
</defs>
</svg>
