<svg width="134" height="146" viewBox="0 0 134 146" fill="none" xmlns="http://www.w3.org/2000/svg">
<g clip-path="url(#clip0_81_2234)">
<path d="M118.526 29.4228L96.7832 5.50529C96.3716 5.05005 95.7873 4.78893 95.1738 4.78796H25.5957C23.8659 4.78796 22.206 5.4752 20.9831 6.69826C19.7603 7.92132 19.0728 9.58128 19.0728 11.3108V128.724C19.0728 130.454 19.7601 132.114 20.9831 133.336C22.2062 134.559 23.8661 135.247 25.5957 135.247H112.568C114.298 135.247 115.958 134.559 117.181 133.336C118.404 132.113 119.091 130.453 119.091 128.724V30.8796C119.09 30.3409 118.888 29.8217 118.526 29.4228ZM27.7691 46.0999C27.7691 41.4864 29.6018 37.062 32.8642 33.8005C36.1257 30.538 40.5501 28.7054 45.1637 28.7054C45.7402 28.7054 46.2935 28.9344 46.7012 29.3421C47.1089 29.7498 47.338 30.3031 47.338 30.8797V46.0999H60.2102C60.8431 46.0941 61.4478 46.3639 61.8662 46.8405C62.2836 47.3162 62.4728 47.951 62.3845 48.579C61.5487 54.4447 57.7844 59.4817 52.3953 61.9452C47.007 64.4078 40.7345 63.9594 35.752 60.7532C30.7684 57.5472 27.7604 52.025 27.7691 46.0999ZM49.5123 113.504C49.5123 114.08 49.2832 114.634 48.8755 115.041C48.4678 115.449 47.9146 115.678 47.338 115.678H38.6407C37.44 115.678 36.4664 114.704 36.4664 113.504V100.458C36.4664 99.2571 37.44 98.2835 38.6407 98.2835H47.338C47.9146 98.2835 48.4678 98.5126 48.8755 98.9203C49.2832 99.3279 49.5123 99.8812 49.5123 100.458V113.504ZM66.9068 113.504C66.9068 114.08 66.6777 114.634 66.2701 115.041C65.8624 115.449 65.3091 115.678 64.7325 115.678H56.0352C54.8345 115.678 53.8609 114.704 53.8609 113.504V93.9349C53.8609 92.7341 54.8345 91.7605 56.0352 91.7605H64.7325C65.3091 91.7605 65.8624 91.9896 66.2701 92.3973C66.6777 92.805 66.9068 93.3583 66.9068 93.9349V113.504ZM66.6457 40.0342C66.4273 41.0544 65.5149 41.7756 64.4714 41.7523H53.861C52.6603 41.7523 51.6867 40.7787 51.6867 39.578V26.5321C51.6867 25.3314 52.6603 24.3578 53.861 24.3578C57.3215 24.3578 60.6391 25.7322 63.0863 28.1783C65.5324 30.6254 66.9069 33.9431 66.9069 37.4037C66.9127 38.287 66.8253 39.1693 66.6457 40.0342ZM84.3014 113.504C84.3014 114.08 84.0723 114.634 83.6646 115.041C83.257 115.449 82.7037 115.678 82.1271 115.678H73.4298C72.2291 115.678 71.2555 114.704 71.2555 113.504V85.2376C71.2555 84.0369 72.2291 83.0633 73.4298 83.0633H82.1271C82.7037 83.0633 83.257 83.2924 83.6646 83.7C84.0723 84.1077 84.3014 84.661 84.3014 85.2376V113.504ZM101.696 113.504C101.696 114.08 101.467 114.634 101.059 115.041C100.651 115.449 100.098 115.678 99.5216 115.678H90.8244C89.6236 115.678 88.65 114.704 88.65 113.504V76.5403C88.65 75.3396 89.6236 74.366 90.8244 74.366H99.5216C100.098 74.366 100.651 74.5951 101.059 75.0028C101.467 75.4105 101.696 75.9638 101.696 76.5403V113.504ZM106.045 61.3201H75.6041C74.4034 61.3201 73.4298 60.3465 73.4298 59.1458C73.4298 57.9451 74.4034 56.9715 75.6041 56.9715H106.045C107.245 56.9715 108.219 57.9451 108.219 59.1458C108.219 60.3465 107.245 61.3201 106.045 61.3201ZM106.045 52.6229H75.6041C74.4034 52.6229 73.4298 51.6493 73.4298 50.4485C73.4298 49.2478 74.4034 48.2742 75.6041 48.2742H106.045C107.245 48.2742 108.219 49.2478 108.219 50.4485C108.219 51.6493 107.245 52.6229 106.045 52.6229ZM106.045 43.9256H75.6041C74.4034 43.9256 73.4298 42.952 73.4298 41.7513C73.4298 40.5506 74.4034 39.577 75.6041 39.577H106.045C107.245 39.577 108.219 40.5506 108.219 41.7513C108.219 42.952 107.245 43.9256 106.045 43.9256ZM99.5216 28.7054C98.3209 28.7054 97.3473 27.7318 97.3473 26.5311V12.5941L112.003 28.7054H99.5216Z" fill="#D4D349"/>
</g>
<defs>
<clipPath id="clip0_81_2234">
<rect width="134" height="144.623" fill="white" transform="translate(0 0.438477)"/>
</clipPath>
</defs>
</svg>
