<svg width="275" height="47" viewBox="0 0 275 47" fill="none" xmlns="http://www.w3.org/2000/svg">
<path d="M47.8556 39.7561C47.8556 43.7562 44.553 46.9997 40.4803 46.9997C36.4074 46.9997 33.105 43.7562 33.105 39.7561C33.105 35.755 36.4074 32.5123 40.4803 32.5123C44.553 32.5123 47.8556 35.755 47.8556 39.7561Z" fill="url(#paint0_linear_804_72)"/>
<path d="M40.4805 0C29.7489 0.0148567 19.4616 4.20814 11.8727 11.6607C4.28462 19.1134 0.0152478 29.2176 0 39.7578V40.8674L11.4755 40.8665V39.7568C11.4755 29.5791 17.0035 20.1756 25.9773 15.0861C34.9522 9.99773 46.0081 9.99773 54.9819 15.0861C63.9559 20.1745 69.4838 29.5789 69.4838 39.7578V40.8674L80.9594 40.8665V39.7568C80.9442 29.2169 76.6747 19.1134 69.0867 11.6607C61.4979 4.20814 51.2121 0.0149756 40.4805 0ZM70.6153 39.7565C70.6153 29.1825 64.872 19.4121 55.548 14.1246C46.2245 8.83843 34.7375 8.83843 25.4132 14.1246C16.0895 19.4116 10.346 29.1818 10.346 39.7565H1.13003C1.13003 25.9463 8.63096 13.1856 20.8081 6.2826C32.9853 -0.620418 47.9878 -0.622082 60.1642 6.2826C72.3406 13.1873 79.8424 25.9475 79.8424 39.7565H70.6153Z" fill="url(#paint1_linear_804_72)"/>
<path d="M39.9274 25.5864C43.6779 25.5864 47.2742 27.0488 49.926 29.6534C52.578 32.2579 54.0679 35.791 54.0679 39.4744H63.2962C63.2962 31.2744 58.8413 23.6976 51.6117 19.5981C44.3812 15.4976 35.4733 15.4976 28.2428 19.5981C21.0132 23.6976 16.5583 31.2744 16.5583 39.4744H25.7866C25.7866 35.791 27.2767 32.2579 29.9285 29.6534C32.5804 27.0488 36.1769 25.5864 39.9274 25.5864Z" fill="url(#paint2_linear_804_72)"/>
<path d="M90.5527 27.2903V7.80505H102.914C107.891 7.80505 109.505 10.0702 109.505 13.0994C109.505 15.6374 108.11 17.2202 106.278 17.7933V17.8479C108.602 18.3391 109.122 20.3586 109.122 23.1149C109.122 24.0428 109.149 26.226 109.943 27.2903H105.512C105.211 26.7445 105.02 25.7621 105.02 24.343C105.02 21.5594 104.637 19.5945 101.629 19.5945H94.6549V27.2903H90.5527ZM94.6549 16.538H101.738C104.008 16.538 105.239 15.8557 105.239 13.6725C105.239 11.653 103.899 10.8616 101.738 10.8616H94.6549V16.538ZM128.715 21.0136H115.041C115.123 22.6237 116.217 25.1071 119.964 25.1071C122.452 25.1071 123.546 24.2338 124.285 23.0331H128.387C127.567 24.6432 125.597 27.8362 120.073 27.8362C113.537 27.8362 111.103 24.0428 111.103 20.1949C111.103 15.3645 114.686 12.2807 119.827 12.2807C126.254 12.2807 128.715 16.2378 128.715 20.4678V21.0136ZM115.041 18.612H124.777C124.312 15.7192 121.741 14.846 119.882 14.846C118.131 14.846 115.67 15.6647 115.041 18.612ZM130.484 27.2903V12.8265H134.258V15.0097H134.313C135.543 13.4542 137.458 12.4444 140.028 12.4444C143.146 12.4444 146.182 13.5633 146.182 17.4658V27.2903H142.408V18.6666C142.408 17.1111 141.888 15.3372 138.77 15.3372C136.801 15.3372 134.258 16.4288 134.258 19.5126V27.2903H130.484ZM165.559 21.0136H151.885C151.967 22.6237 153.061 25.1071 156.808 25.1071C159.297 25.1071 160.39 24.2338 161.129 23.0331H165.231C164.411 24.6432 162.442 27.8362 156.917 27.8362C150.381 27.8362 147.947 24.0428 147.947 20.1949C147.947 15.3645 151.529 12.2807 156.671 12.2807C163.098 12.2807 165.559 16.2378 165.559 20.4678V21.0136ZM151.885 18.612H161.621C161.156 15.7192 158.585 14.846 156.726 14.846C154.976 14.846 152.514 15.6647 151.885 18.612ZM178.595 27.2903V18.6666C178.595 17.1656 178.404 15.3372 175.04 15.3372C173.727 15.3372 171.102 16.074 171.102 19.2397V27.2903H167.328V12.8265H171.102V15.0097H171.156C172.387 13.4542 174.301 12.4444 176.872 12.4444C178.568 12.4444 180.974 12.7446 181.986 15.1189C182.916 13.7816 184.83 12.4444 187.866 12.4444C190.191 12.4444 193.637 13.2631 193.637 17.6842V27.2903H189.863V18.6666C189.863 17.1656 189.671 15.3372 186.307 15.3372C184.995 15.3372 182.369 16.074 182.369 19.2397V27.2903H178.595ZM199.194 20.0584C199.194 22.5691 200.562 24.9434 204.226 24.9434C207.891 24.9434 209.258 22.5691 209.258 20.0584C209.258 17.5477 207.891 15.1734 204.226 15.1734C200.562 15.1734 199.194 17.5477 199.194 20.0584ZM195.256 20.0584C195.256 16.074 197.745 12.2807 204.226 12.2807C210.708 12.2807 213.197 16.074 213.197 20.0584C213.197 24.0428 210.708 27.8362 204.226 27.8362C197.745 27.8362 195.256 24.0428 195.256 20.0584ZM214.801 27.2903V12.8265H218.575V15.0097H218.63C219.86 13.4542 221.775 12.4444 224.345 12.4444C227.463 12.4444 230.499 13.5633 230.499 17.4658V27.2903H226.725V18.6666C226.725 17.1111 226.205 15.3372 223.087 15.3372C221.118 15.3372 218.575 16.4288 218.575 19.5126V27.2903H214.801Z" fill="white"/>
<path d="M93.4453 39.8428C93.93 39.8428 94.3126 39.7461 94.5931 39.5526C94.877 39.3592 95.0189 39.0102 95.0189 38.5059C95.0189 37.9634 94.8216 37.5938 94.4268 37.3968C94.2157 37.2933 93.9335 37.2414 93.5804 37.2414H91.0566V39.8428H93.4453ZM90.0232 36.3553H93.5544C94.136 36.3553 94.6155 36.4399 94.9929 36.6092C95.7096 36.934 96.0679 37.5333 96.0679 38.4073C96.0679 38.8634 95.9728 39.2365 95.7822 39.5267C95.5954 39.8169 95.3322 40.0501 94.9929 40.2262C95.2907 40.3472 95.5139 40.5061 95.6628 40.7031C95.8152 40.9 95.9 41.2195 95.9173 41.6617L95.9536 42.6825C95.9641 42.9729 95.9883 43.1888 96.0264 43.3304C96.0887 43.5722 96.1994 43.7276 96.3587 43.7967V43.9677H95.0915C95.0569 43.9021 95.0293 43.8175 95.0084 43.7138C94.9878 43.6102 94.9705 43.4098 94.9566 43.1127L94.8943 41.843C94.87 41.3456 94.6848 41.0122 94.3386 40.843C94.1412 40.7496 93.8314 40.7031 93.409 40.7031H91.0566V43.9677H90.0232V36.3553ZM97.8425 36.3553H103.404V37.288H98.8499V39.5993H103.062V40.4802H98.8499V43.061H103.482V43.9677H97.8425V36.3553ZM104.997 36.3553H106.03V43.061H109.894V43.9677H104.997V36.3553ZM111.31 36.3553H112.354V43.9677H111.31V36.3553ZM118.112 40.8482L116.954 37.4849L115.723 40.8482H118.112ZM116.414 36.3553H117.582L120.35 43.9677H119.218L118.444 41.6876H115.427L114.601 43.9677H113.542L116.414 36.3553ZM124.316 39.5734C124.752 39.5734 125.091 39.5129 125.334 39.3919C125.715 39.2019 125.905 38.8599 125.905 38.366C125.905 37.8685 125.703 37.5333 125.297 37.3606C125.069 37.2639 124.73 37.2155 124.28 37.2155H122.436V39.5734H124.316ZM124.664 43.0867C125.297 43.0867 125.749 42.9037 126.019 42.5374C126.189 42.3061 126.274 42.0262 126.274 41.698C126.274 41.1452 126.026 40.7687 125.531 40.5683C125.268 40.4612 124.92 40.4077 124.487 40.4077H122.436V43.0867H124.664ZM121.423 36.3553H124.7C125.593 36.3553 126.229 36.6213 126.606 37.1534C126.828 37.4676 126.939 37.8305 126.939 38.2415C126.939 38.7218 126.802 39.1155 126.528 39.423C126.386 39.5854 126.182 39.734 125.915 39.8687C126.307 40.0173 126.599 40.1849 126.793 40.3713C127.136 40.7031 127.307 41.1608 127.307 41.7446C127.307 42.2353 127.153 42.6792 126.845 43.0764C126.385 43.6706 125.652 43.9677 124.648 43.9677H121.423V36.3553ZM128.703 36.3553H129.736V43.061H133.6V43.9677H128.703V36.3553ZM134.881 36.3553H140.443V37.288H135.888V39.5993H140.1V40.4802H135.888V43.061H140.521V43.9677H134.881V36.3553ZM145.155 36.3553H146.375L150.229 42.522V36.3553H151.21V43.9677H150.052L146.142 37.8062V43.9677H145.155V36.3553ZM153.099 36.3553H158.661V37.288H154.106V39.5993H158.318V40.4802H154.106V43.061H158.739V43.9677H153.099V36.3553ZM165.805 36.3553V37.2621H163.234V43.9677H162.186V37.2621H159.615V36.3553H165.805ZM167.419 36.3553L168.857 42.5479L170.58 36.3553H171.703L173.426 42.5479L174.865 36.3553H175.997L173.993 43.9677H172.908L171.147 37.656L169.376 43.9677H168.291L166.297 36.3553H167.419ZM180.411 36.148C181.757 36.148 182.753 36.5798 183.401 37.4435C183.907 38.1172 184.159 38.9791 184.159 40.0293C184.159 41.1659 183.87 42.1108 183.293 42.864C182.614 43.7484 181.646 44.1906 180.389 44.1906C179.216 44.1906 178.293 43.8037 177.621 43.0297C177.022 42.2836 176.723 41.3404 176.723 40.2003C176.723 39.1709 176.98 38.2898 177.492 37.5576C178.15 36.6179 179.122 36.148 180.411 36.148ZM180.514 43.2682C181.424 43.2682 182.082 42.9435 182.487 42.2939C182.896 41.6409 183.1 40.8914 183.1 40.0449C183.1 39.1501 182.864 38.4298 182.393 37.884C181.927 37.3382 181.286 37.0653 180.473 37.0653C179.683 37.0653 179.039 37.3364 178.54 37.8788C178.042 38.4178 177.793 39.2141 177.793 40.2678C177.793 41.1108 178.005 41.8224 178.431 42.4028C178.861 42.9797 179.555 43.2682 180.514 43.2682ZM189.101 39.8428C189.586 39.8428 189.969 39.7461 190.25 39.5526C190.534 39.3592 190.675 39.0102 190.675 38.5059C190.675 37.9634 190.478 37.5938 190.083 37.3968C189.871 37.2933 189.59 37.2414 189.236 37.2414H186.713V39.8428H189.101ZM185.68 36.3553H189.211C189.792 36.3553 190.273 36.4399 190.649 36.6092C191.366 36.934 191.724 37.5333 191.724 38.4073C191.724 38.8634 191.629 39.2365 191.438 39.5267C191.251 39.8169 190.988 40.0501 190.649 40.2262C190.947 40.3472 191.17 40.5061 191.319 40.7031C191.471 40.9 191.556 41.2195 191.573 41.6617L191.61 42.6825C191.62 42.9729 191.645 43.1888 191.682 43.3304C191.745 43.5722 191.856 43.7276 192.015 43.7967V43.9677H190.748C190.713 43.9021 190.686 43.8175 190.665 43.7138C190.645 43.6102 190.627 43.4098 190.613 43.1127L190.551 41.843C190.526 41.3456 190.341 41.0122 189.995 40.843C189.797 40.7496 189.487 40.7031 189.065 40.7031H186.713V43.9677H185.68V36.3553ZM193.401 36.3553H194.408V40.0657L198.126 36.3553H199.554L196.38 39.423L199.642 43.9677H198.298L195.628 40.1486L194.408 41.3145V43.9677H193.401V36.3553ZM203.748 36.3553H205.227L207.418 42.7914L209.594 36.3553H211.059V43.9677H210.077V39.4749C210.077 39.3194 210.08 39.062 210.088 38.7027C210.095 38.3435 210.098 37.9583 210.098 37.5471L207.923 43.9677H206.899L204.708 37.5471V37.7803C204.708 37.9669 204.711 38.2519 204.718 38.6354C204.729 39.0155 204.734 39.2952 204.734 39.4749V43.9677H203.748V36.3553ZM216.085 36.148C217.431 36.148 218.427 36.5798 219.075 37.4435C219.581 38.1172 219.834 38.9791 219.834 40.0293C219.834 41.1659 219.544 42.1108 218.967 42.864C218.288 43.7484 217.32 44.1906 216.063 44.1906C214.89 44.1906 213.967 43.8037 213.295 43.0297C212.696 42.2836 212.397 41.3404 212.397 40.2003C212.397 39.1709 212.654 38.2898 213.166 37.5576C213.824 36.6179 214.796 36.148 216.085 36.148ZM216.188 43.2682C217.098 43.2682 217.756 42.9435 218.161 42.2939C218.57 41.6409 218.774 40.8914 218.774 40.0449C218.774 39.1501 218.538 38.4298 218.067 37.884C217.601 37.3382 216.96 37.0653 216.147 37.0653C215.357 37.0653 214.713 37.3364 214.214 37.8788C213.716 38.4178 213.467 39.2141 213.467 40.2678C213.467 41.1108 213.679 41.8224 214.106 42.4028C214.535 42.9797 215.229 43.2682 216.188 43.2682ZM221.229 36.3553H222.449L226.302 42.522V36.3553H227.284V43.9677H226.126L222.215 37.8062V43.9677H221.229V36.3553ZM229.307 36.3553H230.351V43.9677H229.307V36.3553ZM237.746 36.3553V37.2621H235.175V43.9677H234.125V37.2621H231.554V36.3553H237.746ZM241.96 36.148C243.307 36.148 244.305 36.5798 244.952 37.4435C245.458 38.1172 245.71 38.9791 245.71 40.0293C245.71 41.1659 245.421 42.1108 244.843 42.864C244.163 43.7484 243.197 44.1906 241.939 44.1906C240.766 44.1906 239.844 43.8037 239.172 43.0297C238.572 42.2836 238.273 41.3404 238.273 40.2003C238.273 39.1709 238.53 38.2898 239.042 37.5576C239.7 36.6179 240.672 36.148 241.96 36.148ZM242.064 43.2682C242.975 43.2682 243.633 42.9435 244.037 42.2939C244.446 41.6409 244.651 40.8914 244.651 40.0449C244.651 39.1501 244.416 38.4298 243.945 37.884C243.477 37.3382 242.837 37.0653 242.023 37.0653C241.234 37.0653 240.59 37.3364 240.092 37.8788C239.592 38.4178 239.343 39.2141 239.343 40.2678C239.343 41.1108 239.557 41.8224 239.982 42.4028C240.411 42.9797 241.105 43.2682 242.064 43.2682ZM250.653 39.8428C251.137 39.8428 251.52 39.7461 251.8 39.5526C252.084 39.3592 252.225 39.0102 252.225 38.5059C252.225 37.9634 252.029 37.5938 251.634 37.3968C251.423 37.2933 251.14 37.2414 250.788 37.2414H248.264V39.8428H250.653ZM247.229 36.3553H250.762C251.342 36.3553 251.822 36.4399 252.199 36.6092C252.916 36.934 253.275 37.5333 253.275 38.4073C253.275 38.8634 253.179 39.2365 252.989 39.5267C252.802 39.8169 252.54 40.0501 252.199 40.2262C252.497 40.3472 252.72 40.5061 252.869 40.7031C253.023 40.9 253.106 41.2195 253.124 41.6617L253.161 42.6825C253.172 42.9729 253.194 43.1888 253.234 43.3304C253.296 43.5722 253.406 43.7276 253.565 43.7967V43.9677H252.298C252.265 43.9021 252.236 43.8175 252.216 43.7138C252.195 43.6102 252.178 43.4098 252.163 43.1127L252.1 41.843C252.076 41.3456 251.892 41.0122 251.546 40.843C251.348 40.7496 251.038 40.7031 250.616 40.7031H248.264V43.9677H247.229V36.3553ZM255.185 36.3553H256.228V43.9677H255.185V36.3553ZM258.07 36.3553H259.29L263.145 42.522V36.3553H264.126V43.9677H262.967L259.057 37.8062V43.9677H258.07V36.3553ZM269.213 36.1583C269.93 36.1583 270.55 36.2966 271.072 36.573C271.831 36.9702 272.294 37.6664 272.464 38.6613H271.44C271.315 38.105 271.059 37.7008 270.667 37.4487C270.276 37.1931 269.782 37.0653 269.187 37.0653C268.48 37.0653 267.885 37.3295 267.4 37.8581C266.92 38.3866 266.678 39.1744 266.678 40.2211C266.678 41.1262 266.878 41.8638 267.276 42.4339C267.674 43.0005 268.324 43.2837 269.223 43.2837C269.912 43.2837 270.481 43.0851 270.933 42.6878C271.385 42.287 271.618 41.6409 271.628 40.7496H269.239V39.8947H272.589V43.9677H271.923L271.674 42.9883C271.325 43.3718 271.015 43.6378 270.744 43.7864C270.291 44.042 269.716 44.1698 269.015 44.1698C268.113 44.1698 267.335 43.878 266.685 43.2941C265.975 42.5617 265.62 41.5563 265.62 40.2781C265.62 39.0033 265.966 37.9893 266.659 37.2363C267.315 36.5176 268.167 36.1583 269.213 36.1583Z" fill="#FFFD1F"/>
<defs>
<linearGradient id="paint0_linear_804_72" x1="40.4803" y1="32.5123" x2="40.4803" y2="46.9997" gradientUnits="userSpaceOnUse">
<stop stop-color="#EBE914"/>
<stop offset="1" stop-color="#E1C11B"/>
</linearGradient>
<linearGradient id="paint1_linear_804_72" x1="40.4797" y1="0" x2="40.4797" y2="40.8674" gradientUnits="userSpaceOnUse">
<stop stop-color="#EBE914"/>
<stop offset="1" stop-color="#E1C11B"/>
</linearGradient>
<linearGradient id="paint2_linear_804_72" x1="39.9273" y1="16.5226" x2="39.9273" y2="39.4744" gradientUnits="userSpaceOnUse">
<stop stop-color="#EBE914"/>
<stop offset="1" stop-color="#E1C11B"/>
</linearGradient>
</defs>
</svg>
