<svg width="110" height="120" viewBox="0 0 110 120" fill="none" xmlns="http://www.w3.org/2000/svg">
<path d="M101.109 44.5047H72.0233V37.075C72.0204 36.166 72.3813 35.2944 73.0257 34.6538L77.8749 29.8056C80.8223 31.2186 84.2651 31.1479 87.1531 29.6175C90.0411 28.0861 92.0319 25.2752 92.5168 22.0426C93.0018 18.8107 91.9239 15.54 89.6124 13.2285C87.301 10.9171 84.03 9.83925 80.7984 10.3242C77.5655 10.8092 74.7547 12.7998 73.2235 15.6878C71.693 18.5758 71.6224 22.0186 73.0354 24.966L68.1872 29.8142C66.2548 31.7352 65.1721 34.3503 65.1797 37.075V44.5047H58.3361V19.9534C61.4047 18.8678 63.7772 16.3922 64.73 13.2796C65.6828 10.1673 65.1033 6.7875 63.1671 4.17031C61.2318 1.55337 58.169 0.00965309 54.9142 0.00965309C51.6593 0.00965309 48.5966 1.55347 46.6613 4.17031C44.7251 6.78725 44.1455 10.167 45.0984 13.2796C46.0512 16.392 48.4236 18.8677 51.4923 19.9534V44.5047H44.6487V37.075C44.6563 34.3503 43.5746 31.7361 41.6431 29.8152L36.7929 24.966C38.206 22.0186 38.1363 18.5751 36.6049 15.6869C35.0735 12.7986 32.2626 10.8081 29.03 10.3232C25.7971 9.83818 22.5264 10.9151 20.2149 13.2266C17.9035 15.539 16.8257 18.81 17.3106 22.0426C17.7965 25.2755 19.7872 28.0862 22.6752 29.6175C25.5632 31.1479 29.007 31.2176 31.9544 29.8046L36.8036 34.6528H36.8045C37.4471 35.2944 37.808 36.1661 37.8051 37.075V44.5047H8.71984C6.45234 44.5076 4.27737 45.4098 2.67352 47.0129C1.07051 48.6168 0.168277 50.7918 0.165344 53.0592V66.7464C0.168209 69.0139 1.07043 71.1888 2.67352 72.7927C4.27749 74.3957 6.45241 75.2979 8.71984 75.3009H37.8051V82.7306C37.808 83.6395 37.4471 84.5102 36.8045 85.1518L31.9554 90H31.9544C29.007 88.587 25.5642 88.6566 22.6762 90.1881C19.7882 91.7195 17.7974 94.5293 17.3125 97.762C16.8266 100.995 17.9045 104.266 20.2159 106.577C22.5273 108.888 25.7983 109.966 29.031 109.481C32.2638 108.995 35.0736 107.006 36.6049 104.118C38.1361 101.23 38.206 97.7869 36.7929 94.8385L41.6431 89.9903C43.5745 88.0694 44.6562 85.4552 44.6487 82.7305V75.3008H51.4923V99.8522C48.4236 100.938 46.0511 103.413 45.0984 106.526C44.1456 109.638 44.7251 113.018 46.6613 115.635C48.5966 118.252 51.6593 119.796 54.9142 119.796C58.169 119.796 61.2318 118.252 63.1671 115.635C65.1033 113.018 65.6828 109.639 64.73 106.526C63.7771 103.414 61.4047 100.938 58.3361 99.8522V75.3008H65.1797V82.7305C65.172 85.4552 66.2547 88.0695 68.1872 89.9903L73.0354 94.8395C71.6224 97.7869 71.693 101.23 73.2235 104.118C74.7549 107.006 77.5657 108.996 80.7984 109.481C84.0302 109.966 87.301 108.888 89.6124 106.577C91.9238 104.266 93.0017 100.995 92.5168 97.7629C92.0318 94.5301 90.0411 91.7193 87.1531 90.1881C84.2651 88.6576 80.8223 88.5869 77.8749 90L73.0267 85.1518C72.3823 84.5111 72.0214 83.6395 72.0233 82.7306V75.3009H101.109C103.376 75.298 105.551 74.3958 107.155 72.7927C108.758 71.1887 109.66 69.0138 109.663 66.7464V53.0592C109.66 50.7917 108.758 48.6167 107.155 47.0129C105.551 45.4099 103.376 44.5076 101.109 44.5047ZM82.2887 17.1303C83.673 17.1303 84.92 17.9638 85.4499 19.2422C85.9798 20.5215 85.6867 21.9928 84.7081 22.9715C83.7294 23.9501 82.2583 24.2432 80.9788 23.7133C79.7004 23.1834 78.8669 21.9365 78.8669 20.552C78.8698 18.6636 80.4002 17.1332 82.2887 17.1303ZM54.9143 6.86491C56.2987 6.86491 57.5456 7.69841 58.0755 8.9768C58.6054 10.2562 58.3123 11.7274 57.3337 12.7061C56.3551 13.6847 54.8839 13.9778 53.6044 13.4479C52.326 12.918 51.4925 11.6711 51.4925 10.2867C51.4954 8.39817 53.0258 6.86784 54.9143 6.86491ZM27.5399 23.9739C26.1555 23.9739 24.9085 23.1404 24.3786 21.862C23.8488 20.5826 24.1419 19.1114 25.1205 18.1327C26.0991 17.1541 27.5703 16.861 28.8498 17.3909C30.1282 17.9208 30.9617 19.1677 30.9617 20.5521C30.9588 22.4406 29.4284 23.971 27.5399 23.9739ZM27.5399 102.675C26.1555 102.675 24.9085 101.842 24.3786 100.563C23.8488 99.284 24.1419 97.8127 25.1205 96.8341C26.0991 95.8555 27.5703 95.5623 28.8498 96.0922C30.1282 96.6221 30.9617 97.869 30.9617 99.2535C30.9588 101.142 29.4284 102.672 27.5399 102.675ZM54.9143 112.941C53.5299 112.941 52.2829 112.107 51.753 110.829C51.2231 109.549 51.5163 108.078 52.4949 107.099C53.4735 106.121 54.9446 105.828 56.2241 106.358C57.5025 106.887 58.336 108.134 58.336 109.519C58.3332 111.407 56.8028 112.938 54.9143 112.941ZM82.2887 95.8316C83.673 95.8316 84.92 96.6651 85.4499 97.9435C85.9798 99.2229 85.6867 100.694 84.7081 101.673C83.7294 102.651 82.2583 102.944 80.9788 102.415C79.7004 101.885 78.8669 100.638 78.8669 99.2534C78.8698 97.3649 80.4002 95.8346 82.2887 95.8316ZM73.7342 63.3246C72.3498 63.3246 71.1028 62.4911 70.5729 61.2127C70.043 59.9333 70.3361 58.462 71.3148 57.4834C72.2934 56.5048 73.7645 56.2117 75.044 56.7416C76.3224 57.2714 77.1559 58.5183 77.1559 59.9028C77.1559 60.8108 76.795 61.6805 76.1534 62.3221C75.5118 62.9637 74.6421 63.3246 73.7342 63.3246ZM83.9995 63.3246C82.6152 63.3246 81.3682 62.4911 80.8383 61.2127C80.3084 59.9333 80.6015 58.462 81.5801 57.4834C82.5588 56.5048 84.0299 56.2117 85.3094 56.7416C86.5878 57.2714 87.4213 58.5183 87.4213 59.9028C87.4213 60.8108 87.0604 61.6805 86.4188 62.3221C85.7772 62.9637 84.9075 63.3246 83.9995 63.3246ZM94.2649 63.3246C92.8806 63.3246 91.6336 62.4911 91.1037 61.2127C90.5738 59.9333 90.8669 58.462 91.8455 57.4834C92.8241 56.5048 94.2953 56.2117 95.5748 56.7416C96.8532 57.2714 97.6867 58.5183 97.6867 59.9028C97.6867 60.8108 97.3258 61.6805 96.6842 62.3221C96.0426 62.9637 95.1729 63.3246 94.2649 63.3246Z" fill="#D4D349"/>
</svg>
