<svg width="85" height="90" viewBox="0 0 85 90" fill="none" xmlns="http://www.w3.org/2000/svg">
<rect x="0.165649" y="0.662598" width="84.2217" height="88.6748" rx="10" fill="#070707"/>
<g clip-path="url(#clip0_81_3901)">
<path d="M45.6263 36.2389C46.406 36.2389 47.0405 35.6044 47.0405 34.8247C47.0405 34.0449 46.406 33.4104 45.6263 33.4104C44.8465 33.4104 44.2112 34.0449 44.2112 34.8247C44.2112 35.6045 44.8465 36.2389 45.6263 36.2389Z" fill="#D4D349"/>
<path d="M30.9474 38.4173C30.9474 39.1982 30.3139 39.8313 29.5331 39.8313C28.7523 39.8313 28.1188 39.1982 28.1188 38.4173C28.1188 37.6361 28.7523 37.0031 29.5331 37.0031C30.3139 37.0031 30.9474 37.6361 30.9474 38.4173Z" fill="#D4D349"/>
<path d="M54.6206 30.3581C55.4004 30.3581 56.0357 29.7236 56.0357 28.9438C56.0357 28.164 55.4004 27.5288 54.6206 27.5288C53.8408 27.5288 53.2064 28.1641 53.2064 28.9438C53.2067 29.7236 53.8409 30.3581 54.6206 30.3581Z" fill="#D4D349"/>
<path d="M48.7906 59.8116V61.7021C48.7906 62.1433 48.4322 62.5013 47.9914 62.5013H37.8721C37.4309 62.5013 37.0729 62.1429 37.0729 61.7021V59.8116H30.8981L27.9568 63.5925H57.9061L54.9653 59.8116H48.7906Z" fill="#D4D349"/>
<path d="M38.6713 54.438H47.1921V60.9026H38.6713V54.438Z" fill="#D4D349"/>
<path d="M36.9624 33.8445C37.7422 33.8445 38.3774 33.21 38.3774 32.4303C38.3774 31.6505 37.7421 31.016 36.9624 31.016C36.1826 31.016 35.5481 31.6505 35.5481 32.4303C35.5481 33.2104 36.1826 33.8445 36.9624 33.8445Z" fill="#D4D349"/>
<path d="M45.0685 41.6361L45.103 48.5826H47.7875L47.7526 41.6361H45.0685Z" fill="#D4D349"/>
<path d="M53.938 35.8971L54.0895 48.5835H56.774L56.6218 35.8971H53.938Z" fill="#D4D349"/>
<path d="M19.691 24.8345V52.8401H64.4629L64.4625 24.8345H19.691ZM29.5333 35.4044C30.0516 35.4044 30.5324 35.5482 30.9586 35.7796L34.1889 33.6061C34.0348 33.2445 33.949 32.8469 33.949 32.4295C33.949 30.7684 35.3006 29.4167 36.9618 29.4167C38.6236 29.4167 39.9757 30.7684 39.9757 32.4295C39.9757 32.5285 39.9559 32.6224 39.9463 32.7189L43.0072 33.3637C43.5232 32.4431 44.4974 31.8119 45.6264 31.8119C46.0754 31.8119 46.4979 31.9175 46.8812 32.0943L51.7073 29.6732C51.6482 29.4384 51.6075 29.1967 51.6075 28.9436C51.6075 27.2818 52.9591 25.9297 54.6203 25.9297C56.2822 25.9297 57.6342 27.2814 57.6342 28.9436C57.6342 30.6048 56.2825 31.9564 54.6203 31.9564C53.788 31.9564 53.0339 31.6168 52.4882 31.0695L48.1737 33.2339C48.4638 33.6968 48.6388 34.2393 48.6388 34.8246C48.6388 36.4858 47.2871 37.8374 45.626 37.8374C43.9961 37.8374 42.6719 36.5346 42.6217 34.9174L39.3624 34.2312C38.8123 34.9618 37.9452 35.4422 36.9615 35.4422C36.2991 35.4422 35.6917 35.2207 35.1936 34.8572L32.1302 36.9182C32.387 37.3612 32.5451 37.8689 32.5451 38.4168C32.5451 40.078 31.1934 41.4296 29.5323 41.4296C27.8712 41.4296 26.5195 40.078 26.5195 38.4168C26.5206 36.756 27.8722 35.4044 29.5334 35.4044L29.5333 35.4044ZM60.3455 50.181H23.169C22.7277 50.181 22.3698 49.8226 22.3698 49.3817C22.3698 48.9405 22.7281 48.5825 23.169 48.5825H25.4951L25.3502 44.1312C25.3432 43.9145 25.4243 43.7047 25.5747 43.5488C25.7258 43.3936 25.933 43.306 26.1494 43.306H30.4327C30.864 43.306 31.2173 43.6486 31.2319 44.0788L31.3786 48.5826H34.5113L34.4717 39.6712C34.4706 39.4585 34.5546 39.2534 34.7039 39.103C34.8543 38.9527 35.0582 38.8679 35.2709 38.8679H39.5531C39.9932 38.8679 40.3505 39.2234 40.3523 39.6635L40.3919 48.5826H43.5026L43.4645 40.8405C43.4634 40.6278 43.5474 40.4238 43.6967 40.2723C43.847 40.122 44.051 40.0372 44.2637 40.0372H48.5459C48.986 40.0372 49.3433 40.3927 49.3451 40.8328L49.384 48.5826H52.4895L52.3285 35.1065C52.3256 34.8927 52.4085 34.6869 52.5588 34.5347C52.7092 34.3825 52.9143 34.2974 53.1277 34.2974H57.4099C57.8482 34.2974 58.2043 34.6499 58.2091 35.0871L58.3712 48.5819H60.3434C60.7847 48.5819 61.1427 48.9403 61.1427 49.3811C61.1441 49.822 60.7861 50.1804 60.3449 50.1804L60.3455 50.181Z" fill="#D4D349"/>
<path d="M26.9755 44.9047L27.0955 48.5828H29.7792L29.6593 44.9047H26.9755Z" fill="#D4D349"/>
<path d="M36.0751 40.467L36.1114 48.5829H38.794L38.7581 40.467H36.0751Z" fill="#D4D349"/>
</g>
<defs>
<clipPath id="clip0_81_3901">
<rect width="55" height="46.6901" fill="white" transform="translate(14.7765 21.6548)"/>
</clipPath>
</defs>
</svg>
