<svg width="134" height="131" viewBox="0 0 134 131" fill="none" xmlns="http://www.w3.org/2000/svg">
<g clip-path="url(#clip0_81_1860)">
<path d="M10.8126 115.965C10.8126 117.924 12.395 119.518 14.3398 119.518H85.6809L85.6818 30.9017H10.8121L10.8126 115.965ZM19.8305 73.605C19.8305 72.7976 20.3997 72.1024 21.1913 71.9438L26.7106 70.837C27.2588 68.4832 28.1923 66.23 29.4104 64.2203L26.3044 59.553C25.857 58.8804 25.9463 57.9846 26.519 57.4137L29.9735 53.9722C30.5436 53.4038 31.435 53.3154 32.1058 53.7602L36.7986 56.8724C38.8083 55.6141 41.0203 54.6806 43.3952 54.1324L44.502 48.613C44.6605 47.8214 45.3558 47.2522 46.1632 47.2522H51.0583C51.8657 47.2522 52.5609 47.8214 52.7195 48.613L53.8263 54.1324C56.2012 54.6805 58.4131 55.614 60.4229 56.8724L65.1157 53.7602C65.7865 53.3154 66.6779 53.4039 67.248 53.9722L70.7025 57.4137C71.2752 57.9837 71.3654 58.8796 70.9171 59.553L67.8111 64.2203C69.0292 66.2299 69.9828 68.4823 70.531 70.837L76.0504 71.9438C76.842 72.1023 77.4112 72.7976 77.4112 73.605V78.4844C77.4112 79.29 76.8438 79.9844 76.0548 80.1447L70.5309 81.269C69.9827 83.6439 69.0291 85.8559 67.811 87.8858L70.9187 92.5549C71.3662 93.2265 71.2769 94.1206 70.7059 94.6915L67.2541 98.1433C66.6814 98.716 65.7838 98.8036 65.1113 98.3517L60.4642 95.2317C58.4545 96.4901 56.2224 97.4235 53.8275 97.9718L52.7207 103.491C52.5622 104.283 51.8669 104.852 51.0595 104.852H46.1644C45.357 104.852 44.6618 104.283 44.5033 103.491L43.3964 97.9718C41.0013 97.4236 38.7894 96.4901 36.7797 95.2317L32.1115 98.3553C31.439 98.8046 30.5431 98.717 29.9713 98.1452L26.5177 94.6915C25.9467 94.1206 25.8583 93.2265 26.3049 92.5549L29.4126 87.8858C28.1945 85.856 27.2611 83.644 26.7129 81.2691L21.1874 80.1438C20.3985 79.9836 19.831 79.2892 19.831 78.4836L19.8305 73.605Z" fill="#D4D349"/>
<path d="M60.056 76.053C60.056 82.3745 54.9316 87.4998 48.6093 87.4998C42.2878 87.4998 37.1625 82.3745 37.1625 76.053C37.1625 69.7306 42.2878 64.6062 48.6093 64.6062C54.9316 64.6062 60.056 69.7306 60.056 76.053Z" fill="#D4D349"/>
<path d="M120.98 7.04956H14.3402C12.3945 7.04956 10.8122 8.63104 10.8122 10.5767V26.1647H124.506L124.507 10.5767C124.507 8.59856 122.957 7.04956 120.979 7.04956H120.98ZM22.3903 22.0517C21.0812 22.0517 19.8919 20.8626 19.8919 19.5542C19.8919 18.246 21.0811 17.0567 22.3903 17.0567C23.6994 17.0576 24.886 18.2467 24.886 19.5551C24.886 20.8634 23.6995 22.0517 22.3903 22.0517ZM33.5167 22.0517C32.2076 22.0517 31.021 20.8626 31.021 19.5542C31.021 18.246 32.2076 17.0567 33.5167 17.0567C34.8259 17.0567 36.0151 18.2459 36.0151 19.5542C36.0151 20.8633 34.826 22.0517 33.5167 22.0517ZM44.6449 22.0517C43.3358 22.0517 42.1465 20.8626 42.1465 19.5542C42.1465 18.246 43.3357 17.0567 44.6449 17.0567C45.9541 17.0567 47.1434 18.2459 47.1434 19.5542C47.1434 20.8633 45.9542 22.0517 44.6449 22.0517ZM113.061 22.0517H85.0927C83.7835 22.0517 82.724 20.9913 82.724 19.6831C82.724 18.3749 83.7836 17.3145 85.0927 17.3145H113.061C114.37 17.3145 115.429 18.3749 115.429 19.6831C115.43 20.9914 114.371 22.0517 113.062 22.0517H113.061Z" fill="#D4D349"/>
<path d="M90.4182 119.518H120.98C122.926 119.518 124.507 117.924 124.507 115.965V30.9026H90.419L90.4182 119.518ZM99.0437 42.4628H115.904C117.213 42.4628 118.273 43.5232 118.273 44.8314C118.273 46.1396 117.213 47.2 115.904 47.2H99.0437C97.7346 47.2 96.6751 46.1396 96.6751 44.8314C96.6751 43.524 97.7347 42.4628 99.0437 42.4628ZM99.0437 57.59H115.904C117.213 57.59 118.273 58.6505 118.273 59.9586C118.273 61.2668 117.213 62.3273 115.904 62.3273L99.0437 62.3264C97.7346 62.3264 96.6751 61.2659 96.6751 59.9578C96.6751 58.6504 97.7347 57.59 99.0437 57.59ZM99.0437 72.7148H115.904C117.213 72.7148 118.273 73.7753 118.273 75.0834C118.273 76.3916 117.213 77.4521 115.904 77.4521H99.0437C97.7346 77.4521 96.6751 76.3916 96.6751 75.0834C96.6751 73.7761 97.7347 72.7148 99.0437 72.7148ZM99.0437 87.8421H115.904C117.213 87.8421 118.273 88.9025 118.273 90.2107C118.273 91.519 117.213 92.5793 115.904 92.5793L99.0437 92.5784C97.7346 92.5784 96.6751 91.518 96.6751 90.2098C96.6751 88.9024 97.7347 87.8421 99.0437 87.8421ZM99.0437 102.967H115.904C117.213 102.967 118.273 104.027 118.273 105.335C118.273 106.644 117.213 107.704 115.904 107.704H99.0437C97.7346 107.704 96.6751 106.644 96.6751 105.335C96.6751 104.028 97.7347 102.967 99.0437 102.967Z" fill="#D4D349"/>
</g>
<defs>
<clipPath id="clip0_81_1860">
<rect width="134" height="130.469" fill="white" transform="translate(0 0.515381)"/>
</clipPath>
</defs>
</svg>
