<svg width="85" height="90" viewBox="0 0 85 90" fill="none" xmlns="http://www.w3.org/2000/svg">
<rect x="0.38916" y="0.662598" width="84.2217" height="88.6748" rx="10" fill="#070707"/>
<g clip-path="url(#clip0_81_3857)">
<path d="M62.8293 21.9822H23.9298C21.9833 21.9822 20.4051 23.5603 20.4051 25.5068V29.0825H66.3536V25.5068C66.3536 23.56 64.7755 21.9822 62.829 21.9822H62.8293ZM25.2293 27.1884C24.3168 27.1884 23.5685 26.4401 23.5685 25.5276C23.5685 24.6151 24.3168 23.8762 25.2293 23.8762C26.1418 23.8762 26.8807 24.6155 26.8807 25.5276C26.881 26.4401 26.1418 27.1884 25.2293 27.1884ZM30.4838 27.1884C29.5713 27.1884 28.823 26.4401 28.823 25.5276C28.823 24.6151 29.5713 23.8762 30.4838 23.8762C31.3963 23.8762 32.1352 24.6155 32.1352 25.5276C32.1352 26.4401 31.3963 27.1884 30.4838 27.1884ZM35.7383 27.1884C34.8258 27.1884 34.0775 26.4401 34.0775 25.5276C34.0775 24.6151 34.8258 23.8762 35.7383 23.8762C36.6508 23.8762 37.3897 24.6155 37.3897 25.5276C37.3897 26.4401 36.6504 27.1884 35.7383 27.1884Z" fill="#D4D349"/>
<path d="M20.4018 30.5193V64.4064C20.4018 66.3498 21.9813 67.929 23.934 67.929H62.8274C64.7802 67.929 66.3503 66.3494 66.3503 64.4064L66.3499 30.5193H20.4018ZM23.5688 35.4155C23.5688 34.4842 24.324 33.729 25.2553 33.729H36.1682C37.0995 33.729 37.8546 34.4842 37.8546 35.4155V47.5097C37.8546 48.441 37.0994 49.1962 36.1682 49.1962H25.2544C24.3231 49.1962 23.5679 48.441 23.5679 47.5097L23.5688 35.4155ZM37.1519 63.7061H24.3626C23.9223 63.7061 23.5681 63.3422 23.5681 62.9117C23.5681 62.4714 23.9223 62.1172 24.3626 62.1172H37.1519C37.5828 62.1172 37.937 62.4714 37.937 62.9117C37.937 63.3422 37.5828 63.7061 37.1519 63.7061ZM37.1519 58.9697H24.3626C23.9223 58.9697 23.5681 58.6155 23.5681 58.1846C23.5681 57.7443 23.9223 57.3902 24.3626 57.3902H37.1519C37.5828 57.3902 37.937 57.7443 37.937 58.1846C37.937 58.6155 37.5828 58.9697 37.1519 58.9697ZM60.5048 62.3165C60.5048 63.0853 59.8815 63.7085 59.1128 63.7085H42.4675C41.6987 63.7085 41.0755 63.0853 41.0755 62.3165V57.587C41.0755 56.8183 41.6987 56.195 42.4675 56.195H59.1137C59.8824 56.195 60.5057 56.8183 60.5057 57.587L60.5048 62.3165ZM62.1034 54.2433H24.3629C23.9226 54.2433 23.5685 53.8794 23.5685 53.4488C23.5685 53.0086 23.9226 52.6544 24.3629 52.6544H62.1034C62.5343 52.6544 62.8884 53.0086 62.8884 53.4488C62.8881 53.8794 62.5339 54.2433 62.103 54.2433H62.1034ZM62.1034 49.512H41.4171C40.9769 49.512 40.6227 49.1481 40.6227 48.7176C40.6227 48.2773 40.9769 47.9231 41.4171 47.9231H62.1034C62.5343 47.9231 62.8884 48.2773 62.8884 48.7176C62.8884 49.1481 62.5343 49.512 62.1034 49.512ZM62.1034 44.7756H41.4171C40.9769 44.7756 40.6227 44.4214 40.6227 43.9905C40.6227 43.5502 40.9769 43.196 41.4171 43.196H62.1034C62.5343 43.196 62.8884 43.5502 62.8884 43.9905C62.8884 44.4214 62.5343 44.7756 62.1034 44.7756ZM62.1034 40.0443H41.4171C40.9769 40.0443 40.6227 39.6901 40.6227 39.2498C40.6227 38.8189 40.9769 38.4648 41.4171 38.4648H62.1034C62.5343 38.4648 62.8884 38.8189 62.8884 39.2498C62.8884 39.6901 62.5343 40.0443 62.1034 40.0443ZM62.1034 35.3175H41.4171C40.9769 35.3175 40.6227 34.9536 40.6227 34.5231C40.6227 34.0828 40.9769 33.7286 41.4171 33.7286H62.1034C62.5343 33.7286 62.8884 34.0828 62.8884 34.5231C62.8884 34.954 62.5343 35.3175 62.1034 35.3175Z" fill="#D4D349"/>
</g>
<defs>
<clipPath id="clip0_81_3857">
<rect width="55" height="49.8667" fill="white" transform="translate(15 20.0669)"/>
</clipPath>
</defs>
</svg>
