<svg width="134" height="122" viewBox="0 0 134 122" fill="none" xmlns="http://www.w3.org/2000/svg">
<g clip-path="url(#clip0_81_1970)">
<path d="M124.646 64.6252L68.2959 8.27475C67.3176 7.29644 65.7321 7.29644 64.7547 8.27475L8.40428 64.6252C7.68802 65.3414 7.474 66.4184 7.86096 67.3548C8.2488 68.2912 9.16159 68.9 10.1749 68.9H26.4542V110.224C26.4542 111.606 27.5766 112.728 28.9584 112.728H72.7083H72.7467C74.1845 112.754 75.2903 111.619 75.2903 110.224V91.4402C75.2903 89.6496 77.9126 87.6833 80.2988 87.6833C82.6849 87.6833 85.3072 89.6495 85.3072 91.4402V110.224C85.3072 111.606 86.469 112.728 87.8508 112.728H104.092C105.474 112.728 106.596 111.606 106.596 110.224V68.9H122.875C123.888 68.9 124.801 68.2912 125.189 67.3548C125.578 66.4184 125.362 65.3414 124.646 64.6252H124.646ZM77.1487 74.9664C76.6587 75.4564 76.0201 75.7001 75.3781 75.7001C74.737 75.7001 74.0984 75.4555 73.6084 74.9664C69.703 71.061 63.3466 71.061 59.4405 74.9664C58.4622 75.9429 56.8768 75.9429 55.8994 74.9664C54.9211 73.9881 54.9211 72.4018 55.8994 71.4252C61.7561 65.565 71.292 65.565 77.1487 71.4226C78.1278 72.4018 78.1279 73.9863 77.1487 74.9664ZM86.0058 66.1093C85.5149 66.6002 84.8764 66.843 84.2352 66.843C83.5932 66.843 82.9538 66.6002 82.4646 66.1093C73.6755 57.322 59.3766 57.3202 50.5842 66.1093C49.6058 67.0876 48.0204 67.0876 47.043 66.1093C46.0647 65.1327 46.0647 63.5456 47.043 62.5682C57.7861 51.8251 75.263 51.8278 86.0053 62.5682C86.9819 63.5474 86.9819 65.1319 86.0053 66.1093H86.0058ZM94.8586 57.2556C94.3686 57.7456 93.7292 57.9893 93.088 57.9893C92.4469 57.9893 91.8066 57.7447 91.3175 57.2556C84.6965 50.6337 75.89 46.9859 66.5233 46.9859C57.1566 46.9859 48.352 50.6328 41.7291 57.2556C40.7508 58.2339 39.1654 58.2339 38.1879 57.2556C37.2096 56.2773 37.2096 54.6919 38.1879 53.7144C45.755 46.1456 55.8185 41.9775 66.5219 41.9775C77.2254 41.9775 87.2891 46.1458 94.8559 53.7144C95.8342 54.6927 95.8342 56.2782 94.8559 57.2556H94.8586Z" fill="#D4D349"/>
</g>
<defs>
<clipPath id="clip0_81_1970">
<rect width="134" height="121.422" fill="white" transform="translate(0 0.0391235)"/>
</clipPath>
</defs>
</svg>
